{"canvas_config":{"background":null,"height":1920,"ratio":"original","width":1080},"color_space":0,"config":{"adjust_max_index":1,"attachment_info":[],"combination_max_index":1,"export_range":null,"extract_audio_last_index":1,"lyrics_recognition_id":"","lyrics_sync":true,"lyrics_taskinfo":[],"maintrack_adsorb":true,"material_save_mode":0,"multi_language_current":"none","multi_language_list":[],"multi_language_main":"none","multi_language_mode":"none","original_sound_last_index":1,"record_audio_last_index":1,"sticker_max_index":1,"subtitle_keywords_config":null,"subtitle_recognition_id":"","subtitle_sync":true,"subtitle_taskinfo":[{"ai_accurate_recognize_enable":false,"content":"","id":"non_cache:d2f309e4783bfb17ca5439e9df0c84ea:209cc4ce-6244-41b9-841b-3a5168550ddb:false:[language]en-US","language":"en-US","remove_invalid_task_id":"","type":10},{"ai_accurate_recognize_enable":false,"content":"","id":"non_cache:042fba91c518df1f067872bc329efae4:e6cc6103-4124-476b-a719-5f39c32a4bc2:true","language":"en-US","remove_invalid_task_id":"","type":10}],"system_font_list":[],"video_mute":true,"zoom_info_params":null},"cover":null,"create_time":0,"duration":6703966666,"extra_info":{"subtitle_fragment_info_list":[{"end_time":7180000,"key":"ca03bb46e5173dd6f990feb5ba240b18","start_time":0,"subtitle_cache_info":""},{"end_time":10020000,"key":"7ab9e024cf67c3cde0061cee3123c88a","start_time":7180000,"subtitle_cache_info":"{\"sentence_list\":[{\"attribute\":{\"event\":\"speech\"},\"bilingual_lan\":\"zh-CN\",\"end_time\":10020,\"recognize_language_from_user\":\"en-US\",\"start_time\":7180,\"task_id\":\"non_cache:d2f309e4783bfb17ca5439e9df0c84ea:209cc4ce-6244-41b9-841b-3a5168550ddb:false:[language]en-US\",\"text\":\"as the music faded out the boss slumped into her chair\",\"translation_text\":\"\",\"words\":[{\"end_time\":7420,\"start_time\":7180,\"text\":\"as\"},{\"end_time\":7420,\"start_time\":7420,\"text\":\" \"},{\"end_time\":7500,\"start_time\":7420,\"text\":\"the\"},{\"end_time\":7500,\"start_time\":7500,\"text\":\" \"},{\"end_time\":7660,\"start_time\":7500,\"text\":\"music\"},{\"end_time\":7660,\"start_time\":7660,\"text\":\" \"},{\"end_time\":8060,\"start_time\":7820,\"text\":\"faded\"},{\"end_time\":8060,\"start_time\":8060,\"text\":\" \"},{\"end_time\":8340,\"start_time\":8060,\"text\":\"out\"},{\"end_time\":8340,\"start_time\":8340,\"text\":\" \"},{\"end_time\":8540,\"start_time\":8380,\"text\":\"the\"},{\"end_time\":8540,\"start_time\":8540,\"text\":\" \"},{\"end_time\":8820,\"start_time\":8540,\"text\":\"boss\"},{\"end_time\":8820,\"start_time\":8820,\"text\":\" \"},{\"end_time\":9220,\"start_time\":8860,\"text\":\"slumped\"},{\"end_time\":9220,\"start_time\":9220,\"text\":\" \"},{\"end_time\":9460,\"start_time\":9220,\"text\":\"into\"},{\"end_time\":9460,\"start_time\":9460,\"text\":\" \"},{\"end_time\":9580,\"start_time\":9460,\"text\":\"her\"},{\"end_time\":9580,\"start_time\":9580,\"text\":\" \"},{\"end_time\":10020,\"start_time\":9580,\"text\":\"chair\"}]}]}"},{"end_time":11620000,"key":"1615fd09c23a7f1ae2a4d6139639e1f5","start_time":10020000,"subtitle_cache_info":"{\"sentence_list\":[{\"attribute\":{\"event\":\"speech\"},\"bilingual_lan\":\"zh-CN\",\"end_time\":11620,\"recognize_language_from_user\":\"en-US\",\"start_time\":10020,\"task_id\":\"non_cache:d2f309e4783bfb17ca5439e9df0c84ea:209cc4ce-6244-41b9-841b-3a5168550ddb:false:[language]en-US\",\"text\":\"she explained to the woman in the corner\",\"translation_text\":\"\",\"words\":[{\"end_time\":10220,\"start_time\":10020,\"text\":\"she\"},{\"end_time\":10220,\"start_time\":10220,\"text\":\" \"},{\"end_time\":10580,\"start_time\":10220,\"text\":\"explained\"},{\"end_time\":10580,\"start_time\":10580,\"text\":\" \"},{\"end_time\":10740,\"start_time\":10580,\"text\":\"to\"},{\"end_time\":10740,\"start_time\":10740,\"text\":\" \"},{\"end_time\":10820,\"start_time\":10740,\"text\":\"the\"},{\"end_time\":10820,\"start_time\":10820,\"text\":\" \"},{\"end_time\":11060,\"start_time\":10820,\"text\":\"woman\"},{\"end_time\":11060,\"start_time\":11060,\"text\":\" \"},{\"end_time\":11180,\"start_time\":11060,\"text\":\"in\"},{\"end_time\":11180,\"start_time\":11180,\"text\":\" \"},{\"end_time\":11220,\"start_time\":11180,\"text\":\"the\"},{\"end_time\":11220,\"start_time\":11220,\"text\":\" \"},{\"end_time\":11620,\"start_time\":11220,\"text\":\"corner\"}]}]}"},{"end_time":13220000,"key":"51a7cff129bd53aabd39bcbc6de4adaf","start_time":11620000,"subtitle_cache_info":"{\"sentence_list\":[{\"attribute\":{\"event\":\"speech\"},\"bilingual_lan\":\"zh-CN\",\"end_time\":13220,\"recognize_language_from_user\":\"en-US\",\"start_time\":11620,\"task_id\":\"non_cache:d2f309e4783bfb17ca5439e9df0c84ea:209cc4ce-6244-41b9-841b-3a5168550ddb:false:[language]en-US\",\"text\":\"that this was a test for the new product\",\"translation_text\":\"\",\"words\":[{\"end_time\":11740,\"start_time\":11620,\"text\":\"that\"},{\"end_time\":11740,\"start_time\":11740,\"text\":\" \"},{\"end_time\":11940,\"start_time\":11740,\"text\":\"this\"},{\"end_time\":11940,\"start_time\":11940,\"text\":\" \"},{\"end_time\":12060,\"start_time\":11940,\"text\":\"was\"},{\"end_time\":12060,\"start_time\":12060,\"text\":\" \"},{\"end_time\":12140,\"start_time\":12060,\"text\":\"a\"},{\"end_time\":12140,\"start_time\":12140,\"text\":\" \"},{\"end_time\":12420,\"start_time\":12140,\"text\":\"test\"},{\"end_time\":12420,\"start_time\":12420,\"text\":\" \"},{\"end_time\":12580,\"start_time\":12460,\"text\":\"for\"},{\"end_time\":12580,\"start_time\":12580,\"text\":\" \"},{\"end_time\":12660,\"start_time\":12580,\"text\":\"the\"},{\"end_time\":12660,\"start_time\":12660,\"text\":\" \"},{\"end_time\":12820,\"start_time\":12660,\"text\":\"new\"},{\"end_time\":12820,\"start_time\":12820,\"text\":\" \"},{\"end_time\":13220,\"start_time\":12820,\"text\":\"product\"}]}]}"},{"end_time":14820000,"key":"6c2d97c8173299ece3776062fbf5ae5b","start_time":13220000,"subtitle_cache_info":"{\"sentence_list\":[{\"attribute\":{\"event\":\"speech\"},\"bilingual_lan\":\"zh-CN\",\"end_time\":14820,\"recognize_language_from_user\":\"en-US\",\"start_time\":13220,\"task_id\":\"non_cache:d2f309e4783bfb17ca5439e9df0c84ea:209cc4ce-6244-41b9-841b-3a5168550ddb:false:[language]en-US\",\"text\":\"it was their company's latest creation\",\"translation_text\":\"\",\"words\":[{\"end_time\":13380,\"start_time\":13220,\"text\":\"it\"},{\"end_time\":13380,\"start_time\":13380,\"text\":\" \"},{\"end_time\":13500,\"start_time\":13380,\"text\":\"was\"},{\"end_time\":13500,\"start_time\":13500,\"text\":\" \"},{\"end_time\":13620,\"start_time\":13500,\"text\":\"their\"},{\"end_time\":13620,\"start_time\":13620,\"text\":\" \"},{\"end_time\":13940,\"start_time\":13620,\"text\":\"company's\"},{\"end_time\":13940,\"start_time\":13940,\"text\":\" \"},{\"end_time\":14260,\"start_time\":13980,\"text\":\"latest\"},{\"end_time\":14260,\"start_time\":14260,\"text\":\" \"},{\"end_time\":14820,\"start_time\":14260,\"text\":\"creation\"}]}]}"},{"end_time":17400000,"key":"6b4d9890356794e58de7b87a8d2700e3","start_time":14820000,"subtitle_cache_info":"{\"sentence_list\":[{\"attribute\":{\"event\":\"speech\"},\"bilingual_lan\":\"zh-CN\",\"end_time\":17400,\"recognize_language_from_user\":\"en-US\",\"start_time\":14820,\"task_id\":\"non_cache:d2f309e4783bfb17ca5439e9df0c84ea:209cc4ce-6244-41b9-841b-3a5168550ddb:false:[language]en-US\",\"text\":\"the dancing thong which vibrated to the beat of music\",\"translation_text\":\"\",\"words\":[{\"end_time\":14980,\"start_time\":14820,\"text\":\"the\"},{\"end_time\":14980,\"start_time\":14980,\"text\":\" \"},{\"end_time\":15300,\"start_time\":14980,\"text\":\"dancing\"},{\"end_time\":15300,\"start_time\":15300,\"text\":\" \"},{\"end_time\":15580,\"start_time\":15340,\"text\":\"thong\"},{\"end_time\":15580,\"start_time\":15580,\"text\":\" \"},{\"end_time\":15940,\"start_time\":15700,\"text\":\"which\"},{\"end_time\":15940,\"start_time\":15940,\"text\":\" \"},{\"end_time\":16380,\"start_time\":15940,\"text\":\"vibrated\"},{\"end_time\":16380,\"start_time\":16380,\"text\":\" \"},{\"end_time\":16500,\"start_time\":16380,\"text\":\"to\"},{\"end_time\":16500,\"start_time\":16500,\"text\":\" \"},{\"end_time\":16580,\"start_time\":16500,\"text\":\"the\"},{\"end_time\":16580,\"start_time\":16580,\"text\":\" \"},{\"end_time\":16780,\"start_time\":16580,\"text\":\"beat\"},{\"end_time\":16780,\"start_time\":16780,\"text\":\" \"},{\"end_time\":16940,\"start_time\":16780,\"text\":\"of\"},{\"end_time\":16940,\"start_time\":16940,\"text\":\" \"},{\"end_time\":17400,\"start_time\":16940,\"text\":\"music\"}]}]}"},{"end_time":17520000,"key":"875681d78039c48e63ee2bf707f4fb58","start_time":17400000,"subtitle_cache_info":""},{"end_time":19380000,"key":"53bf4fad0c78c317a431bb4345e60c1e","start_time":17520000,"subtitle_cache_info":"{\"sentence_list\":[{\"attribute\":{\"event\":\"speech\"},\"bilingual_lan\":\"zh-CN\",\"end_time\":19380,\"recognize_language_from_user\":\"en-US\",\"start_time\":17520,\"task_id\":\"non_cache:d2f309e4783bfb17ca5439e9df0c84ea:209cc4ce-6244-41b9-841b-3a5168550ddb:false:[language]en-US\",\"text\":\"the boss invited the woman to try it out\",\"translation_text\":\"\",\"words\":[{\"end_time\":17580,\"start_time\":17520,\"text\":\"the\"},{\"end_time\":17580,\"start_time\":17580,\"text\":\" \"},{\"end_time\":17820,\"start_time\":17580,\"text\":\"boss\"},{\"end_time\":17820,\"start_time\":17820,\"text\":\" \"},{\"end_time\":18180,\"start_time\":17980,\"text\":\"invited\"},{\"end_time\":18180,\"start_time\":18180,\"text\":\" \"},{\"end_time\":18340,\"start_time\":18220,\"text\":\"the\"},{\"end_time\":18340,\"start_time\":18340,\"text\":\" \"},{\"end_time\":18580,\"start_time\":18340,\"text\":\"woman\"},{\"end_time\":18580,\"start_time\":18580,\"text\":\" \"},{\"end_time\":18740,\"start_time\":18580,\"text\":\"to\"},{\"end_time\":18740,\"start_time\":18740,\"text\":\" \"},{\"end_time\":18940,\"start_time\":18740,\"text\":\"try\"},{\"end_time\":18940,\"start_time\":18940,\"text\":\" \"},{\"end_time\":18980,\"start_time\":18940,\"text\":\"it\"},{\"end_time\":18980,\"start_time\":18980,\"text\":\" \"},{\"end_time\":19380,\"start_time\":18980,\"text\":\"out\"}]}]}"},{"end_time":21220000,"key":"a79e0f9090a14279026a9e8539dd6fd0","start_time":19380000,"subtitle_cache_info":"{\"sentence_list\":[{\"attribute\":{\"event\":\"speech\"},\"bilingual_lan\":\"zh-CN\",\"end_time\":21220,\"recognize_language_from_user\":\"en-US\",\"start_time\":19380,\"task_id\":\"non_cache:d2f309e4783bfb17ca5439e9df0c84ea:209cc4ce-6244-41b9-841b-3a5168550ddb:false:[language]en-US\",\"text\":\"she had just put it on when her husband called\",\"translation_text\":\"\",\"words\":[{\"end_time\":19540,\"start_time\":19380,\"text\":\"she\"},{\"end_time\":19540,\"start_time\":19540,\"text\":\" \"},{\"end_time\":19620,\"start_time\":19540,\"text\":\"had\"},{\"end_time\":19620,\"start_time\":19620,\"text\":\" \"},{\"end_time\":19780,\"start_time\":19620,\"text\":\"just\"},{\"end_time\":19780,\"start_time\":19780,\"text\":\" \"},{\"end_time\":19900,\"start_time\":19780,\"text\":\"put\"},{\"end_time\":19900,\"start_time\":19900,\"text\":\" \"},{\"end_time\":19980,\"start_time\":19900,\"text\":\"it\"},{\"end_time\":19980,\"start_time\":19980,\"text\":\" \"},{\"end_time\":20220,\"start_time\":19980,\"text\":\"on\"},{\"end_time\":20220,\"start_time\":20220,\"text\":\" \"},{\"end_time\":20300,\"start_time\":20220,\"text\":\"when\"},{\"end_time\":20300,\"start_time\":20300,\"text\":\" \"},{\"end_time\":20420,\"start_time\":20300,\"text\":\"her\"},{\"end_time\":20420,\"start_time\":20420,\"text\":\" \"},{\"end_time\":20700,\"start_time\":20420,\"text\":\"husband\"},{\"end_time\":20700,\"start_time\":20700,\"text\":\" \"},{\"end_time\":21220,\"start_time\":20740,\"text\":\"called\"}]}]}"},{"end_time":23300000,"key":"c6926085a2444ab7d4474a6e09fb7f33","start_time":21220000,"subtitle_cache_info":"{\"sentence_list\":[{\"attribute\":{\"event\":\"speech\"},\"bilingual_lan\":\"zh-CN\",\"end_time\":23300,\"recognize_language_from_user\":\"en-US\",\"start_time\":21220,\"task_id\":\"non_cache:d2f309e4783bfb17ca5439e9df0c84ea:209cc4ce-6244-41b9-841b-3a5168550ddb:false:[language]en-US\",\"text\":\"she'd forgotten it was their daughter's competition day\",\"translation_text\":\"\",\"words\":[{\"end_time\":21420,\"start_time\":21220,\"text\":\"she'd\"},{\"end_time\":21420,\"start_time\":21420,\"text\":\" \"},{\"end_time\":21780,\"start_time\":21420,\"text\":\"forgotten\"},{\"end_time\":21780,\"start_time\":21780,\"text\":\" \"},{\"end_time\":21900,\"start_time\":21780,\"text\":\"it\"},{\"end_time\":21900,\"start_time\":21900,\"text\":\" \"},{\"end_time\":22020,\"start_time\":21900,\"text\":\"was\"},{\"end_time\":22020,\"start_time\":22020,\"text\":\" \"},{\"end_time\":22140,\"start_time\":22020,\"text\":\"their\"},{\"end_time\":22140,\"start_time\":22140,\"text\":\" \"},{\"end_time\":22460,\"start_time\":22140,\"text\":\"daughter's\"},{\"end_time\":22460,\"start_time\":22460,\"text\":\" \"},{\"end_time\":22900,\"start_time\":22460,\"text\":\"competition\"},{\"end_time\":22900,\"start_time\":22900,\"text\":\" \"},{\"end_time\":23300,\"start_time\":22940,\"text\":\"day\"}]}]}"},{"end_time":24660000,"key":"805bb709b6505ae0e9c70ca18f88db47","start_time":23300000,"subtitle_cache_info":"{\"sentence_list\":[{\"attribute\":{\"event\":\"speech\"},\"bilingual_lan\":\"zh-CN\",\"end_time\":24660,\"recognize_language_from_user\":\"en-US\",\"start_time\":23300,\"task_id\":\"non_cache:d2f309e4783bfb17ca5439e9df0c84ea:209cc4ce-6244-41b9-841b-3a5168550ddb:false:[language]en-US\",\"text\":\"the woman hurried to the venue\",\"translation_text\":\"\",\"words\":[{\"end_time\":23420,\"start_time\":23300,\"text\":\"the\"},{\"end_time\":23420,\"start_time\":23420,\"text\":\" \"},{\"end_time\":23660,\"start_time\":23420,\"text\":\"woman\"},{\"end_time\":23660,\"start_time\":23660,\"text\":\" \"},{\"end_time\":23980,\"start_time\":23700,\"text\":\"hurried\"},{\"end_time\":23980,\"start_time\":23980,\"text\":\" \"},{\"end_time\":24180,\"start_time\":24020,\"text\":\"to\"},{\"end_time\":24180,\"start_time\":24180,\"text\":\" \"},{\"end_time\":24260,\"start_time\":24180,\"text\":\"the\"},{\"end_time\":24260,\"start_time\":24260,\"text\":\" \"},{\"end_time\":24660,\"start_time\":24260,\"text\":\"venue\"}]}]}"},{"end_time":25900000,"key":"aa870fd6439d86553051731d5d963938","start_time":24660000,"subtitle_cache_info":"{\"sentence_list\":[{\"attribute\":{\"event\":\"speech\"},\"bilingual_lan\":\"zh-CN\",\"end_time\":25900,\"recognize_language_from_user\":\"en-US\",\"start_time\":24660,\"task_id\":\"non_cache:d2f309e4783bfb17ca5439e9df0c84ea:209cc4ce-6244-41b9-841b-3a5168550ddb:false:[language]en-US\",\"text\":\"as soon as she took her seat\",\"translation_text\":\"\",\"words\":[{\"end_time\":24860,\"start_time\":24660,\"text\":\"as\"},{\"end_time\":24860,\"start_time\":24860,\"text\":\" \"},{\"end_time\":25020,\"start_time\":24860,\"text\":\"soon\"},{\"end_time\":25020,\"start_time\":25020,\"text\":\" \"},{\"end_time\":25140,\"start_time\":25020,\"text\":\"as\"},{\"end_time\":25140,\"start_time\":25140,\"text\":\" \"},{\"end_time\":25260,\"start_time\":25140,\"text\":\"she\"},{\"end_time\":25260,\"start_time\":25260,\"text\":\" \"},{\"end_time\":25420,\"start_time\":25260,\"text\":\"took\"},{\"end_time\":25420,\"start_time\":25420,\"text\":\" \"},{\"end_time\":25540,\"start_time\":25420,\"text\":\"her\"},{\"end_time\":25540,\"start_time\":25540,\"text\":\" \"},{\"end_time\":25900,\"start_time\":25540,\"text\":\"seat\"}]}]}"},{"end_time":28020000,"key":"59b7dcb89d6108b6e983ba1b8bdb94bd","start_time":25900000,"subtitle_cache_info":"{\"sentence_list\":[{\"attribute\":{\"event\":\"speech\"},\"bilingual_lan\":\"zh-CN\",\"end_time\":28020,\"recognize_language_from_user\":\"en-US\",\"start_time\":25900,\"task_id\":\"non_cache:d2f309e4783bfb17ca5439e9df0c84ea:209cc4ce-6244-41b9-841b-3a5168550ddb:false:[language]en-US\",\"text\":\"the cheerleading squad beside her started drumming\",\"translation_text\":\"\",\"words\":[{\"end_time\":26060,\"start_time\":25900,\"text\":\"the\"},{\"end_time\":26060,\"start_time\":26060,\"text\":\" \"},{\"end_time\":26500,\"start_time\":26060,\"text\":\"cheerleading\"},{\"end_time\":26500,\"start_time\":26500,\"text\":\" \"},{\"end_time\":26860,\"start_time\":26540,\"text\":\"squad\"},{\"end_time\":26860,\"start_time\":26860,\"text\":\" \"},{\"end_time\":27180,\"start_time\":26940,\"text\":\"beside\"},{\"end_time\":27180,\"start_time\":27180,\"text\":\" \"},{\"end_time\":27340,\"start_time\":27180,\"text\":\"her\"},{\"end_time\":27340,\"start_time\":27340,\"text\":\" \"},{\"end_time\":27620,\"start_time\":27340,\"text\":\"started\"},{\"end_time\":27620,\"start_time\":27620,\"text\":\" \"},{\"end_time\":28020,\"start_time\":27620,\"text\":\"drumming\"}]}]}"},{"end_time":30060000,"key":"e9aae375b325eaa93885c4e97f0d0db8","start_time":28020000,"subtitle_cache_info":"{\"sentence_list\":[{\"attribute\":{\"event\":\"speech\"},\"bilingual_lan\":\"zh-CN\",\"end_time\":30060,\"recognize_language_from_user\":\"en-US\",\"start_time\":28020,\"task_id\":\"non_cache:d2f309e4783bfb17ca5439e9df0c84ea:209cc4ce-6244-41b9-841b-3a5168550ddb:false:[language]en-US\",\"text\":\"the vibrations from the thong made her squirm\",\"translation_text\":\"\",\"words\":[{\"end_time\":28180,\"start_time\":28020,\"text\":\"the\"},{\"end_time\":28180,\"start_time\":28180,\"text\":\" \"},{\"end_time\":28580,\"start_time\":28180,\"text\":\"vibrations\"},{\"end_time\":28580,\"start_time\":28580,\"text\":\" \"},{\"end_time\":28940,\"start_time\":28780,\"text\":\"from\"},{\"end_time\":28940,\"start_time\":28940,\"text\":\" \"},{\"end_time\":29020,\"start_time\":28940,\"text\":\"the\"},{\"end_time\":29020,\"start_time\":29020,\"text\":\" \"},{\"end_time\":29300,\"start_time\":29020,\"text\":\"thong\"},{\"end_time\":29300,\"start_time\":29300,\"text\":\" \"},{\"end_time\":29540,\"start_time\":29380,\"text\":\"made\"},{\"end_time\":29540,\"start_time\":29540,\"text\":\" \"},{\"end_time\":29700,\"start_time\":29540,\"text\":\"her\"},{\"end_time\":29700,\"start_time\":29700,\"text\":\" \"},{\"end_time\":30060,\"start_time\":29700,\"text\":\"squirm\"}]}]}"},{"end_time":30920000,"key":"da51bae638768ddc389886bfb4ce3df5","start_time":30060000,"subtitle_cache_info":"{\"sentence_list\":[{\"attribute\":{\"event\":\"speech\"},\"bilingual_lan\":\"zh-CN\",\"end_time\":30920,\"recognize_language_from_user\":\"en-US\",\"start_time\":30060,\"task_id\":\"non_cache:d2f309e4783bfb17ca5439e9df0c84ea:209cc4ce-6244-41b9-841b-3a5168550ddb:false:[language]en-US\",\"text\":\"restlessly\",\"translation_text\":\"\",\"words\":[{\"end_time\":30920,\"start_time\":30060,\"text\":\"restlessly\"}]}]}"},{"end_time":32020000,"key":"07aa5293b72000a246dfd76159b8e42b","start_time":30920000,"subtitle_cache_info":""},{"end_time":33220000,"key":"01344d132d250bd657152f9c342493f1","start_time":32020000,"subtitle_cache_info":"{\"sentence_list\":[{\"attribute\":{\"event\":\"speech\"},\"bilingual_lan\":\"zh-CN\",\"end_time\":33220,\"recognize_language_from_user\":\"en-US\",\"start_time\":32020,\"task_id\":\"non_cache:d2f309e4783bfb17ca5439e9df0c84ea:209cc4ce-6244-41b9-841b-3a5168550ddb:false:[language]en-US\",\"text\":\"to hide her discomfort\",\"translation_text\":\"\",\"words\":[{\"end_time\":32260,\"start_time\":32020,\"text\":\"to\"},{\"end_time\":32260,\"start_time\":32260,\"text\":\" \"},{\"end_time\":32460,\"start_time\":32260,\"text\":\"hide\"},{\"end_time\":32460,\"start_time\":32460,\"text\":\" \"},{\"end_time\":32580,\"start_time\":32460,\"text\":\"her\"},{\"end_time\":32580,\"start_time\":32580,\"text\":\" \"},{\"end_time\":33220,\"start_time\":32580,\"text\":\"discomfort\"}]}]}"},{"end_time":35180000,"key":"84b39794e82e0ff529a484130806fe8a","start_time":33220000,"subtitle_cache_info":"{\"sentence_list\":[{\"attribute\":{\"event\":\"speech\"},\"bilingual_lan\":\"zh-CN\",\"end_time\":35180,\"recognize_language_from_user\":\"en-US\",\"start_time\":33220,\"task_id\":\"non_cache:d2f309e4783bfb17ca5439e9df0c84ea:209cc4ce-6244-41b9-841b-3a5168550ddb:false:[language]en-US\",\"text\":\"she pretended to cheer and sink with the rhythm\",\"translation_text\":\"\",\"words\":[{\"end_time\":33420,\"start_time\":33220,\"text\":\"she\"},{\"end_time\":33420,\"start_time\":33420,\"text\":\" \"},{\"end_time\":33740,\"start_time\":33420,\"text\":\"pretended\"},{\"end_time\":33740,\"start_time\":33740,\"text\":\" \"},{\"end_time\":33860,\"start_time\":33740,\"text\":\"to\"},{\"end_time\":33860,\"start_time\":33860,\"text\":\" \"},{\"end_time\":34140,\"start_time\":33860,\"text\":\"cheer\"},{\"end_time\":34140,\"start_time\":34140,\"text\":\" \"},{\"end_time\":34340,\"start_time\":34180,\"text\":\"and\"},{\"end_time\":34340,\"start_time\":34340,\"text\":\" \"},{\"end_time\":34580,\"start_time\":34340,\"text\":\"sink\"},{\"end_time\":34580,\"start_time\":34580,\"text\":\" \"},{\"end_time\":34740,\"start_time\":34620,\"text\":\"with\"},{\"end_time\":34740,\"start_time\":34740,\"text\":\" \"},{\"end_time\":34860,\"start_time\":34740,\"text\":\"the\"},{\"end_time\":34860,\"start_time\":34860,\"text\":\" \"},{\"end_time\":35180,\"start_time\":34860,\"text\":\"rhythm\"}]}]}"},{"end_time":37240000,"key":"943a2d69818a5325d996fcc39c06719a","start_time":35180000,"subtitle_cache_info":"{\"sentence_list\":[{\"attribute\":{\"event\":\"speech\"},\"bilingual_lan\":\"zh-CN\",\"end_time\":37240,\"recognize_language_from_user\":\"en-US\",\"start_time\":35180,\"task_id\":\"non_cache:d2f309e4783bfb17ca5439e9df0c84ea:209cc4ce-6244-41b9-841b-3a5168550ddb:false:[language]en-US\",\"text\":\"but the sensations grew overwhelming\",\"translation_text\":\"\",\"words\":[{\"end_time\":35380,\"start_time\":35180,\"text\":\"but\"},{\"end_time\":35380,\"start_time\":35380,\"text\":\" \"},{\"end_time\":35500,\"start_time\":35380,\"text\":\"the\"},{\"end_time\":35500,\"start_time\":35500,\"text\":\" \"},{\"end_time\":35900,\"start_time\":35500,\"text\":\"sensations\"},{\"end_time\":35900,\"start_time\":35900,\"text\":\" \"},{\"end_time\":36300,\"start_time\":36100,\"text\":\"grew\"},{\"end_time\":36300,\"start_time\":36300,\"text\":\" \"},{\"end_time\":37240,\"start_time\":36340,\"text\":\"overwhelming\"}]}]}"},{"end_time":38740000,"key":"e8ae78b4363c13d80ed89857967b7369","start_time":37240000,"subtitle_cache_info":""},{"end_time":40340000,"key":"29f24b093db925c20e9a2c45d78a3880","start_time":38740000,"subtitle_cache_info":"{\"sentence_list\":[{\"attribute\":{\"event\":\"speech\"},\"bilingual_lan\":\"zh-CN\",\"end_time\":40340,\"recognize_language_from_user\":\"en-US\",\"start_time\":38740,\"task_id\":\"non_cache:d2f309e4783bfb17ca5439e9df0c84ea:209cc4ce-6244-41b9-841b-3a5168550ddb:false:[language]en-US\",\"text\":\"trying to ease the awkwardness\",\"translation_text\":\"\",\"words\":[{\"end_time\":39060,\"start_time\":38740,\"text\":\"trying\"},{\"end_time\":39060,\"start_time\":39060,\"text\":\" \"},{\"end_time\":39180,\"start_time\":39060,\"text\":\"to\"},{\"end_time\":39180,\"start_time\":39180,\"text\":\" \"},{\"end_time\":39380,\"start_time\":39180,\"text\":\"ease\"},{\"end_time\":39380,\"start_time\":39380,\"text\":\" \"},{\"end_time\":39580,\"start_time\":39460,\"text\":\"the\"},{\"end_time\":39580,\"start_time\":39580,\"text\":\" \"},{\"end_time\":40340,\"start_time\":39580,\"text\":\"awkwardness\"}]}]}"},{"end_time":42020000,"key":"9c903f2ef481ae1de2a20d39a047c284","start_time":40340000,"subtitle_cache_info":"{\"sentence_list\":[{\"attribute\":{\"event\":\"speech\"},\"bilingual_lan\":\"zh-CN\",\"end_time\":42020,\"recognize_language_from_user\":\"en-US\",\"start_time\":40340,\"task_id\":\"non_cache:d2f309e4783bfb17ca5439e9df0c84ea:209cc4ce-6244-41b9-841b-3a5168550ddb:false:[language]en-US\",\"text\":\"she began leading the cheers herself\",\"translation_text\":\"\",\"words\":[{\"end_time\":40580,\"start_time\":40340,\"text\":\"she\"},{\"end_time\":40580,\"start_time\":40580,\"text\":\" \"},{\"end_time\":40820,\"start_time\":40580,\"text\":\"began\"},{\"end_time\":40820,\"start_time\":40820,\"text\":\" \"},{\"end_time\":41140,\"start_time\":40860,\"text\":\"leading\"},{\"end_time\":41140,\"start_time\":41140,\"text\":\" \"},{\"end_time\":41220,\"start_time\":41140,\"text\":\"the\"},{\"end_time\":41220,\"start_time\":41220,\"text\":\" \"},{\"end_time\":41460,\"start_time\":41220,\"text\":\"cheers\"},{\"end_time\":41460,\"start_time\":41460,\"text\":\" \"},{\"end_time\":42020,\"start_time\":41500,\"text\":\"herself\"}]}]}"},{"end_time":43740000,"key":"b013f3274e306da286bdd4456ec9c36d","start_time":42020000,"subtitle_cache_info":"{\"sentence_list\":[{\"attribute\":{\"event\":\"speech\"},\"bilingual_lan\":\"zh-CN\",\"end_time\":43740,\"recognize_language_from_user\":\"en-US\",\"start_time\":42020,\"task_id\":\"non_cache:d2f309e4783bfb17ca5439e9df0c84ea:209cc4ce-6244-41b9-841b-3a5168550ddb:false:[language]en-US\",\"text\":\"just as she thought the ordeal was over\",\"translation_text\":\"\",\"words\":[{\"end_time\":42260,\"start_time\":42020,\"text\":\"just\"},{\"end_time\":42260,\"start_time\":42260,\"text\":\" \"},{\"end_time\":42380,\"start_time\":42260,\"text\":\"as\"},{\"end_time\":42380,\"start_time\":42380,\"text\":\" \"},{\"end_time\":42500,\"start_time\":42380,\"text\":\"she\"},{\"end_time\":42500,\"start_time\":42500,\"text\":\" \"},{\"end_time\":42740,\"start_time\":42500,\"text\":\"thought\"},{\"end_time\":42740,\"start_time\":42740,\"text\":\" \"},{\"end_time\":42860,\"start_time\":42740,\"text\":\"the\"},{\"end_time\":42860,\"start_time\":42860,\"text\":\" \"},{\"end_time\":43100,\"start_time\":42860,\"text\":\"ordeal\"},{\"end_time\":43100,\"start_time\":43100,\"text\":\" \"},{\"end_time\":43260,\"start_time\":43140,\"text\":\"was\"},{\"end_time\":43260,\"start_time\":43260,\"text\":\" \"},{\"end_time\":43740,\"start_time\":43260,\"text\":\"over\"}]}]}"},{"end_time":45460000,"key":"97372947207d2b6e6d9b804f4de973f6","start_time":43740000,"subtitle_cache_info":"{\"sentence_list\":[{\"attribute\":{\"event\":\"speech\"},\"bilingual_lan\":\"zh-CN\",\"end_time\":45460,\"recognize_language_from_user\":\"en-US\",\"start_time\":43740,\"task_id\":\"non_cache:d2f309e4783bfb17ca5439e9df0c84ea:209cc4ce-6244-41b9-841b-3a5168550ddb:false:[language]en-US\",\"text\":\"the opposing team saw her enthusiasm\",\"translation_text\":\"\",\"words\":[{\"end_time\":43900,\"start_time\":43740,\"text\":\"the\"},{\"end_time\":43900,\"start_time\":43900,\"text\":\" \"},{\"end_time\":44220,\"start_time\":43900,\"text\":\"opposing\"},{\"end_time\":44220,\"start_time\":44220,\"text\":\" \"},{\"end_time\":44460,\"start_time\":44220,\"text\":\"team\"},{\"end_time\":44460,\"start_time\":44460,\"text\":\" \"},{\"end_time\":44700,\"start_time\":44500,\"text\":\"saw\"},{\"end_time\":44700,\"start_time\":44700,\"text\":\" \"},{\"end_time\":44820,\"start_time\":44700,\"text\":\"her\"},{\"end_time\":44820,\"start_time\":44820,\"text\":\" \"},{\"end_time\":45460,\"start_time\":44820,\"text\":\"enthusiasm\"}]}]}"},{"end_time":46740000,"key":"b544f2747d4a23da17ae052ea532db56","start_time":45460000,"subtitle_cache_info":"{\"sentence_list\":[{\"attribute\":{\"event\":\"speech\"},\"bilingual_lan\":\"zh-CN\",\"end_time\":46740,\"recognize_language_from_user\":\"en-US\",\"start_time\":45460,\"task_id\":\"non_cache:d2f309e4783bfb17ca5439e9df0c84ea:209cc4ce-6244-41b9-841b-3a5168550ddb:false:[language]en-US\",\"text\":\"and refused to be outdone\",\"translation_text\":\"\",\"words\":[{\"end_time\":45660,\"start_time\":45460,\"text\":\"and\"},{\"end_time\":45660,\"start_time\":45660,\"text\":\" \"},{\"end_time\":46020,\"start_time\":45660,\"text\":\"refused\"},{\"end_time\":46020,\"start_time\":46020,\"text\":\" \"},{\"end_time\":46140,\"start_time\":46020,\"text\":\"to\"},{\"end_time\":46140,\"start_time\":46140,\"text\":\" \"},{\"end_time\":46260,\"start_time\":46140,\"text\":\"be\"},{\"end_time\":46260,\"start_time\":46260,\"text\":\" \"},{\"end_time\":46740,\"start_time\":46260,\"text\":\"outdone\"}]}]}"},{"end_time":48780000,"key":"733d9fdbf23e8812a3134eeda00d0bb2","start_time":46740000,"subtitle_cache_info":"{\"sentence_list\":[{\"attribute\":{\"event\":\"speech\"},\"bilingual_lan\":\"zh-CN\",\"end_time\":48780,\"recognize_language_from_user\":\"en-US\",\"start_time\":46740,\"task_id\":\"non_cache:d2f309e4783bfb17ca5439e9df0c84ea:209cc4ce-6244-41b9-841b-3a5168550ddb:false:[language]en-US\",\"text\":\"a cheer off erupted between the two squads\",\"translation_text\":\"\",\"words\":[{\"end_time\":46900,\"start_time\":46740,\"text\":\"a\"},{\"end_time\":46900,\"start_time\":46900,\"text\":\" \"},{\"end_time\":47100,\"start_time\":46900,\"text\":\"cheer\"},{\"end_time\":47100,\"start_time\":47100,\"text\":\" \"},{\"end_time\":47300,\"start_time\":47100,\"text\":\"off\"},{\"end_time\":47300,\"start_time\":47300,\"text\":\" \"},{\"end_time\":47660,\"start_time\":47300,\"text\":\"erupted\"},{\"end_time\":47660,\"start_time\":47660,\"text\":\" \"},{\"end_time\":47940,\"start_time\":47700,\"text\":\"between\"},{\"end_time\":47940,\"start_time\":47940,\"text\":\" \"},{\"end_time\":48020,\"start_time\":47940,\"text\":\"the\"},{\"end_time\":48020,\"start_time\":48020,\"text\":\" \"},{\"end_time\":48220,\"start_time\":48020,\"text\":\"two\"},{\"end_time\":48220,\"start_time\":48220,\"text\":\" \"},{\"end_time\":48780,\"start_time\":48220,\"text\":\"squads\"}]}]}"},{"end_time":50220000,"key":"850576af2ba03c83d042af17b5afd792","start_time":48780000,"subtitle_cache_info":"{\"sentence_list\":[{\"attribute\":{\"event\":\"speech\"},\"bilingual_lan\":\"zh-CN\",\"end_time\":50220,\"recognize_language_from_user\":\"en-US\",\"start_time\":48780,\"task_id\":\"non_cache:d2f309e4783bfb17ca5439e9df0c84ea:209cc4ce-6244-41b9-841b-3a5168550ddb:false:[language]en-US\",\"text\":\"each trying to out shout the other\",\"translation_text\":\"\",\"words\":[{\"end_time\":49100,\"start_time\":48780,\"text\":\"each\"},{\"end_time\":49100,\"start_time\":49100,\"text\":\" \"},{\"end_time\":49300,\"start_time\":49100,\"text\":\"trying\"},{\"end_time\":49300,\"start_time\":49300,\"text\":\" \"},{\"end_time\":49380,\"start_time\":49300,\"text\":\"to\"},{\"end_time\":49380,\"start_time\":49380,\"text\":\" \"},{\"end_time\":49540,\"start_time\":49380,\"text\":\"out\"},{\"end_time\":49540,\"start_time\":49540,\"text\":\" \"},{\"end_time\":49700,\"start_time\":49540,\"text\":\"shout\"},{\"end_time\":49700,\"start_time\":49700,\"text\":\" \"},{\"end_time\":49860,\"start_time\":49740,\"text\":\"the\"},{\"end_time\":49860,\"start_time\":49860,\"text\":\" \"},{\"end_time\":50220,\"start_time\":49860,\"text\":\"other\"}]}]}"},{"end_time":51520000,"key":"50542cb5b88c67c89df01254a77f71f7","start_time":50220000,"subtitle_cache_info":"{\"sentence_list\":[{\"attribute\":{\"event\":\"speech\"},\"bilingual_lan\":\"zh-CN\",\"end_time\":51520,\"recognize_language_from_user\":\"en-US\",\"start_time\":50220,\"task_id\":\"non_cache:d2f309e4783bfb17ca5439e9df0c84ea:209cc4ce-6244-41b9-841b-3a5168550ddb:false:[language]en-US\",\"text\":\"and she was caught in the middle\",\"translation_text\":\"\",\"words\":[{\"end_time\":50420,\"start_time\":50220,\"text\":\"and\"},{\"end_time\":50420,\"start_time\":50420,\"text\":\" \"},{\"end_time\":50540,\"start_time\":50420,\"text\":\"she\"},{\"end_time\":50540,\"start_time\":50540,\"text\":\" \"},{\"end_time\":50660,\"start_time\":50540,\"text\":\"was\"},{\"end_time\":50660,\"start_time\":50660,\"text\":\" \"},{\"end_time\":50860,\"start_time\":50660,\"text\":\"caught\"},{\"end_time\":50860,\"start_time\":50860,\"text\":\" \"},{\"end_time\":50980,\"start_time\":50860,\"text\":\"in\"},{\"end_time\":50980,\"start_time\":50980,\"text\":\" \"},{\"end_time\":51060,\"start_time\":50980,\"text\":\"the\"},{\"end_time\":51060,\"start_time\":51060,\"text\":\" \"},{\"end_time\":51520,\"start_time\":51060,\"text\":\"middle\"}]}]}"},{"end_time":53620000,"key":"2087506a876454157c4018478ee93062","start_time":51520000,"subtitle_cache_info":""},{"end_time":55020000,"key":"4ab8249b3f767f0f5d68c2c4b12bd2d1","start_time":53620000,"subtitle_cache_info":"{\"sentence_list\":[{\"attribute\":{\"event\":\"speech\"},\"bilingual_lan\":\"zh-CN\",\"end_time\":55020,\"recognize_language_from_user\":\"en-US\",\"start_time\":53620,\"task_id\":\"non_cache:d2f309e4783bfb17ca5439e9df0c84ea:209cc4ce-6244-41b9-841b-3a5168550ddb:false:[language]en-US\",\"text\":\"the daughter smiled happily\",\"translation_text\":\"\",\"words\":[{\"end_time\":53780,\"start_time\":53620,\"text\":\"the\"},{\"end_time\":53780,\"start_time\":53780,\"text\":\" \"},{\"end_time\":54020,\"start_time\":53780,\"text\":\"daughter\"},{\"end_time\":54020,\"start_time\":54020,\"text\":\" \"},{\"end_time\":54340,\"start_time\":54100,\"text\":\"smiled\"},{\"end_time\":54340,\"start_time\":54340,\"text\":\" \"},{\"end_time\":55020,\"start_time\":54420,\"text\":\"happily\"}]}]}"},{"end_time":57220000,"key":"a393d69c761a23431e60a9f2e83d3d64","start_time":55020000,"subtitle_cache_info":"{\"sentence_list\":[{\"attribute\":{\"event\":\"speech\"},\"bilingual_lan\":\"zh-CN\",\"end_time\":57220,\"recognize_language_from_user\":\"en-US\",\"start_time\":55020,\"task_id\":\"non_cache:d2f309e4783bfb17ca5439e9df0c84ea:209cc4ce-6244-41b9-841b-3a5168550ddb:false:[language]en-US\",\"text\":\"seeing her mom putting all her energy into cheering\",\"translation_text\":\"\",\"words\":[{\"end_time\":55260,\"start_time\":55020,\"text\":\"seeing\"},{\"end_time\":55260,\"start_time\":55260,\"text\":\" \"},{\"end_time\":55380,\"start_time\":55260,\"text\":\"her\"},{\"end_time\":55380,\"start_time\":55380,\"text\":\" \"},{\"end_time\":55660,\"start_time\":55380,\"text\":\"mom\"},{\"end_time\":55660,\"start_time\":55660,\"text\":\" \"},{\"end_time\":55860,\"start_time\":55660,\"text\":\"putting\"},{\"end_time\":55860,\"start_time\":55860,\"text\":\" \"},{\"end_time\":56100,\"start_time\":55900,\"text\":\"all\"},{\"end_time\":56100,\"start_time\":56100,\"text\":\" \"},{\"end_time\":56220,\"start_time\":56100,\"text\":\"her\"},{\"end_time\":56220,\"start_time\":56220,\"text\":\" \"},{\"end_time\":56540,\"start_time\":56220,\"text\":\"energy\"},{\"end_time\":56540,\"start_time\":56540,\"text\":\" \"},{\"end_time\":56740,\"start_time\":56580,\"text\":\"into\"},{\"end_time\":56740,\"start_time\":56740,\"text\":\" \"},{\"end_time\":57220,\"start_time\":56740,\"text\":\"cheering\"}]}]}"},{"end_time":60000000,"key":"1f3c2c49b379f2ab46d2c005ba2bd082","start_time":57220000,"subtitle_cache_info":"{\"sentence_list\":[{\"attribute\":{\"event\":\"speech\"},\"bilingual_lan\":\"zh-CN\",\"end_time\":60000,\"recognize_language_from_user\":\"en-US\",\"start_time\":57220,\"task_id\":\"non_cache:d2f309e4783bfb17ca5439e9df0c84ea:209cc4ce-6244-41b9-841b-3a5168550ddb:false:[language]en-US\",\"text\":\"later the woman collapsed into the car seat exhausted\",\"translation_text\":\"\",\"words\":[{\"end_time\":57540,\"start_time\":57220,\"text\":\"later\"},{\"end_time\":57540,\"start_time\":57540,\"text\":\" \"},{\"end_time\":57700,\"start_time\":57620,\"text\":\"the\"},{\"end_time\":57700,\"start_time\":57700,\"text\":\" \"},{\"end_time\":57940,\"start_time\":57700,\"text\":\"woman\"},{\"end_time\":57940,\"start_time\":57940,\"text\":\" \"},{\"end_time\":58380,\"start_time\":57980,\"text\":\"collapsed\"},{\"end_time\":58380,\"start_time\":58380,\"text\":\" \"},{\"end_time\":58620,\"start_time\":58420,\"text\":\"into\"},{\"end_time\":58620,\"start_time\":58620,\"text\":\" \"},{\"end_time\":58660,\"start_time\":58620,\"text\":\"the\"},{\"end_time\":58660,\"start_time\":58660,\"text\":\" \"},{\"end_time\":58900,\"start_time\":58660,\"text\":\"car\"},{\"end_time\":58900,\"start_time\":58900,\"text\":\" \"},{\"end_time\":59100,\"start_time\":58900,\"text\":\"seat\"},{\"end_time\":59100,\"start_time\":59100,\"text\":\" \"},{\"end_time\":60000,\"start_time\":59220,\"text\":\"exhausted\"}]}]}"}],"text_to_video":null,"track_info":null},"fps":30.0,"free_render_index_mode_on":false,"group_container":null,"id":"E1B7B494-B46F-4791-A094-3E2612133E04","is_drop_frame_timecode":false,"keyframe_graph_list":[],"keyframes":{"adjusts":[],"audios":[],"effects":[],"filters":[],"handwrites":[],"stickers":[],"texts":[],"videos":[]},"last_modified_platform":{"app_id":359289,"app_source":"cc","app_version":"5.9.1","device_id":"5b4712a9c85e8f565cb954c5534ed4b4","hard_disk_id":"af232b8aa166cf07e93db8e50d3c5356","mac_address":"b3f7f658d0c0d0adc42ff2b63f532607","os":"windows","os_version":"10.0.26100"},"lyrics_effects":[],"materials":{"ai_translates":[],"audio_balances":[],"audio_effects":[],"audio_fades":[],"audio_track_indexes":[],"audios":[],"beats":[],"canvases":[{"album_image":"","blur":0.0,"color":"","id":"BF6A4AD1-FB9D-4bc2-9FB2-7A221E55ED1A","image":"","image_id":"","image_name":"","source_platform":0,"team_id":"","type":"canvas_color"},{"album_image":"","blur":0.0,"color":"","id":"2CAD86F5-38AF-4260-8CE0-586DA9E3451A","image":"","image_id":"","image_name":"","source_platform":0,"team_id":"","type":"canvas_color"},{"album_image":"","blur":0.0,"color":"","id":"6F1ED6C5-B09B-437f-B25D-E6DD64D08A6D","image":"","image_id":"","image_name":"","source_platform":0,"team_id":"","type":"canvas_color"},{"album_image":"","blur":0.0,"color":"","id":"E1B8C6E4-FBCD-4d39-B3AC-AD38411F4843","image":"","image_id":"","image_name":"","source_platform":0,"team_id":"","type":"canvas_color"},{"album_image":"","blur":0.0,"color":"","id":"6A6CFAED-B4BE-473a-B0DB-37A3C8A88FC6","image":"","image_id":"","image_name":"","source_platform":0,"team_id":"","type":"canvas_color"},{"album_image":"","blur":0.0,"color":"","id":"902DE7FB-86E1-4765-9A8B-587FF327B858","image":"","image_id":"","image_name":"","source_platform":0,"team_id":"","type":"canvas_color"},{"album_image":"","blur":0.0,"color":"","id":"F535C214-5E3A-4b87-AC33-29F5C2D0A910","image":"","image_id":"","image_name":"","source_platform":0,"team_id":"","type":"canvas_color"},{"album_image":"","blur":0.0,"color":"","id":"A3A69114-98B2-4d1e-BC4C-D52614F237B7","image":"","image_id":"","image_name":"","source_platform":0,"team_id":"","type":"canvas_color"},{"album_image":"","blur":0.0,"color":"","id":"725FCEC2-6C48-4824-8657-A3FE2DAC3527","image":"","image_id":"","image_name":"","source_platform":0,"team_id":"","type":"canvas_color"},{"album_image":"","blur":0.0,"color":"","id":"A553CB3B-67C5-45b2-8727-83AE9FD47784","image":"","image_id":"","image_name":"","source_platform":0,"team_id":"","type":"canvas_color"},{"album_image":"","blur":0.0,"color":"","id":"C864C597-0CA5-4a98-B129-E59C301D3BB1","image":"","image_id":"","image_name":"","source_platform":0,"team_id":"","type":"canvas_color"},{"album_image":"","blur":0.0,"color":"","id":"3DD287FB-6128-4af4-BA0F-824B632AE8F6","image":"","image_id":"","image_name":"","source_platform":0,"team_id":"","type":"canvas_color"},{"album_image":"","blur":0.0,"color":"","id":"F34AF824-2D89-477e-BA34-2E7A82906F19","image":"","image_id":"","image_name":"","source_platform":0,"team_id":"","type":"canvas_color"},{"album_image":"","blur":0.0,"color":"","id":"FD953713-6EE5-4d85-A82E-44210382957D","image":"","image_id":"","image_name":"","source_platform":0,"team_id":"","type":"canvas_color"},{"album_image":"","blur":0.0,"color":"","id":"003EB9C0-A2A6-41dc-BA62-66256AAE1274","image":"","image_id":"","image_name":"","source_platform":0,"team_id":"","type":"canvas_color"},{"album_image":"","blur":0.0,"color":"","id":"6F6D93D4-AF54-4937-BCCF-D8BAC01625CD","image":"","image_id":"","image_name":"","source_platform":0,"team_id":"","type":"canvas_color"},{"album_image":"","blur":0.0,"color":"","id":"3D4035E4-37A9-460c-A3AB-943C18823DDE","image":"","image_id":"","image_name":"","source_platform":0,"team_id":"","type":"canvas_color"},{"album_image":"","blur":0.0,"color":"","id":"552DE9B3-0013-4418-8292-3C478B2F344F","image":"","image_id":"","image_name":"","source_platform":0,"team_id":"","type":"canvas_color"},{"album_image":"","blur":0.0,"color":"","id":"9399BDEC-C9C2-4cb6-8A34-8ED61A23D7AE","image":"","image_id":"","image_name":"","source_platform":0,"team_id":"","type":"canvas_color"},{"album_image":"","blur":0.0,"color":"","id":"EED513D0-8894-45ac-BE3E-97E6FFB80BEF","image":"","image_id":"","image_name":"","source_platform":0,"team_id":"","type":"canvas_color"},{"album_image":"","blur":0.0,"color":"","id":"90A7A97A-A43A-4b6c-B9FF-2FD1D8C840CA","image":"","image_id":"","image_name":"","source_platform":0,"team_id":"","type":"canvas_color"},{"album_image":"","blur":0.0,"color":"","id":"D8E89CF3-B61C-4e86-90D5-D07CF3129EC5","image":"","image_id":"","image_name":"","source_platform":0,"team_id":"","type":"canvas_color"},{"album_image":"","blur":0.0,"color":"","id":"F4586384-EB44-44f7-9FF8-0B3C9BA93147","image":"","image_id":"","image_name":"","source_platform":0,"team_id":"","type":"canvas_color"},{"album_image":"","blur":0.0,"color":"","id":"E39E0F29-0B03-4931-8F0F-5DFEFF7A657D","image":"","image_id":"","image_name":"","source_platform":0,"team_id":"","type":"canvas_color"},{"album_image":"","blur":0.0,"color":"","id":"4229A28C-C51B-4143-B77F-A20754AC71C9","image":"","image_id":"","image_name":"","source_platform":0,"team_id":"","type":"canvas_color"},{"album_image":"","blur":0.0,"color":"","id":"F41F4FA6-B6B7-431b-8742-1806A1449BCC","image":"","image_id":"","image_name":"","source_platform":0,"team_id":"","type":"canvas_color"},{"album_image":"","blur":0.0,"color":"","id":"DCA37905-EF68-4b63-827B-FEA505387AC8","image":"","image_id":"","image_name":"","source_platform":0,"team_id":"","type":"canvas_color"},{"album_image":"","blur":0.0,"color":"","id":"62BACE56-3404-4261-A091-15352DB374CE","image":"","image_id":"","image_name":"","source_platform":0,"team_id":"","type":"canvas_color"},{"album_image":"","blur":0.0,"color":"","id":"D823FE9D-5EAC-495b-A556-72E229814545","image":"","image_id":"","image_name":"","source_platform":0,"team_id":"","type":"canvas_color"},{"album_image":"","blur":0.0,"color":"","id":"35063640-8255-4c22-94DC-DD7C10634398","image":"","image_id":"","image_name":"","source_platform":0,"team_id":"","type":"canvas_color"},{"album_image":"","blur":0.0,"color":"","id":"FFCD9D64-B656-4dea-8CA0-912FC48B7488","image":"","image_id":"","image_name":"","source_platform":0,"team_id":"","type":"canvas_color"},{"album_image":"","blur":0.0,"color":"","id":"AD7FA197-D9FA-4154-93CC-C112DFA79246","image":"","image_id":"","image_name":"","source_platform":0,"team_id":"","type":"canvas_color"},{"album_image":"","blur":0.0,"color":"","id":"34742651-BE9D-4edb-A872-D82589A4CF5F","image":"","image_id":"","image_name":"","source_platform":0,"team_id":"","type":"canvas_color"},{"album_image":"","blur":0.0,"color":"","id":"23C6CA69-8217-4a52-ACF9-024558AC18F3","image":"","image_id":"","image_name":"","source_platform":0,"team_id":"","type":"canvas_color"},{"album_image":"","blur":0.0,"color":"","id":"708A31D8-6EF4-403c-8CE7-6254F948108F","image":"","image_id":"","image_name":"","source_platform":0,"team_id":"","type":"canvas_color"},{"album_image":"","blur":0.0,"color":"","id":"DEAD7680-FDCA-4b0c-B263-3B471EAD1095","image":"","image_id":"","image_name":"","source_platform":0,"team_id":"","type":"canvas_color"},{"album_image":"","blur":0.0,"color":"","id":"61B3E85B-D72D-4558-B9B9-B57BD141D386","image":"","image_id":"","image_name":"","source_platform":0,"team_id":"","type":"canvas_color"}],"chromas":[],"color_curves":[],"common_mask":[],"digital_humans":[],"drafts":[],"effects":[],"flowers":[],"green_screens":[],"handwrites":[],"hsl":[],"images":[],"log_color_wheels":[],"loudnesses":[],"manual_beautys":[],"manual_deformations":[],"material_animations":[],"material_colors":[],"multi_language_refs":[],"placeholder_infos":[{"error_path":"","error_text":"","id":"782008F5-A4FD-457a-ACB0-14FF19034A84","meta_type":"none","res_path":"","res_text":"","type":"placeholder_info"},{"error_path":"","error_text":"","id":"17998859-934E-43b4-AF91-F4DACEB4E2CA","meta_type":"none","res_path":"","res_text":"","type":"placeholder_info"},{"error_path":"","error_text":"","id":"BA40CDEA-E0A8-41e0-901A-C6DEE33AF239","meta_type":"none","res_path":"","res_text":"","type":"placeholder_info"},{"error_path":"","error_text":"","id":"79EF83BB-7EED-40ab-8D78-C1F3B51AE126","meta_type":"none","res_path":"","res_text":"","type":"placeholder_info"},{"error_path":"","error_text":"","id":"8ABA114B-676B-4ec6-9E1F-0FEEB8A3F5F7","meta_type":"none","res_path":"","res_text":"","type":"placeholder_info"},{"error_path":"","error_text":"","id":"20513C45-444D-418d-AB07-558BB8F53F63","meta_type":"none","res_path":"","res_text":"","type":"placeholder_info"},{"error_path":"","error_text":"","id":"3BC82794-912C-4362-927D-18CF11DEAA12","meta_type":"none","res_path":"","res_text":"","type":"placeholder_info"},{"error_path":"","error_text":"","id":"78A8B515-6EF8-423a-A3DA-995E92DB5763","meta_type":"none","res_path":"","res_text":"","type":"placeholder_info"},{"error_path":"","error_text":"","id":"760E8F57-6B62-4d37-B717-261FE082CBDB","meta_type":"none","res_path":"","res_text":"","type":"placeholder_info"},{"error_path":"","error_text":"","id":"880493CB-24F0-49a7-9724-FA6AFD8425C6","meta_type":"none","res_path":"","res_text":"","type":"placeholder_info"},{"error_path":"","error_text":"","id":"1936D224-AB0A-43fa-AFFA-5F88CB2A1830","meta_type":"none","res_path":"","res_text":"","type":"placeholder_info"},{"error_path":"","error_text":"","id":"B8C99C71-DBE2-48a6-B330-4C6786B6B3E3","meta_type":"none","res_path":"","res_text":"","type":"placeholder_info"},{"error_path":"","error_text":"","id":"43715515-6AF3-4ca9-AB0C-101B53E63FCC","meta_type":"none","res_path":"","res_text":"","type":"placeholder_info"},{"error_path":"","error_text":"","id":"BF712C78-1F9C-44a1-85D8-47722B645F99","meta_type":"none","res_path":"","res_text":"","type":"placeholder_info"},{"error_path":"","error_text":"","id":"D418D76B-8E9A-4d67-9AD8-D6355D1F469D","meta_type":"none","res_path":"","res_text":"","type":"placeholder_info"},{"error_path":"","error_text":"","id":"A121F672-C159-4e55-9C6D-DDC66AC5CB1F","meta_type":"none","res_path":"","res_text":"","type":"placeholder_info"},{"error_path":"","error_text":"","id":"48248FE0-C3D3-411e-B80F-4E24098D3AC6","meta_type":"none","res_path":"","res_text":"","type":"placeholder_info"},{"error_path":"","error_text":"","id":"02463437-CBE2-4036-BA40-CED2B7524909","meta_type":"none","res_path":"","res_text":"","type":"placeholder_info"},{"error_path":"","error_text":"","id":"8E3D5949-81BD-4ecf-9073-37606A0CA09E","meta_type":"none","res_path":"","res_text":"","type":"placeholder_info"},{"error_path":"","error_text":"","id":"FCD57C15-87F8-4419-A5BF-90370D25E761","meta_type":"none","res_path":"","res_text":"","type":"placeholder_info"},{"error_path":"","error_text":"","id":"31128258-0BC1-4aa8-8F97-9D9718BC238C","meta_type":"none","res_path":"","res_text":"","type":"placeholder_info"},{"error_path":"","error_text":"","id":"461E1F47-83C7-40ee-8296-3B0209B510B9","meta_type":"none","res_path":"","res_text":"","type":"placeholder_info"},{"error_path":"","error_text":"","id":"FB106B79-AB41-4420-AB44-5C2CE1ADEB0E","meta_type":"none","res_path":"","res_text":"","type":"placeholder_info"},{"error_path":"","error_text":"","id":"A2317C46-3F05-448d-98B4-6C04AC410395","meta_type":"none","res_path":"","res_text":"","type":"placeholder_info"},{"error_path":"","error_text":"","id":"A9208F4D-2A7F-4496-829D-7349C00BEFF8","meta_type":"none","res_path":"","res_text":"","type":"placeholder_info"},{"error_path":"","error_text":"","id":"0D3B4AB8-DDCE-4d8e-B056-46BDE7ECAC57","meta_type":"none","res_path":"","res_text":"","type":"placeholder_info"},{"error_path":"","error_text":"","id":"A1BB301E-A347-4b87-B14F-D0674DA674D5","meta_type":"none","res_path":"","res_text":"","type":"placeholder_info"},{"error_path":"","error_text":"","id":"F95427B3-1263-41df-8369-4EC10E9938C9","meta_type":"none","res_path":"","res_text":"","type":"placeholder_info"},{"error_path":"","error_text":"","id":"3FDCA5E5-D940-4eb2-BB47-30B83247AEBD","meta_type":"none","res_path":"","res_text":"","type":"placeholder_info"},{"error_path":"","error_text":"","id":"11BC0020-B32A-4018-9644-6D75E25AD719","meta_type":"none","res_path":"","res_text":"","type":"placeholder_info"},{"error_path":"","error_text":"","id":"E9601D4F-956D-4449-A56D-355DFA2A9377","meta_type":"none","res_path":"","res_text":"","type":"placeholder_info"},{"error_path":"","error_text":"","id":"3B4F9CBB-7A82-4efe-920D-5D131E5B1631","meta_type":"none","res_path":"","res_text":"","type":"placeholder_info"},{"error_path":"","error_text":"","id":"8041F5B2-F8A1-4b8e-9692-06ACED295B10","meta_type":"none","res_path":"","res_text":"","type":"placeholder_info"},{"error_path":"","error_text":"","id":"3525611B-6109-4f3c-8EAE-21900BA4FFFF","meta_type":"none","res_path":"","res_text":"","type":"placeholder_info"},{"error_path":"","error_text":"","id":"4EEC1438-C0F6-4a36-B2A6-B75EBE3301AB","meta_type":"none","res_path":"","res_text":"","type":"placeholder_info"},{"error_path":"","error_text":"","id":"6687D875-DE78-4c01-AC39-9BF4B40D4256","meta_type":"none","res_path":"","res_text":"","type":"placeholder_info"},{"error_path":"","error_text":"","id":"5335FE46-48E1-4451-98EE-D2BAD56C1B6C","meta_type":"none","res_path":"","res_text":"","type":"placeholder_info"}],"placeholders":[],"plugin_effects":[],"primary_color_wheels":[],"realtime_denoises":[],"shapes":[],"smart_crops":[],"smart_relights":[],"sound_channel_mappings":[{"audio_channel_mapping":0,"id":"73EF8BA4-3469-48ab-B277-B1A96D5A45C1","is_config_open":false,"type":"none"},{"audio_channel_mapping":0,"id":"DB22560B-879E-4814-8BFE-6FFD186D0763","is_config_open":false,"type":"none"},{"audio_channel_mapping":0,"id":"51496DBF-36FC-45bd-972C-76D862E3F969","is_config_open":false,"type":"none"},{"audio_channel_mapping":0,"id":"2170547F-1E31-4a84-B261-6095B4CD6006","is_config_open":false,"type":"none"},{"audio_channel_mapping":0,"id":"26C003ED-468D-4292-B2F9-88C933230B20","is_config_open":false,"type":"none"},{"audio_channel_mapping":0,"id":"0C7930AA-A029-473f-A5CE-1348A6CA6C81","is_config_open":false,"type":"none"},{"audio_channel_mapping":0,"id":"B246E668-DE2A-426c-AF5D-A27145A36E5C","is_config_open":false,"type":"none"},{"audio_channel_mapping":0,"id":"A717134F-C11A-408c-A331-26AF674F971C","is_config_open":false,"type":"none"},{"audio_channel_mapping":0,"id":"5F2091D1-9F38-4f50-84A6-CC77509D1758","is_config_open":false,"type":"none"},{"audio_channel_mapping":0,"id":"061052E6-A7F6-4a50-852A-89C4F596315A","is_config_open":false,"type":"none"},{"audio_channel_mapping":0,"id":"D87E5750-CC09-41fc-9A52-594E91CE1426","is_config_open":false,"type":"none"},{"audio_channel_mapping":0,"id":"496D6198-3318-4b1a-8EFC-458E84EBD107","is_config_open":false,"type":"none"},{"audio_channel_mapping":0,"id":"DF91E5D9-736C-42e4-B35E-1510E5161944","is_config_open":false,"type":"none"},{"audio_channel_mapping":0,"id":"87ECEF8D-3E0A-442d-8A39-C2F8099589EA","is_config_open":false,"type":"none"},{"audio_channel_mapping":0,"id":"A8885DDF-1804-4199-A7AB-2EF77377D05F","is_config_open":false,"type":"none"},{"audio_channel_mapping":0,"id":"2239A6E3-8E99-465e-9949-5B13F83A730D","is_config_open":false,"type":"none"},{"audio_channel_mapping":0,"id":"F7F1FC9B-3F13-4187-B599-A77141DFC499","is_config_open":false,"type":"none"},{"audio_channel_mapping":0,"id":"DE428C3A-C0AF-4ff6-89A4-3F50BFDEE0FB","is_config_open":false,"type":"none"},{"audio_channel_mapping":0,"id":"78E80998-B7C8-41a0-8735-7460DE298D4F","is_config_open":false,"type":"none"},{"audio_channel_mapping":0,"id":"8944BF25-B659-4866-8B7A-1E3BAF0579CC","is_config_open":false,"type":"none"},{"audio_channel_mapping":0,"id":"F1AF8730-D886-4894-862F-E5409B889543","is_config_open":false,"type":"none"},{"audio_channel_mapping":0,"id":"8B86B4FC-67AB-48a0-8489-1D661918A93E","is_config_open":false,"type":"none"},{"audio_channel_mapping":0,"id":"A233AAEF-954B-428c-81AF-51F05CFF3593","is_config_open":false,"type":"none"},{"audio_channel_mapping":0,"id":"02B984D0-A25E-4d6a-A396-1B4B5197CB99","is_config_open":false,"type":"none"},{"audio_channel_mapping":0,"id":"26D533BF-BBC3-469c-8C55-5C8DD7B64F0A","is_config_open":false,"type":"none"},{"audio_channel_mapping":0,"id":"2D262DB9-E8DD-4795-B08E-A5196E1DC505","is_config_open":false,"type":"none"},{"audio_channel_mapping":0,"id":"B5012619-7596-4574-99BB-61261A0F8556","is_config_open":false,"type":"none"},{"audio_channel_mapping":0,"id":"6DAC2093-A472-453f-AF7D-ADF4B4C720EA","is_config_open":false,"type":"none"},{"audio_channel_mapping":0,"id":"CA8EACB1-9F07-43f2-944E-99E136ECABAE","is_config_open":false,"type":"none"},{"audio_channel_mapping":0,"id":"C6EDDAD6-4B14-46c9-A250-1287A2713033","is_config_open":false,"type":"none"},{"audio_channel_mapping":0,"id":"B7A904B6-66CA-483a-AA17-9CF3B1F044F7","is_config_open":false,"type":"none"},{"audio_channel_mapping":0,"id":"2EC1FB7E-291D-4e66-8D92-0BBBC2FD6C4D","is_config_open":false,"type":"none"},{"audio_channel_mapping":0,"id":"5E6893C7-8D9F-4f5a-B547-B9AD6E531668","is_config_open":false,"type":"none"},{"audio_channel_mapping":0,"id":"7AF2BDE0-7035-471e-88FF-46A2CE0DFD09","is_config_open":false,"type":"none"},{"audio_channel_mapping":0,"id":"8A108161-9623-43d5-A8DC-6D3261E56BE2","is_config_open":false,"type":"none"},{"audio_channel_mapping":0,"id":"7AD8797F-7890-45c9-ABF6-0681ED3CDED7","is_config_open":false,"type":"none"},{"audio_channel_mapping":0,"id":"8B7AEE46-58D9-4b67-AA2F-15CC57882832","is_config_open":false,"type":"none"}],"speeds":[{"curve_speed":null,"id":"6C41644F-B7C7-41df-A7A4-3D6EA96B9070","mode":0,"speed":1.0,"type":"speed"},{"curve_speed":null,"id":"141FB495-91FA-4a12-96B1-78133CF6E8AD","mode":0,"speed":1.0,"type":"speed"},{"curve_speed":null,"id":"A98C3406-3E4A-4b49-A6FF-386CD7E1C094","mode":0,"speed":1.0,"type":"speed"},{"curve_speed":null,"id":"541913AD-AB73-4a7c-9C29-D265C885AF92","mode":0,"speed":1.0,"type":"speed"},{"curve_speed":null,"id":"4C15DB8D-0F41-4eaf-AD11-899C3D586D45","mode":0,"speed":1.0,"type":"speed"},{"curve_speed":null,"id":"C1E9C294-1856-460a-A746-15CB9D75B013","mode":0,"speed":1.0,"type":"speed"},{"curve_speed":null,"id":"135C06DD-A1D5-47ee-B749-0EBA5335A9D5","mode":0,"speed":1.0,"type":"speed"},{"curve_speed":null,"id":"14443FBB-B478-4ab9-AE68-DFEA5BADDB99","mode":0,"speed":1.0,"type":"speed"},{"curve_speed":null,"id":"DA84ED66-D051-4b37-8EBE-775A3F8D21D0","mode":0,"speed":1.0,"type":"speed"},{"curve_speed":null,"id":"C0E07BBC-FAB1-44cd-B98F-EB27F7DFB11C","mode":0,"speed":1.0,"type":"speed"},{"curve_speed":null,"id":"9C1E17EA-A583-4917-8160-E1141B2147E0","mode":0,"speed":1.0,"type":"speed"},{"curve_speed":null,"id":"70B5C221-F949-4808-A7AF-1F80E2D662E5","mode":0,"speed":1.0,"type":"speed"},{"curve_speed":null,"id":"2C6E2062-A4C8-4121-8E12-92BEDB05EE48","mode":0,"speed":1.0,"type":"speed"},{"curve_speed":null,"id":"4951F306-0B2F-4577-92E7-561D7D3E9F16","mode":0,"speed":1.0,"type":"speed"},{"curve_speed":null,"id":"E5C76681-1FF3-4899-97AC-26D911295DBF","mode":0,"speed":1.0,"type":"speed"},{"curve_speed":null,"id":"E3803DA5-1693-461d-A86F-76633D8C8DD5","mode":0,"speed":1.0,"type":"speed"},{"curve_speed":null,"id":"3A99C5B1-6C95-4c74-A774-51A72CBF30A9","mode":0,"speed":1.0,"type":"speed"},{"curve_speed":null,"id":"6D91102B-E024-4a59-BA77-1160B9BAC1E8","mode":0,"speed":1.0,"type":"speed"},{"curve_speed":null,"id":"D485B8D8-473D-4c84-A194-0F6289A7DE63","mode":0,"speed":1.0,"type":"speed"},{"curve_speed":null,"id":"6CE5B940-B60D-42f0-95AC-EC841E82502E","mode":0,"speed":1.0,"type":"speed"},{"curve_speed":null,"id":"9C5D2DE9-3FF2-4437-BC91-7676F847F91C","mode":0,"speed":1.0,"type":"speed"},{"curve_speed":null,"id":"72092CC8-D3C8-463e-9711-2B98378954A7","mode":0,"speed":1.0,"type":"speed"},{"curve_speed":null,"id":"B39F0140-F27F-42c6-8375-17441EEBA0B3","mode":0,"speed":1.0,"type":"speed"},{"curve_speed":null,"id":"7A24514D-D5D9-439f-AEA7-9D7B033223DE","mode":0,"speed":1.0,"type":"speed"},{"curve_speed":null,"id":"802BCCFE-7928-4b47-8264-77E2547B0E10","mode":0,"speed":1.0,"type":"speed"},{"curve_speed":null,"id":"5915C109-B958-4276-B6FC-24C5413088BD","mode":0,"speed":1.0,"type":"speed"},{"curve_speed":null,"id":"308FBFD1-C10A-4c67-9ADF-7AB08EDDDC9B","mode":0,"speed":1.0,"type":"speed"},{"curve_speed":null,"id":"009F34AB-E0C7-48dc-BBD7-B4A58F0F3E9F","mode":0,"speed":1.0,"type":"speed"},{"curve_speed":null,"id":"4B6C07D7-658D-4dbe-BB48-2A709A90D4D5","mode":0,"speed":1.0,"type":"speed"},{"curve_speed":null,"id":"484F2D95-0684-449b-B734-1BC2F29DFB1E","mode":0,"speed":1.0,"type":"speed"},{"curve_speed":null,"id":"55C35A3B-FED6-4406-A556-C76952E47C7C","mode":0,"speed":1.0,"type":"speed"},{"curve_speed":null,"id":"208E01B0-F5B9-4f37-8191-E244000F22B7","mode":0,"speed":1.0,"type":"speed"},{"curve_speed":null,"id":"B1D6451A-A597-4d73-A104-D2A9393FD809","mode":0,"speed":1.0,"type":"speed"},{"curve_speed":null,"id":"E6908A06-DAA7-48f7-A3D0-41ECEF2F9AF0","mode":0,"speed":1.0,"type":"speed"},{"curve_speed":null,"id":"12835B60-2596-4d3c-8968-3AF9A032EFD4","mode":0,"speed":1.0,"type":"speed"},{"curve_speed":null,"id":"CB5DCEFE-C8CC-48b6-9645-2A0678CC31EE","mode":0,"speed":1.0,"type":"speed"},{"curve_speed":null,"id":"D67868B4-DDCA-4fb1-9085-0FF40803877C","mode":0,"speed":1.0,"type":"speed"}],"stickers":[],"tail_leaders":[],"text_templates":[],"texts":[],"time_marks":[],"transitions":[],"video_effects":[],"video_trackings":[],"videos":[{"aigc_history_id":"","aigc_item_id":"","aigc_type":"none","audio_fade":null,"beauty_body_preset_id":"","beauty_face_auto_preset":{"name":"","preset_id":"","rate_map":""},"beauty_face_auto_preset_infos":[],"beauty_face_preset_infos":[],"cartoon_path":"","category_id":"","category_name":"","check_flag":188807167,"crop":{"lower_left_x":0.0,"lower_left_y":1.0,"lower_right_x":1.0,"lower_right_y":1.0,"upper_left_x":0.0,"upper_left_y":0.0,"upper_right_x":1.0,"upper_right_y":0.0},"crop_ratio":"free","crop_scale":1.0,"duration":60000000,"extra_type_option":8,"formula_id":"","freeze":null,"has_audio":true,"has_sound_separated":false,"height":1920,"id":"34AF00C0-862A-4c21-9FDF-7EDD11974769","intensifies_audio_path":"","intensifies_path":"","is_ai_generate_content":false,"is_copyright":false,"is_text_edit_overdub":false,"is_unified_beauty_mode":false,"live_photo_cover_path":"","live_photo_timestamp":-1,"local_id":"","local_material_from":"","local_material_id":"","material_id":"","material_name":"1_Woman’s Unexplained Shivers #fyp #movie #foryoupage #comedia.mp4","material_url":"","matting":{"custom_matting_id":"","enable_matting_stroke":false,"expansion":0,"feather":0,"flag":0,"has_use_quick_brush":false,"has_use_quick_eraser":false,"interactiveTime":[],"path":"","reverse":false,"strokes":[]},"media_path":"","multi_camera_info":null,"object_locked":null,"origin_material_id":"","path":"F:/Tiktok_Video/250520/1_Woman’s Unexplained Shivers #fyp #movie #foryoupage #comedia.mp4","picture_from":"none","picture_set_category_id":"","picture_set_category_name":"","request_id":"","reverse_intensifies_path":"","reverse_path":"","smart_match_info":null,"smart_motion":null,"source":0,"source_platform":0,"stable":{"matrix_path":"","stable_level":0,"time_range":{"duration":0,"start":0}},"team_id":"","type":"video","video_algorithm":{"ai_background_configs":[],"ai_expression_driven":null,"ai_motion_driven":null,"aigc_generate":null,"algorithms":[],"complement_frame_config":null,"deflicker":null,"gameplay_configs":[],"motion_blur_config":null,"mouth_shape_driver":null,"noise_reduction":null,"path":"","quality_enhance":null,"smart_complement_frame":null,"super_resolution":null,"time_range":{"duration":10066666,"start":0}},"width":1080},{"aigc_history_id":"","aigc_item_id":"","aigc_type":"none","audio_fade":null,"beauty_body_preset_id":"","beauty_face_auto_preset":{"name":"","preset_id":"","rate_map":""},"beauty_face_auto_preset_infos":[],"beauty_face_preset_infos":[],"cartoon_path":"","category_id":"","category_name":"","check_flag":188807167,"crop":{"lower_left_x":0.0,"lower_left_y":1.0,"lower_right_x":1.0,"lower_right_y":1.0,"upper_left_x":0.0,"upper_left_y":0.0,"upper_right_x":1.0,"upper_right_y":0.0},"crop_ratio":"free","crop_scale":1.0,"duration":60000000,"extra_type_option":8,"formula_id":"","freeze":null,"has_audio":true,"has_sound_separated":false,"height":1920,"id":"56B6082C-E68F-45eb-AEA7-0FC3672CF0BD","intensifies_audio_path":"","intensifies_path":"","is_ai_generate_content":false,"is_copyright":false,"is_text_edit_overdub":false,"is_unified_beauty_mode":false,"live_photo_cover_path":"","live_photo_timestamp":-1,"local_id":"","local_material_from":"","local_material_id":"","material_id":"","material_name":"1_Woman’s Unexplained Shivers #fyp #movie #foryoupage #comedia.mp4","material_url":"","matting":{"custom_matting_id":"","enable_matting_stroke":false,"expansion":0,"feather":0,"flag":0,"has_use_quick_brush":false,"has_use_quick_eraser":false,"interactiveTime":[],"path":"","reverse":false,"strokes":[]},"media_path":"","multi_camera_info":null,"object_locked":null,"origin_material_id":"","path":"F:/Tiktok_Video/250520/1_Woman’s Unexplained Shivers #fyp #movie #foryoupage #comedia.mp4","picture_from":"none","picture_set_category_id":"","picture_set_category_name":"","request_id":"","reverse_intensifies_path":"","reverse_path":"","smart_match_info":null,"smart_motion":null,"source":0,"source_platform":0,"stable":{"matrix_path":"","stable_level":0,"time_range":{"duration":0,"start":0}},"team_id":"","type":"video","video_algorithm":{"ai_background_configs":[],"ai_expression_driven":null,"ai_motion_driven":null,"aigc_generate":null,"algorithms":[],"complement_frame_config":null,"deflicker":null,"gameplay_configs":[],"motion_blur_config":null,"mouth_shape_driver":null,"noise_reduction":null,"path":"","quality_enhance":null,"smart_complement_frame":null,"super_resolution":null,"time_range":{"duration":7166667,"start":4066666}},"width":1080},{"aigc_history_id":"","aigc_item_id":"","aigc_type":"none","audio_fade":null,"beauty_body_preset_id":"","beauty_face_auto_preset":{"name":"","preset_id":"","rate_map":""},"beauty_face_auto_preset_infos":[],"beauty_face_preset_infos":[],"cartoon_path":"","category_id":"","category_name":"","check_flag":188807167,"crop":{"lower_left_x":0.0,"lower_left_y":1.0,"lower_right_x":1.0,"lower_right_y":1.0,"upper_left_x":0.0,"upper_left_y":0.0,"upper_right_x":1.0,"upper_right_y":0.0},"crop_ratio":"free","crop_scale":1.0,"duration":60000000,"extra_type_option":8,"formula_id":"","freeze":null,"has_audio":true,"has_sound_separated":false,"height":1920,"id":"14562917-4B38-4e25-98A4-A81DF20CE7E9","intensifies_audio_path":"","intensifies_path":"","is_ai_generate_content":false,"is_copyright":false,"is_text_edit_overdub":false,"is_unified_beauty_mode":false,"live_photo_cover_path":"","live_photo_timestamp":-1,"local_id":"","local_material_from":"","local_material_id":"","material_id":"","material_name":"1_Woman’s Unexplained Shivers #fyp #movie #foryoupage #comedia.mp4","material_url":"","matting":{"custom_matting_id":"","enable_matting_stroke":false,"expansion":0,"feather":0,"flag":0,"has_use_quick_brush":false,"has_use_quick_eraser":false,"interactiveTime":[],"path":"","reverse":false,"strokes":[]},"media_path":"","multi_camera_info":null,"object_locked":null,"origin_material_id":"","path":"F:/Tiktok_Video/250520/1_Woman’s Unexplained Shivers #fyp #movie #foryoupage #comedia.mp4","picture_from":"none","picture_set_category_id":"","picture_set_category_name":"","request_id":"","reverse_intensifies_path":"","reverse_path":"","smart_match_info":null,"smart_motion":null,"source":0,"source_platform":0,"stable":{"matrix_path":"","stable_level":0,"time_range":{"duration":0,"start":0}},"team_id":"","type":"video","video_algorithm":{"ai_background_configs":[],"ai_expression_driven":null,"ai_motion_driven":null,"aigc_generate":null,"algorithms":[],"complement_frame_config":null,"deflicker":null,"gameplay_configs":[],"motion_blur_config":null,"mouth_shape_driver":null,"noise_reduction":null,"path":"","quality_enhance":null,"smart_complement_frame":null,"super_resolution":null,"time_range":{"duration":7633333,"start":5233333}},"width":1080},{"aigc_history_id":"","aigc_item_id":"","aigc_type":"none","audio_fade":null,"beauty_body_preset_id":"","beauty_face_auto_preset":{"name":"","preset_id":"","rate_map":""},"beauty_face_auto_preset_infos":[],"beauty_face_preset_infos":[],"cartoon_path":"","category_id":"","category_name":"","check_flag":188807167,"crop":{"lower_left_x":0.0,"lower_left_y":1.0,"lower_right_x":1.0,"lower_right_y":1.0,"upper_left_x":0.0,"upper_left_y":0.0,"upper_right_x":1.0,"upper_right_y":0.0},"crop_ratio":"free","crop_scale":1.0,"duration":60000000,"extra_type_option":8,"formula_id":"","freeze":null,"has_audio":true,"has_sound_separated":false,"height":1920,"id":"80ECEA1B-59D0-42a9-86D9-678814E10935","intensifies_audio_path":"","intensifies_path":"","is_ai_generate_content":false,"is_copyright":false,"is_text_edit_overdub":false,"is_unified_beauty_mode":false,"live_photo_cover_path":"","live_photo_timestamp":-1,"local_id":"","local_material_from":"","local_material_id":"","material_id":"","material_name":"1_Woman’s Unexplained Shivers #fyp #movie #foryoupage #comedia.mp4","material_url":"","matting":{"custom_matting_id":"","enable_matting_stroke":false,"expansion":0,"feather":0,"flag":0,"has_use_quick_brush":false,"has_use_quick_eraser":false,"interactiveTime":[],"path":"","reverse":false,"strokes":[]},"media_path":"","multi_camera_info":null,"object_locked":null,"origin_material_id":"","path":"F:/Tiktok_Video/250520/1_Woman’s Unexplained Shivers #fyp #movie #foryoupage #comedia.mp4","picture_from":"none","picture_set_category_id":"","picture_set_category_name":"","request_id":"","reverse_intensifies_path":"","reverse_path":"","smart_match_info":null,"smart_motion":null,"source":0,"source_platform":0,"stable":{"matrix_path":"","stable_level":0,"time_range":{"duration":0,"start":0}},"team_id":"","type":"video","video_algorithm":{"ai_background_configs":[],"ai_expression_driven":null,"ai_motion_driven":null,"aigc_generate":null,"algorithms":[],"complement_frame_config":null,"deflicker":null,"gameplay_configs":[],"motion_blur_config":null,"mouth_shape_driver":null,"noise_reduction":null,"path":"","quality_enhance":null,"smart_complement_frame":null,"super_resolution":null,"time_range":{"duration":6900000,"start":6866666}},"width":1080},{"aigc_history_id":"","aigc_item_id":"","aigc_type":"none","audio_fade":null,"beauty_body_preset_id":"","beauty_face_auto_preset":{"name":"","preset_id":"","rate_map":""},"beauty_face_auto_preset_infos":[],"beauty_face_preset_infos":[],"cartoon_path":"","category_id":"","category_name":"","check_flag":188807167,"crop":{"lower_left_x":0.0,"lower_left_y":1.0,"lower_right_x":1.0,"lower_right_y":1.0,"upper_left_x":0.0,"upper_left_y":0.0,"upper_right_x":1.0,"upper_right_y":0.0},"crop_ratio":"free","crop_scale":1.0,"duration":60000000,"extra_type_option":8,"formula_id":"","freeze":null,"has_audio":true,"has_sound_separated":false,"height":1920,"id":"F69836A4-EDD9-4501-BCAB-B97447692634","intensifies_audio_path":"","intensifies_path":"","is_ai_generate_content":false,"is_copyright":false,"is_text_edit_overdub":false,"is_unified_beauty_mode":false,"live_photo_cover_path":"","live_photo_timestamp":-1,"local_id":"","local_material_from":"","local_material_id":"","material_id":"","material_name":"1_Woman’s Unexplained Shivers #fyp #movie #foryoupage #comedia.mp4","material_url":"","matting":{"custom_matting_id":"","enable_matting_stroke":false,"expansion":0,"feather":0,"flag":0,"has_use_quick_brush":false,"has_use_quick_eraser":false,"interactiveTime":[],"path":"","reverse":false,"strokes":[]},"media_path":"","multi_camera_info":null,"object_locked":null,"origin_material_id":"","path":"F:/Tiktok_Video/250520/1_Woman’s Unexplained Shivers #fyp #movie #foryoupage #comedia.mp4","picture_from":"none","picture_set_category_id":"","picture_set_category_name":"","request_id":"","reverse_intensifies_path":"","reverse_path":"","smart_match_info":null,"smart_motion":null,"source":0,"source_platform":0,"stable":{"matrix_path":"","stable_level":0,"time_range":{"duration":0,"start":0}},"team_id":"","type":"video","video_algorithm":{"ai_background_configs":[],"ai_expression_driven":null,"ai_motion_driven":null,"aigc_generate":null,"algorithms":[],"complement_frame_config":null,"deflicker":null,"gameplay_configs":[],"motion_blur_config":null,"mouth_shape_driver":null,"noise_reduction":null,"path":"","quality_enhance":null,"smart_complement_frame":null,"super_resolution":null,"time_range":{"duration":6633334,"start":7766666}},"width":1080},{"aigc_history_id":"","aigc_item_id":"","aigc_type":"none","audio_fade":null,"beauty_body_preset_id":"","beauty_face_auto_preset":{"name":"","preset_id":"","rate_map":""},"beauty_face_auto_preset_infos":[],"beauty_face_preset_infos":[],"cartoon_path":"","category_id":"","category_name":"","check_flag":188807167,"crop":{"lower_left_x":0.0,"lower_left_y":1.0,"lower_right_x":1.0,"lower_right_y":1.0,"upper_left_x":0.0,"upper_left_y":0.0,"upper_right_x":1.0,"upper_right_y":0.0},"crop_ratio":"free","crop_scale":1.0,"duration":60000000,"extra_type_option":8,"formula_id":"","freeze":null,"has_audio":true,"has_sound_separated":false,"height":1920,"id":"8651D98B-CE63-4b5e-8058-D03643CFFBB6","intensifies_audio_path":"","intensifies_path":"","is_ai_generate_content":false,"is_copyright":false,"is_text_edit_overdub":false,"is_unified_beauty_mode":false,"live_photo_cover_path":"","live_photo_timestamp":-1,"local_id":"","local_material_from":"","local_material_id":"","material_id":"","material_name":"1_Woman’s Unexplained Shivers #fyp #movie #foryoupage #comedia.mp4","material_url":"","matting":{"custom_matting_id":"","enable_matting_stroke":false,"expansion":0,"feather":0,"flag":0,"has_use_quick_brush":false,"has_use_quick_eraser":false,"interactiveTime":[],"path":"","reverse":false,"strokes":[]},"media_path":"","multi_camera_info":null,"object_locked":null,"origin_material_id":"","path":"F:/Tiktok_Video/250520/1_Woman’s Unexplained Shivers #fyp #movie #foryoupage #comedia.mp4","picture_from":"none","picture_set_category_id":"","picture_set_category_name":"","request_id":"","reverse_intensifies_path":"","reverse_path":"","smart_match_info":null,"smart_motion":null,"source":0,"source_platform":0,"stable":{"matrix_path":"","stable_level":0,"time_range":{"duration":0,"start":0}},"team_id":"","type":"video","video_algorithm":{"ai_background_configs":[],"ai_expression_driven":null,"ai_motion_driven":null,"aigc_generate":null,"algorithms":[],"complement_frame_config":null,"deflicker":null,"gameplay_configs":[],"motion_blur_config":null,"mouth_shape_driver":null,"noise_reduction":null,"path":"","quality_enhance":null,"smart_complement_frame":null,"super_resolution":null,"time_range":{"duration":7666666,"start":8400000}},"width":1080},{"aigc_history_id":"","aigc_item_id":"","aigc_type":"none","audio_fade":null,"beauty_body_preset_id":"","beauty_face_auto_preset":{"name":"","preset_id":"","rate_map":""},"beauty_face_auto_preset_infos":[],"beauty_face_preset_infos":[],"cartoon_path":"","category_id":"","category_name":"","check_flag":188807167,"crop":{"lower_left_x":0.0,"lower_left_y":1.0,"lower_right_x":1.0,"lower_right_y":1.0,"upper_left_x":0.0,"upper_left_y":0.0,"upper_right_x":1.0,"upper_right_y":0.0},"crop_ratio":"free","crop_scale":1.0,"duration":60000000,"extra_type_option":8,"formula_id":"","freeze":null,"has_audio":true,"has_sound_separated":false,"height":1920,"id":"DD615005-D910-4bba-967E-AE6DBBCDB9DD","intensifies_audio_path":"","intensifies_path":"","is_ai_generate_content":false,"is_copyright":false,"is_text_edit_overdub":false,"is_unified_beauty_mode":false,"live_photo_cover_path":"","live_photo_timestamp":-1,"local_id":"","local_material_from":"","local_material_id":"","material_id":"","material_name":"1_Woman’s Unexplained Shivers #fyp #movie #foryoupage #comedia.mp4","material_url":"","matting":{"custom_matting_id":"","enable_matting_stroke":false,"expansion":0,"feather":0,"flag":0,"has_use_quick_brush":false,"has_use_quick_eraser":false,"interactiveTime":[],"path":"","reverse":false,"strokes":[]},"media_path":"","multi_camera_info":null,"object_locked":null,"origin_material_id":"","path":"F:/Tiktok_Video/250520/1_Woman’s Unexplained Shivers #fyp #movie #foryoupage #comedia.mp4","picture_from":"none","picture_set_category_id":"","picture_set_category_name":"","request_id":"","reverse_intensifies_path":"","reverse_path":"","smart_match_info":null,"smart_motion":null,"source":0,"source_platform":0,"stable":{"matrix_path":"","stable_level":0,"time_range":{"duration":0,"start":0}},"team_id":"","type":"video","video_algorithm":{"ai_background_configs":[],"ai_expression_driven":null,"ai_motion_driven":null,"aigc_generate":null,"algorithms":[],"complement_frame_config":null,"deflicker":null,"gameplay_configs":[],"motion_blur_config":null,"mouth_shape_driver":null,"noise_reduction":null,"path":"","quality_enhance":null,"smart_complement_frame":null,"super_resolution":null,"time_range":{"duration":7633334,"start":10066666}},"width":1080},{"aigc_history_id":"","aigc_item_id":"","aigc_type":"none","audio_fade":null,"beauty_body_preset_id":"","beauty_face_auto_preset":{"name":"","preset_id":"","rate_map":""},"beauty_face_auto_preset_infos":[],"beauty_face_preset_infos":[],"cartoon_path":"","category_id":"","category_name":"","check_flag":188807167,"crop":{"lower_left_x":0.0,"lower_left_y":1.0,"lower_right_x":1.0,"lower_right_y":1.0,"upper_left_x":0.0,"upper_left_y":0.0,"upper_right_x":1.0,"upper_right_y":0.0},"crop_ratio":"free","crop_scale":1.0,"duration":60000000,"extra_type_option":8,"formula_id":"","freeze":null,"has_audio":true,"has_sound_separated":false,"height":1920,"id":"AE91D705-191E-4b74-BB25-C0FDC63F27ED","intensifies_audio_path":"","intensifies_path":"","is_ai_generate_content":false,"is_copyright":false,"is_text_edit_overdub":false,"is_unified_beauty_mode":false,"live_photo_cover_path":"","live_photo_timestamp":-1,"local_id":"","local_material_from":"","local_material_id":"","material_id":"","material_name":"1_Woman’s Unexplained Shivers #fyp #movie #foryoupage #comedia.mp4","material_url":"","matting":{"custom_matting_id":"","enable_matting_stroke":false,"expansion":0,"feather":0,"flag":0,"has_use_quick_brush":false,"has_use_quick_eraser":false,"interactiveTime":[],"path":"","reverse":false,"strokes":[]},"media_path":"","multi_camera_info":null,"object_locked":null,"origin_material_id":"","path":"F:/Tiktok_Video/250520/1_Woman’s Unexplained Shivers #fyp #movie #foryoupage #comedia.mp4","picture_from":"none","picture_set_category_id":"","picture_set_category_name":"","request_id":"","reverse_intensifies_path":"","reverse_path":"","smart_match_info":null,"smart_motion":null,"source":0,"source_platform":0,"stable":{"matrix_path":"","stable_level":0,"time_range":{"duration":0,"start":0}},"team_id":"","type":"video","video_algorithm":{"ai_background_configs":[],"ai_expression_driven":null,"ai_motion_driven":null,"aigc_generate":null,"algorithms":[],"complement_frame_config":null,"deflicker":null,"gameplay_configs":[],"motion_blur_config":null,"mouth_shape_driver":null,"noise_reduction":null,"path":"","quality_enhance":null,"smart_complement_frame":null,"super_resolution":null,"time_range":{"duration":6966666,"start":11700000}},"width":1080},{"aigc_history_id":"","aigc_item_id":"","aigc_type":"none","audio_fade":null,"beauty_body_preset_id":"","beauty_face_auto_preset":{"name":"","preset_id":"","rate_map":""},"beauty_face_auto_preset_infos":[],"beauty_face_preset_infos":[],"cartoon_path":"","category_id":"","category_name":"","check_flag":188807167,"crop":{"lower_left_x":0.0,"lower_left_y":1.0,"lower_right_x":1.0,"lower_right_y":1.0,"upper_left_x":0.0,"upper_left_y":0.0,"upper_right_x":1.0,"upper_right_y":0.0},"crop_ratio":"free","crop_scale":1.0,"duration":60000000,"extra_type_option":8,"formula_id":"","freeze":null,"has_audio":true,"has_sound_separated":false,"height":1920,"id":"C7AA8DDE-7F3B-4cea-B86B-0D02AADAE8EB","intensifies_audio_path":"","intensifies_path":"","is_ai_generate_content":false,"is_copyright":false,"is_text_edit_overdub":false,"is_unified_beauty_mode":false,"live_photo_cover_path":"","live_photo_timestamp":-1,"local_id":"","local_material_from":"","local_material_id":"","material_id":"","material_name":"1_Woman’s Unexplained Shivers #fyp #movie #foryoupage #comedia.mp4","material_url":"","matting":{"custom_matting_id":"","enable_matting_stroke":false,"expansion":0,"feather":0,"flag":0,"has_use_quick_brush":false,"has_use_quick_eraser":false,"interactiveTime":[],"path":"","reverse":false,"strokes":[]},"media_path":"","multi_camera_info":null,"object_locked":null,"origin_material_id":"","path":"F:/Tiktok_Video/250520/1_Woman’s Unexplained Shivers #fyp #movie #foryoupage #comedia.mp4","picture_from":"none","picture_set_category_id":"","picture_set_category_name":"","request_id":"","reverse_intensifies_path":"","reverse_path":"","smart_match_info":null,"smart_motion":null,"source":0,"source_platform":0,"stable":{"matrix_path":"","stable_level":0,"time_range":{"duration":0,"start":0}},"team_id":"","type":"video","video_algorithm":{"ai_background_configs":[],"ai_expression_driven":null,"ai_motion_driven":null,"aigc_generate":null,"algorithms":[],"complement_frame_config":null,"deflicker":null,"gameplay_configs":[],"motion_blur_config":null,"mouth_shape_driver":null,"noise_reduction":null,"path":"","quality_enhance":null,"smart_complement_frame":null,"super_resolution":null,"time_range":{"duration":7633334,"start":12666666}},"width":1080},{"aigc_history_id":"","aigc_item_id":"","aigc_type":"none","audio_fade":null,"beauty_body_preset_id":"","beauty_face_auto_preset":{"name":"","preset_id":"","rate_map":""},"beauty_face_auto_preset_infos":[],"beauty_face_preset_infos":[],"cartoon_path":"","category_id":"","category_name":"","check_flag":188807167,"crop":{"lower_left_x":0.0,"lower_left_y":1.0,"lower_right_x":1.0,"lower_right_y":1.0,"upper_left_x":0.0,"upper_left_y":0.0,"upper_right_x":1.0,"upper_right_y":0.0},"crop_ratio":"free","crop_scale":1.0,"duration":60000000,"extra_type_option":8,"formula_id":"","freeze":null,"has_audio":true,"has_sound_separated":false,"height":1920,"id":"ED12AE08-EDEF-48c7-8DA7-59D39CA21030","intensifies_audio_path":"","intensifies_path":"","is_ai_generate_content":false,"is_copyright":false,"is_text_edit_overdub":false,"is_unified_beauty_mode":false,"live_photo_cover_path":"","live_photo_timestamp":-1,"local_id":"","local_material_from":"","local_material_id":"","material_id":"","material_name":"1_Woman’s Unexplained Shivers #fyp #movie #foryoupage #comedia.mp4","material_url":"","matting":{"custom_matting_id":"","enable_matting_stroke":false,"expansion":0,"feather":0,"flag":0,"has_use_quick_brush":false,"has_use_quick_eraser":false,"interactiveTime":[],"path":"","reverse":false,"strokes":[]},"media_path":"","multi_camera_info":null,"object_locked":null,"origin_material_id":"","path":"F:/Tiktok_Video/250520/1_Woman’s Unexplained Shivers #fyp #movie #foryoupage #comedia.mp4","picture_from":"none","picture_set_category_id":"","picture_set_category_name":"","request_id":"","reverse_intensifies_path":"","reverse_path":"","smart_match_info":null,"smart_motion":null,"source":0,"source_platform":0,"stable":{"matrix_path":"","stable_level":0,"time_range":{"duration":0,"start":0}},"team_id":"","type":"video","video_algorithm":{"ai_background_configs":[],"ai_expression_driven":null,"ai_motion_driven":null,"aigc_generate":null,"algorithms":[],"complement_frame_config":null,"deflicker":null,"gameplay_configs":[],"motion_blur_config":null,"mouth_shape_driver":null,"noise_reduction":null,"path":"","quality_enhance":null,"smart_complement_frame":null,"super_resolution":null,"time_range":{"duration":7033333,"start":14300000}},"width":1080},{"aigc_history_id":"","aigc_item_id":"","aigc_type":"none","audio_fade":null,"beauty_body_preset_id":"","beauty_face_auto_preset":{"name":"","preset_id":"","rate_map":""},"beauty_face_auto_preset_infos":[],"beauty_face_preset_infos":[],"cartoon_path":"","category_id":"","category_name":"","check_flag":188807167,"crop":{"lower_left_x":0.0,"lower_left_y":1.0,"lower_right_x":1.0,"lower_right_y":1.0,"upper_left_x":0.0,"upper_left_y":0.0,"upper_right_x":1.0,"upper_right_y":0.0},"crop_ratio":"free","crop_scale":1.0,"duration":60000000,"extra_type_option":8,"formula_id":"","freeze":null,"has_audio":true,"has_sound_separated":false,"height":1920,"id":"DCE9DE12-FFC4-4c52-8254-08A4708AFEBE","intensifies_audio_path":"","intensifies_path":"","is_ai_generate_content":false,"is_copyright":false,"is_text_edit_overdub":false,"is_unified_beauty_mode":false,"live_photo_cover_path":"","live_photo_timestamp":-1,"local_id":"","local_material_from":"","local_material_id":"","material_id":"","material_name":"1_Woman’s Unexplained Shivers #fyp #movie #foryoupage #comedia.mp4","material_url":"","matting":{"custom_matting_id":"","enable_matting_stroke":false,"expansion":0,"feather":0,"flag":0,"has_use_quick_brush":false,"has_use_quick_eraser":false,"interactiveTime":[],"path":"","reverse":false,"strokes":[]},"media_path":"","multi_camera_info":null,"object_locked":null,"origin_material_id":"","path":"F:/Tiktok_Video/250520/1_Woman’s Unexplained Shivers #fyp #movie #foryoupage #comedia.mp4","picture_from":"none","picture_set_category_id":"","picture_set_category_name":"","request_id":"","reverse_intensifies_path":"","reverse_path":"","smart_match_info":null,"smart_motion":null,"source":0,"source_platform":0,"stable":{"matrix_path":"","stable_level":0,"time_range":{"duration":0,"start":0}},"team_id":"","type":"video","video_algorithm":{"ai_background_configs":[],"ai_expression_driven":null,"ai_motion_driven":null,"aigc_generate":null,"algorithms":[],"complement_frame_config":null,"deflicker":null,"gameplay_configs":[],"motion_blur_config":null,"mouth_shape_driver":null,"noise_reduction":null,"path":"","quality_enhance":null,"smart_complement_frame":null,"super_resolution":null,"time_range":{"duration":6833333,"start":15333333}},"width":1080},{"aigc_history_id":"","aigc_item_id":"","aigc_type":"none","audio_fade":null,"beauty_body_preset_id":"","beauty_face_auto_preset":{"name":"","preset_id":"","rate_map":""},"beauty_face_auto_preset_infos":[],"beauty_face_preset_infos":[],"cartoon_path":"","category_id":"","category_name":"","check_flag":188807167,"crop":{"lower_left_x":0.0,"lower_left_y":1.0,"lower_right_x":1.0,"lower_right_y":1.0,"upper_left_x":0.0,"upper_left_y":0.0,"upper_right_x":1.0,"upper_right_y":0.0},"crop_ratio":"free","crop_scale":1.0,"duration":60000000,"extra_type_option":8,"formula_id":"","freeze":null,"has_audio":true,"has_sound_separated":false,"height":1920,"id":"A38281FB-B2FB-41cf-9723-4868B210A7C3","intensifies_audio_path":"","intensifies_path":"","is_ai_generate_content":false,"is_copyright":false,"is_text_edit_overdub":false,"is_unified_beauty_mode":false,"live_photo_cover_path":"","live_photo_timestamp":-1,"local_id":"","local_material_from":"","local_material_id":"","material_id":"","material_name":"1_Woman’s Unexplained Shivers #fyp #movie #foryoupage #comedia.mp4","material_url":"","matting":{"custom_matting_id":"","enable_matting_stroke":false,"expansion":0,"feather":0,"flag":0,"has_use_quick_brush":false,"has_use_quick_eraser":false,"interactiveTime":[],"path":"","reverse":false,"strokes":[]},"media_path":"","multi_camera_info":null,"object_locked":null,"origin_material_id":"","path":"F:/Tiktok_Video/250520/1_Woman’s Unexplained Shivers #fyp #movie #foryoupage #comedia.mp4","picture_from":"none","picture_set_category_id":"","picture_set_category_name":"","request_id":"","reverse_intensifies_path":"","reverse_path":"","smart_match_info":null,"smart_motion":null,"source":0,"source_platform":0,"stable":{"matrix_path":"","stable_level":0,"time_range":{"duration":0,"start":0}},"team_id":"","type":"video","video_algorithm":{"ai_background_configs":[],"ai_expression_driven":null,"ai_motion_driven":null,"aigc_generate":null,"algorithms":[],"complement_frame_config":null,"deflicker":null,"gameplay_configs":[],"motion_blur_config":null,"mouth_shape_driver":null,"noise_reduction":null,"path":"","quality_enhance":null,"smart_complement_frame":null,"super_resolution":null,"time_range":{"duration":7333334,"start":16166666}},"width":1080},{"aigc_history_id":"","aigc_item_id":"","aigc_type":"none","audio_fade":null,"beauty_body_preset_id":"","beauty_face_auto_preset":{"name":"","preset_id":"","rate_map":""},"beauty_face_auto_preset_infos":[],"beauty_face_preset_infos":[],"cartoon_path":"","category_id":"","category_name":"","check_flag":188807167,"crop":{"lower_left_x":0.0,"lower_left_y":1.0,"lower_right_x":1.0,"lower_right_y":1.0,"upper_left_x":0.0,"upper_left_y":0.0,"upper_right_x":1.0,"upper_right_y":0.0},"crop_ratio":"free","crop_scale":1.0,"duration":60000000,"extra_type_option":8,"formula_id":"","freeze":null,"has_audio":true,"has_sound_separated":false,"height":1920,"id":"116E25DC-440A-46a4-B658-1639BFF1093E","intensifies_audio_path":"","intensifies_path":"","is_ai_generate_content":false,"is_copyright":false,"is_text_edit_overdub":false,"is_unified_beauty_mode":false,"live_photo_cover_path":"","live_photo_timestamp":-1,"local_id":"","local_material_from":"","local_material_id":"","material_id":"","material_name":"1_Woman’s Unexplained Shivers #fyp #movie #foryoupage #comedia.mp4","material_url":"","matting":{"custom_matting_id":"","enable_matting_stroke":false,"expansion":0,"feather":0,"flag":0,"has_use_quick_brush":false,"has_use_quick_eraser":false,"interactiveTime":[],"path":"","reverse":false,"strokes":[]},"media_path":"","multi_camera_info":null,"object_locked":null,"origin_material_id":"","path":"F:/Tiktok_Video/250520/1_Woman’s Unexplained Shivers #fyp #movie #foryoupage #comedia.mp4","picture_from":"none","picture_set_category_id":"","picture_set_category_name":"","request_id":"","reverse_intensifies_path":"","reverse_path":"","smart_match_info":null,"smart_motion":null,"source":0,"source_platform":0,"stable":{"matrix_path":"","stable_level":0,"time_range":{"duration":0,"start":0}},"team_id":"","type":"video","video_algorithm":{"ai_background_configs":[],"ai_expression_driven":null,"ai_motion_driven":null,"aigc_generate":null,"algorithms":[],"complement_frame_config":null,"deflicker":null,"gameplay_configs":[],"motion_blur_config":null,"mouth_shape_driver":null,"noise_reduction":null,"path":"","quality_enhance":null,"smart_complement_frame":null,"super_resolution":null,"time_range":{"duration":6500000,"start":17500000}},"width":1080},{"aigc_history_id":"","aigc_item_id":"","aigc_type":"none","audio_fade":null,"beauty_body_preset_id":"","beauty_face_auto_preset":{"name":"","preset_id":"","rate_map":""},"beauty_face_auto_preset_infos":[],"beauty_face_preset_infos":[],"cartoon_path":"","category_id":"","category_name":"","check_flag":188807167,"crop":{"lower_left_x":0.0,"lower_left_y":1.0,"lower_right_x":1.0,"lower_right_y":1.0,"upper_left_x":0.0,"upper_left_y":0.0,"upper_right_x":1.0,"upper_right_y":0.0},"crop_ratio":"free","crop_scale":1.0,"duration":60000000,"extra_type_option":8,"formula_id":"","freeze":null,"has_audio":true,"has_sound_separated":false,"height":1920,"id":"7416B70F-C372-4a6f-9839-EADB5ED97BBD","intensifies_audio_path":"","intensifies_path":"","is_ai_generate_content":false,"is_copyright":false,"is_text_edit_overdub":false,"is_unified_beauty_mode":false,"live_photo_cover_path":"","live_photo_timestamp":-1,"local_id":"","local_material_from":"","local_material_id":"","material_id":"","material_name":"1_Woman’s Unexplained Shivers #fyp #movie #foryoupage #comedia.mp4","material_url":"","matting":{"custom_matting_id":"","enable_matting_stroke":false,"expansion":0,"feather":0,"flag":0,"has_use_quick_brush":false,"has_use_quick_eraser":false,"interactiveTime":[],"path":"","reverse":false,"strokes":[]},"media_path":"","multi_camera_info":null,"object_locked":null,"origin_material_id":"","path":"F:/Tiktok_Video/250520/1_Woman’s Unexplained Shivers #fyp #movie #foryoupage #comedia.mp4","picture_from":"none","picture_set_category_id":"","picture_set_category_name":"","request_id":"","reverse_intensifies_path":"","reverse_path":"","smart_match_info":null,"smart_motion":null,"source":0,"source_platform":0,"stable":{"matrix_path":"","stable_level":0,"time_range":{"duration":0,"start":0}},"team_id":"","type":"video","video_algorithm":{"ai_background_configs":[],"ai_expression_driven":null,"ai_motion_driven":null,"aigc_generate":null,"algorithms":[],"complement_frame_config":null,"deflicker":null,"gameplay_configs":[],"motion_blur_config":null,"mouth_shape_driver":null,"noise_reduction":null,"path":"","quality_enhance":null,"smart_complement_frame":null,"super_resolution":null,"time_range":{"duration":8200000,"start":18000000}},"width":1080},{"aigc_history_id":"","aigc_item_id":"","aigc_type":"none","audio_fade":null,"beauty_body_preset_id":"","beauty_face_auto_preset":{"name":"","preset_id":"","rate_map":""},"beauty_face_auto_preset_infos":[],"beauty_face_preset_infos":[],"cartoon_path":"","category_id":"","category_name":"","check_flag":188807167,"crop":{"lower_left_x":0.0,"lower_left_y":1.0,"lower_right_x":1.0,"lower_right_y":1.0,"upper_left_x":0.0,"upper_left_y":0.0,"upper_right_x":1.0,"upper_right_y":0.0},"crop_ratio":"free","crop_scale":1.0,"duration":60000000,"extra_type_option":8,"formula_id":"","freeze":null,"has_audio":true,"has_sound_separated":false,"height":1920,"id":"24756C9E-99D1-4145-9B86-DA650C46C4B3","intensifies_audio_path":"","intensifies_path":"","is_ai_generate_content":false,"is_copyright":false,"is_text_edit_overdub":false,"is_unified_beauty_mode":false,"live_photo_cover_path":"","live_photo_timestamp":-1,"local_id":"","local_material_from":"","local_material_id":"","material_id":"","material_name":"1_Woman’s Unexplained Shivers #fyp #movie #foryoupage #comedia.mp4","material_url":"","matting":{"custom_matting_id":"","enable_matting_stroke":false,"expansion":0,"feather":0,"flag":0,"has_use_quick_brush":false,"has_use_quick_eraser":false,"interactiveTime":[],"path":"","reverse":false,"strokes":[]},"media_path":"","multi_camera_info":null,"object_locked":null,"origin_material_id":"","path":"F:/Tiktok_Video/250520/1_Woman’s Unexplained Shivers #fyp #movie #foryoupage #comedia.mp4","picture_from":"none","picture_set_category_id":"","picture_set_category_name":"","request_id":"","reverse_intensifies_path":"","reverse_path":"","smart_match_info":null,"smart_motion":null,"source":0,"source_platform":0,"stable":{"matrix_path":"","stable_level":0,"time_range":{"duration":0,"start":0}},"team_id":"","type":"video","video_algorithm":{"ai_background_configs":[],"ai_expression_driven":null,"ai_motion_driven":null,"aigc_generate":null,"algorithms":[],"complement_frame_config":null,"deflicker":null,"gameplay_configs":[],"motion_blur_config":null,"mouth_shape_driver":null,"noise_reduction":null,"path":"","quality_enhance":null,"smart_complement_frame":null,"super_resolution":null,"time_range":{"duration":7266666,"start":20200000}},"width":1080},{"aigc_history_id":"","aigc_item_id":"","aigc_type":"none","audio_fade":null,"beauty_body_preset_id":"","beauty_face_auto_preset":{"name":"","preset_id":"","rate_map":""},"beauty_face_auto_preset_infos":[],"beauty_face_preset_infos":[],"cartoon_path":"","category_id":"","category_name":"","check_flag":188807167,"crop":{"lower_left_x":0.0,"lower_left_y":1.0,"lower_right_x":1.0,"lower_right_y":1.0,"upper_left_x":0.0,"upper_left_y":0.0,"upper_right_x":1.0,"upper_right_y":0.0},"crop_ratio":"free","crop_scale":1.0,"duration":60000000,"extra_type_option":8,"formula_id":"","freeze":null,"has_audio":true,"has_sound_separated":false,"height":1920,"id":"6B69A75B-84AC-4345-A7BC-C93500BE61B6","intensifies_audio_path":"","intensifies_path":"","is_ai_generate_content":false,"is_copyright":false,"is_text_edit_overdub":false,"is_unified_beauty_mode":false,"live_photo_cover_path":"","live_photo_timestamp":-1,"local_id":"","local_material_from":"","local_material_id":"","material_id":"","material_name":"1_Woman’s Unexplained Shivers #fyp #movie #foryoupage #comedia.mp4","material_url":"","matting":{"custom_matting_id":"","enable_matting_stroke":false,"expansion":0,"feather":0,"flag":0,"has_use_quick_brush":false,"has_use_quick_eraser":false,"interactiveTime":[],"path":"","reverse":false,"strokes":[]},"media_path":"","multi_camera_info":null,"object_locked":null,"origin_material_id":"","path":"F:/Tiktok_Video/250520/1_Woman’s Unexplained Shivers #fyp #movie #foryoupage #comedia.mp4","picture_from":"none","picture_set_category_id":"","picture_set_category_name":"","request_id":"","reverse_intensifies_path":"","reverse_path":"","smart_match_info":null,"smart_motion":null,"source":0,"source_platform":0,"stable":{"matrix_path":"","stable_level":0,"time_range":{"duration":0,"start":0}},"team_id":"","type":"video","video_algorithm":{"ai_background_configs":[],"ai_expression_driven":null,"ai_motion_driven":null,"aigc_generate":null,"algorithms":[],"complement_frame_config":null,"deflicker":null,"gameplay_configs":[],"motion_blur_config":null,"mouth_shape_driver":null,"noise_reduction":null,"path":"","quality_enhance":null,"smart_complement_frame":null,"super_resolution":null,"time_range":{"duration":7300000,"start":21466666}},"width":1080},{"aigc_history_id":"","aigc_item_id":"","aigc_type":"none","audio_fade":null,"beauty_body_preset_id":"","beauty_face_auto_preset":{"name":"","preset_id":"","rate_map":""},"beauty_face_auto_preset_infos":[],"beauty_face_preset_infos":[],"cartoon_path":"","category_id":"","category_name":"","check_flag":188807167,"crop":{"lower_left_x":0.0,"lower_left_y":1.0,"lower_right_x":1.0,"lower_right_y":1.0,"upper_left_x":0.0,"upper_left_y":0.0,"upper_right_x":1.0,"upper_right_y":0.0},"crop_ratio":"free","crop_scale":1.0,"duration":60000000,"extra_type_option":8,"formula_id":"","freeze":null,"has_audio":true,"has_sound_separated":false,"height":1920,"id":"72EC0E5F-9D04-442d-B7D0-1A5671A788F8","intensifies_audio_path":"","intensifies_path":"","is_ai_generate_content":false,"is_copyright":false,"is_text_edit_overdub":false,"is_unified_beauty_mode":false,"live_photo_cover_path":"","live_photo_timestamp":-1,"local_id":"","local_material_from":"","local_material_id":"","material_id":"","material_name":"1_Woman’s Unexplained Shivers #fyp #movie #foryoupage #comedia.mp4","material_url":"","matting":{"custom_matting_id":"","enable_matting_stroke":false,"expansion":0,"feather":0,"flag":0,"has_use_quick_brush":false,"has_use_quick_eraser":false,"interactiveTime":[],"path":"","reverse":false,"strokes":[]},"media_path":"","multi_camera_info":null,"object_locked":null,"origin_material_id":"","path":"F:/Tiktok_Video/250520/1_Woman’s Unexplained Shivers #fyp #movie #foryoupage #comedia.mp4","picture_from":"none","picture_set_category_id":"","picture_set_category_name":"","request_id":"","reverse_intensifies_path":"","reverse_path":"","smart_match_info":null,"smart_motion":null,"source":0,"source_platform":0,"stable":{"matrix_path":"","stable_level":0,"time_range":{"duration":0,"start":0}},"team_id":"","type":"video","video_algorithm":{"ai_background_configs":[],"ai_expression_driven":null,"ai_motion_driven":null,"aigc_generate":null,"algorithms":[],"complement_frame_config":null,"deflicker":null,"gameplay_configs":[],"motion_blur_config":null,"mouth_shape_driver":null,"noise_reduction":null,"path":"","quality_enhance":null,"smart_complement_frame":null,"super_resolution":null,"time_range":{"duration":6933334,"start":22766666}},"width":1080},{"aigc_history_id":"","aigc_item_id":"","aigc_type":"none","audio_fade":null,"beauty_body_preset_id":"","beauty_face_auto_preset":{"name":"","preset_id":"","rate_map":""},"beauty_face_auto_preset_infos":[],"beauty_face_preset_infos":[],"cartoon_path":"","category_id":"","category_name":"","check_flag":188807167,"crop":{"lower_left_x":0.0,"lower_left_y":1.0,"lower_right_x":1.0,"lower_right_y":1.0,"upper_left_x":0.0,"upper_left_y":0.0,"upper_right_x":1.0,"upper_right_y":0.0},"crop_ratio":"free","crop_scale":1.0,"duration":60000000,"extra_type_option":8,"formula_id":"","freeze":null,"has_audio":true,"has_sound_separated":false,"height":1920,"id":"F5B7E1C8-3D1E-4cdd-9194-265CE451A770","intensifies_audio_path":"","intensifies_path":"","is_ai_generate_content":false,"is_copyright":false,"is_text_edit_overdub":false,"is_unified_beauty_mode":false,"live_photo_cover_path":"","live_photo_timestamp":-1,"local_id":"","local_material_from":"","local_material_id":"","material_id":"","material_name":"1_Woman’s Unexplained Shivers #fyp #movie #foryoupage #comedia.mp4","material_url":"","matting":{"custom_matting_id":"","enable_matting_stroke":false,"expansion":0,"feather":0,"flag":0,"has_use_quick_brush":false,"has_use_quick_eraser":false,"interactiveTime":[],"path":"","reverse":false,"strokes":[]},"media_path":"","multi_camera_info":null,"object_locked":null,"origin_material_id":"","path":"F:/Tiktok_Video/250520/1_Woman’s Unexplained Shivers #fyp #movie #foryoupage #comedia.mp4","picture_from":"none","picture_set_category_id":"","picture_set_category_name":"","request_id":"","reverse_intensifies_path":"","reverse_path":"","smart_match_info":null,"smart_motion":null,"source":0,"source_platform":0,"stable":{"matrix_path":"","stable_level":0,"time_range":{"duration":0,"start":0}},"team_id":"","type":"video","video_algorithm":{"ai_background_configs":[],"ai_expression_driven":null,"ai_motion_driven":null,"aigc_generate":null,"algorithms":[],"complement_frame_config":null,"deflicker":null,"gameplay_configs":[],"motion_blur_config":null,"mouth_shape_driver":null,"noise_reduction":null,"path":"","quality_enhance":null,"smart_complement_frame":null,"super_resolution":null,"time_range":{"duration":6800000,"start":23700000}},"width":1080},{"aigc_history_id":"","aigc_item_id":"","aigc_type":"none","audio_fade":null,"beauty_body_preset_id":"","beauty_face_auto_preset":{"name":"","preset_id":"","rate_map":""},"beauty_face_auto_preset_infos":[],"beauty_face_preset_infos":[],"cartoon_path":"","category_id":"","category_name":"","check_flag":188807167,"crop":{"lower_left_x":0.0,"lower_left_y":1.0,"lower_right_x":1.0,"lower_right_y":1.0,"upper_left_x":0.0,"upper_left_y":0.0,"upper_right_x":1.0,"upper_right_y":0.0},"crop_ratio":"free","crop_scale":1.0,"duration":60000000,"extra_type_option":8,"formula_id":"","freeze":null,"has_audio":true,"has_sound_separated":false,"height":1920,"id":"61DEDF39-A6E5-4184-ABC4-AB46D820F7EC","intensifies_audio_path":"","intensifies_path":"","is_ai_generate_content":false,"is_copyright":false,"is_text_edit_overdub":false,"is_unified_beauty_mode":false,"live_photo_cover_path":"","live_photo_timestamp":-1,"local_id":"","local_material_from":"","local_material_id":"","material_id":"","material_name":"1_Woman’s Unexplained Shivers #fyp #movie #foryoupage #comedia.mp4","material_url":"","matting":{"custom_matting_id":"","enable_matting_stroke":false,"expansion":0,"feather":0,"flag":0,"has_use_quick_brush":false,"has_use_quick_eraser":false,"interactiveTime":[],"path":"","reverse":false,"strokes":[]},"media_path":"","multi_camera_info":null,"object_locked":null,"origin_material_id":"","path":"F:/Tiktok_Video/250520/1_Woman’s Unexplained Shivers #fyp #movie #foryoupage #comedia.mp4","picture_from":"none","picture_set_category_id":"","picture_set_category_name":"","request_id":"","reverse_intensifies_path":"","reverse_path":"","smart_match_info":null,"smart_motion":null,"source":0,"source_platform":0,"stable":{"matrix_path":"","stable_level":0,"time_range":{"duration":0,"start":0}},"team_id":"","type":"video","video_algorithm":{"ai_background_configs":[],"ai_expression_driven":null,"ai_motion_driven":null,"aigc_generate":null,"algorithms":[],"complement_frame_config":null,"deflicker":null,"gameplay_configs":[],"motion_blur_config":null,"mouth_shape_driver":null,"noise_reduction":null,"path":"","quality_enhance":null,"smart_complement_frame":null,"super_resolution":null,"time_range":{"duration":6900000,"start":24500000}},"width":1080},{"aigc_history_id":"","aigc_item_id":"","aigc_type":"none","audio_fade":null,"beauty_body_preset_id":"","beauty_face_auto_preset":{"name":"","preset_id":"","rate_map":""},"beauty_face_auto_preset_infos":[],"beauty_face_preset_infos":[],"cartoon_path":"","category_id":"","category_name":"","check_flag":188807167,"crop":{"lower_left_x":0.0,"lower_left_y":1.0,"lower_right_x":1.0,"lower_right_y":1.0,"upper_left_x":0.0,"upper_left_y":0.0,"upper_right_x":1.0,"upper_right_y":0.0},"crop_ratio":"free","crop_scale":1.0,"duration":60000000,"extra_type_option":8,"formula_id":"","freeze":null,"has_audio":true,"has_sound_separated":false,"height":1920,"id":"BDE2763C-45F4-4035-9329-6EE2E02EB932","intensifies_audio_path":"","intensifies_path":"","is_ai_generate_content":false,"is_copyright":false,"is_text_edit_overdub":false,"is_unified_beauty_mode":false,"live_photo_cover_path":"","live_photo_timestamp":-1,"local_id":"","local_material_from":"","local_material_id":"","material_id":"","material_name":"1_Woman’s Unexplained Shivers #fyp #movie #foryoupage #comedia.mp4","material_url":"","matting":{"custom_matting_id":"","enable_matting_stroke":false,"expansion":0,"feather":0,"flag":0,"has_use_quick_brush":false,"has_use_quick_eraser":false,"interactiveTime":[],"path":"","reverse":false,"strokes":[]},"media_path":"","multi_camera_info":null,"object_locked":null,"origin_material_id":"","path":"F:/Tiktok_Video/250520/1_Woman’s Unexplained Shivers #fyp #movie #foryoupage #comedia.mp4","picture_from":"none","picture_set_category_id":"","picture_set_category_name":"","request_id":"","reverse_intensifies_path":"","reverse_path":"","smart_match_info":null,"smart_motion":null,"source":0,"source_platform":0,"stable":{"matrix_path":"","stable_level":0,"time_range":{"duration":0,"start":0}},"team_id":"","type":"video","video_algorithm":{"ai_background_configs":[],"ai_expression_driven":null,"ai_motion_driven":null,"aigc_generate":null,"algorithms":[],"complement_frame_config":null,"deflicker":null,"gameplay_configs":[],"motion_blur_config":null,"mouth_shape_driver":null,"noise_reduction":null,"path":"","quality_enhance":null,"smart_complement_frame":null,"super_resolution":null,"time_range":{"duration":7100000,"start":25400000}},"width":1080},{"aigc_history_id":"","aigc_item_id":"","aigc_type":"none","audio_fade":null,"beauty_body_preset_id":"","beauty_face_auto_preset":{"name":"","preset_id":"","rate_map":""},"beauty_face_auto_preset_infos":[],"beauty_face_preset_infos":[],"cartoon_path":"","category_id":"","category_name":"","check_flag":188807167,"crop":{"lower_left_x":0.0,"lower_left_y":1.0,"lower_right_x":1.0,"lower_right_y":1.0,"upper_left_x":0.0,"upper_left_y":0.0,"upper_right_x":1.0,"upper_right_y":0.0},"crop_ratio":"free","crop_scale":1.0,"duration":60000000,"extra_type_option":8,"formula_id":"","freeze":null,"has_audio":true,"has_sound_separated":false,"height":1920,"id":"2FBDB24E-83F5-4927-B220-D09D3DBF2DFE","intensifies_audio_path":"","intensifies_path":"","is_ai_generate_content":false,"is_copyright":false,"is_text_edit_overdub":false,"is_unified_beauty_mode":false,"live_photo_cover_path":"","live_photo_timestamp":-1,"local_id":"","local_material_from":"","local_material_id":"","material_id":"","material_name":"1_Woman’s Unexplained Shivers #fyp #movie #foryoupage #comedia.mp4","material_url":"","matting":{"custom_matting_id":"","enable_matting_stroke":false,"expansion":0,"feather":0,"flag":0,"has_use_quick_brush":false,"has_use_quick_eraser":false,"interactiveTime":[],"path":"","reverse":false,"strokes":[]},"media_path":"","multi_camera_info":null,"object_locked":null,"origin_material_id":"","path":"F:/Tiktok_Video/250520/1_Woman’s Unexplained Shivers #fyp #movie #foryoupage #comedia.mp4","picture_from":"none","picture_set_category_id":"","picture_set_category_name":"","request_id":"","reverse_intensifies_path":"","reverse_path":"","smart_match_info":null,"smart_motion":null,"source":0,"source_platform":0,"stable":{"matrix_path":"","stable_level":0,"time_range":{"duration":0,"start":0}},"team_id":"","type":"video","video_algorithm":{"ai_background_configs":[],"ai_expression_driven":null,"ai_motion_driven":null,"aigc_generate":null,"algorithms":[],"complement_frame_config":null,"deflicker":null,"gameplay_configs":[],"motion_blur_config":null,"mouth_shape_driver":null,"noise_reduction":null,"path":"","quality_enhance":null,"smart_complement_frame":null,"super_resolution":null,"time_range":{"duration":7100000,"start":26500000}},"width":1080},{"aigc_history_id":"","aigc_item_id":"","aigc_type":"none","audio_fade":null,"beauty_body_preset_id":"","beauty_face_auto_preset":{"name":"","preset_id":"","rate_map":""},"beauty_face_auto_preset_infos":[],"beauty_face_preset_infos":[],"cartoon_path":"","category_id":"","category_name":"","check_flag":188807167,"crop":{"lower_left_x":0.0,"lower_left_y":1.0,"lower_right_x":1.0,"lower_right_y":1.0,"upper_left_x":0.0,"upper_left_y":0.0,"upper_right_x":1.0,"upper_right_y":0.0},"crop_ratio":"free","crop_scale":1.0,"duration":60000000,"extra_type_option":8,"formula_id":"","freeze":null,"has_audio":true,"has_sound_separated":false,"height":1920,"id":"6C993C83-FB28-4572-8C70-743F25821750","intensifies_audio_path":"","intensifies_path":"","is_ai_generate_content":false,"is_copyright":false,"is_text_edit_overdub":false,"is_unified_beauty_mode":false,"live_photo_cover_path":"","live_photo_timestamp":-1,"local_id":"","local_material_from":"","local_material_id":"","material_id":"","material_name":"1_Woman’s Unexplained Shivers #fyp #movie #foryoupage #comedia.mp4","material_url":"","matting":{"custom_matting_id":"","enable_matting_stroke":false,"expansion":0,"feather":0,"flag":0,"has_use_quick_brush":false,"has_use_quick_eraser":false,"interactiveTime":[],"path":"","reverse":false,"strokes":[]},"media_path":"","multi_camera_info":null,"object_locked":null,"origin_material_id":"","path":"F:/Tiktok_Video/250520/1_Woman’s Unexplained Shivers #fyp #movie #foryoupage #comedia.mp4","picture_from":"none","picture_set_category_id":"","picture_set_category_name":"","request_id":"","reverse_intensifies_path":"","reverse_path":"","smart_match_info":null,"smart_motion":null,"source":0,"source_platform":0,"stable":{"matrix_path":"","stable_level":0,"time_range":{"duration":0,"start":0}},"team_id":"","type":"video","video_algorithm":{"ai_background_configs":[],"ai_expression_driven":null,"ai_motion_driven":null,"aigc_generate":null,"algorithms":[],"complement_frame_config":null,"deflicker":null,"gameplay_configs":[],"motion_blur_config":null,"mouth_shape_driver":null,"noise_reduction":null,"path":"","quality_enhance":null,"smart_complement_frame":null,"super_resolution":null,"time_range":{"duration":7366666,"start":27600000}},"width":1080},{"aigc_history_id":"","aigc_item_id":"","aigc_type":"none","audio_fade":null,"beauty_body_preset_id":"","beauty_face_auto_preset":{"name":"","preset_id":"","rate_map":""},"beauty_face_auto_preset_infos":[],"beauty_face_preset_infos":[],"cartoon_path":"","category_id":"","category_name":"","check_flag":188807167,"crop":{"lower_left_x":0.0,"lower_left_y":1.0,"lower_right_x":1.0,"lower_right_y":1.0,"upper_left_x":0.0,"upper_left_y":0.0,"upper_right_x":1.0,"upper_right_y":0.0},"crop_ratio":"free","crop_scale":1.0,"duration":60000000,"extra_type_option":8,"formula_id":"","freeze":null,"has_audio":true,"has_sound_separated":false,"height":1920,"id":"6D6C5DC2-6BB1-4d9f-97B1-B789709535CB","intensifies_audio_path":"","intensifies_path":"","is_ai_generate_content":false,"is_copyright":false,"is_text_edit_overdub":false,"is_unified_beauty_mode":false,"live_photo_cover_path":"","live_photo_timestamp":-1,"local_id":"","local_material_from":"","local_material_id":"","material_id":"","material_name":"1_Woman’s Unexplained Shivers #fyp #movie #foryoupage #comedia.mp4","material_url":"","matting":{"custom_matting_id":"","enable_matting_stroke":false,"expansion":0,"feather":0,"flag":0,"has_use_quick_brush":false,"has_use_quick_eraser":false,"interactiveTime":[],"path":"","reverse":false,"strokes":[]},"media_path":"","multi_camera_info":null,"object_locked":null,"origin_material_id":"","path":"F:/Tiktok_Video/250520/1_Woman’s Unexplained Shivers #fyp #movie #foryoupage #comedia.mp4","picture_from":"none","picture_set_category_id":"","picture_set_category_name":"","request_id":"","reverse_intensifies_path":"","reverse_path":"","smart_match_info":null,"smart_motion":null,"source":0,"source_platform":0,"stable":{"matrix_path":"","stable_level":0,"time_range":{"duration":0,"start":0}},"team_id":"","type":"video","video_algorithm":{"ai_background_configs":[],"ai_expression_driven":null,"ai_motion_driven":null,"aigc_generate":null,"algorithms":[],"complement_frame_config":null,"deflicker":null,"gameplay_configs":[],"motion_blur_config":null,"mouth_shape_driver":null,"noise_reduction":null,"path":"","quality_enhance":null,"smart_complement_frame":null,"super_resolution":null,"time_range":{"duration":6500000,"start":28966666}},"width":1080},{"aigc_history_id":"","aigc_item_id":"","aigc_type":"none","audio_fade":null,"beauty_body_preset_id":"","beauty_face_auto_preset":{"name":"","preset_id":"","rate_map":""},"beauty_face_auto_preset_infos":[],"beauty_face_preset_infos":[],"cartoon_path":"","category_id":"","category_name":"","check_flag":188807167,"crop":{"lower_left_x":0.0,"lower_left_y":1.0,"lower_right_x":1.0,"lower_right_y":1.0,"upper_left_x":0.0,"upper_left_y":0.0,"upper_right_x":1.0,"upper_right_y":0.0},"crop_ratio":"free","crop_scale":1.0,"duration":60000000,"extra_type_option":8,"formula_id":"","freeze":null,"has_audio":true,"has_sound_separated":false,"height":1920,"id":"63D463D2-D7C7-490d-92E8-40AF4DB32C5E","intensifies_audio_path":"","intensifies_path":"","is_ai_generate_content":false,"is_copyright":false,"is_text_edit_overdub":false,"is_unified_beauty_mode":false,"live_photo_cover_path":"","live_photo_timestamp":-1,"local_id":"","local_material_from":"","local_material_id":"","material_id":"","material_name":"1_Woman’s Unexplained Shivers #fyp #movie #foryoupage #comedia.mp4","material_url":"","matting":{"custom_matting_id":"","enable_matting_stroke":false,"expansion":0,"feather":0,"flag":0,"has_use_quick_brush":false,"has_use_quick_eraser":false,"interactiveTime":[],"path":"","reverse":false,"strokes":[]},"media_path":"","multi_camera_info":null,"object_locked":null,"origin_material_id":"","path":"F:/Tiktok_Video/250520/1_Woman’s Unexplained Shivers #fyp #movie #foryoupage #comedia.mp4","picture_from":"none","picture_set_category_id":"","picture_set_category_name":"","request_id":"","reverse_intensifies_path":"","reverse_path":"","smart_match_info":null,"smart_motion":null,"source":0,"source_platform":0,"stable":{"matrix_path":"","stable_level":0,"time_range":{"duration":0,"start":0}},"team_id":"","type":"video","video_algorithm":{"ai_background_configs":[],"ai_expression_driven":null,"ai_motion_driven":null,"aigc_generate":null,"algorithms":[],"complement_frame_config":null,"deflicker":null,"gameplay_configs":[],"motion_blur_config":null,"mouth_shape_driver":null,"noise_reduction":null,"path":"","quality_enhance":null,"smart_complement_frame":null,"super_resolution":null,"time_range":{"duration":7300000,"start":29466666}},"width":1080},{"aigc_history_id":"","aigc_item_id":"","aigc_type":"none","audio_fade":null,"beauty_body_preset_id":"","beauty_face_auto_preset":{"name":"","preset_id":"","rate_map":""},"beauty_face_auto_preset_infos":[],"beauty_face_preset_infos":[],"cartoon_path":"","category_id":"","category_name":"","check_flag":188807167,"crop":{"lower_left_x":0.0,"lower_left_y":1.0,"lower_right_x":1.0,"lower_right_y":1.0,"upper_left_x":0.0,"upper_left_y":0.0,"upper_right_x":1.0,"upper_right_y":0.0},"crop_ratio":"free","crop_scale":1.0,"duration":60000000,"extra_type_option":8,"formula_id":"","freeze":null,"has_audio":true,"has_sound_separated":false,"height":1920,"id":"F6F2F1E0-39AD-4970-8276-0F8D055598AE","intensifies_audio_path":"","intensifies_path":"","is_ai_generate_content":false,"is_copyright":false,"is_text_edit_overdub":false,"is_unified_beauty_mode":false,"live_photo_cover_path":"","live_photo_timestamp":-1,"local_id":"","local_material_from":"","local_material_id":"","material_id":"","material_name":"1_Woman’s Unexplained Shivers #fyp #movie #foryoupage #comedia.mp4","material_url":"","matting":{"custom_matting_id":"","enable_matting_stroke":false,"expansion":0,"feather":0,"flag":0,"has_use_quick_brush":false,"has_use_quick_eraser":false,"interactiveTime":[],"path":"","reverse":false,"strokes":[]},"media_path":"","multi_camera_info":null,"object_locked":null,"origin_material_id":"","path":"F:/Tiktok_Video/250520/1_Woman’s Unexplained Shivers #fyp #movie #foryoupage #comedia.mp4","picture_from":"none","picture_set_category_id":"","picture_set_category_name":"","request_id":"","reverse_intensifies_path":"","reverse_path":"","smart_match_info":null,"smart_motion":null,"source":0,"source_platform":0,"stable":{"matrix_path":"","stable_level":0,"time_range":{"duration":0,"start":0}},"team_id":"","type":"video","video_algorithm":{"ai_background_configs":[],"ai_expression_driven":null,"ai_motion_driven":null,"aigc_generate":null,"algorithms":[],"complement_frame_config":null,"deflicker":null,"gameplay_configs":[],"motion_blur_config":null,"mouth_shape_driver":null,"noise_reduction":null,"path":"","quality_enhance":null,"smart_complement_frame":null,"super_resolution":null,"time_range":{"duration":8166667,"start":30766666}},"width":1080},{"aigc_history_id":"","aigc_item_id":"","aigc_type":"none","audio_fade":null,"beauty_body_preset_id":"","beauty_face_auto_preset":{"name":"","preset_id":"","rate_map":""},"beauty_face_auto_preset_infos":[],"beauty_face_preset_infos":[],"cartoon_path":"","category_id":"","category_name":"","check_flag":188807167,"crop":{"lower_left_x":0.0,"lower_left_y":1.0,"lower_right_x":1.0,"lower_right_y":1.0,"upper_left_x":0.0,"upper_left_y":0.0,"upper_right_x":1.0,"upper_right_y":0.0},"crop_ratio":"free","crop_scale":1.0,"duration":60000000,"extra_type_option":8,"formula_id":"","freeze":null,"has_audio":true,"has_sound_separated":false,"height":1920,"id":"080F424A-9305-4ade-9A41-57621A649985","intensifies_audio_path":"","intensifies_path":"","is_ai_generate_content":false,"is_copyright":false,"is_text_edit_overdub":false,"is_unified_beauty_mode":false,"live_photo_cover_path":"","live_photo_timestamp":-1,"local_id":"","local_material_from":"","local_material_id":"","material_id":"","material_name":"1_Woman’s Unexplained Shivers #fyp #movie #foryoupage #comedia.mp4","material_url":"","matting":{"custom_matting_id":"","enable_matting_stroke":false,"expansion":0,"feather":0,"flag":0,"has_use_quick_brush":false,"has_use_quick_eraser":false,"interactiveTime":[],"path":"","reverse":false,"strokes":[]},"media_path":"","multi_camera_info":null,"object_locked":null,"origin_material_id":"","path":"F:/Tiktok_Video/250520/1_Woman’s Unexplained Shivers #fyp #movie #foryoupage #comedia.mp4","picture_from":"none","picture_set_category_id":"","picture_set_category_name":"","request_id":"","reverse_intensifies_path":"","reverse_path":"","smart_match_info":null,"smart_motion":null,"source":0,"source_platform":0,"stable":{"matrix_path":"","stable_level":0,"time_range":{"duration":0,"start":0}},"team_id":"","type":"video","video_algorithm":{"ai_background_configs":[],"ai_expression_driven":null,"ai_motion_driven":null,"aigc_generate":null,"algorithms":[],"complement_frame_config":null,"deflicker":null,"gameplay_configs":[],"motion_blur_config":null,"mouth_shape_driver":null,"noise_reduction":null,"path":"","quality_enhance":null,"smart_complement_frame":null,"super_resolution":null,"time_range":{"duration":7033333,"start":32933333}},"width":1080},{"aigc_history_id":"","aigc_item_id":"","aigc_type":"none","audio_fade":null,"beauty_body_preset_id":"","beauty_face_auto_preset":{"name":"","preset_id":"","rate_map":""},"beauty_face_auto_preset_infos":[],"beauty_face_preset_infos":[],"cartoon_path":"","category_id":"","category_name":"","check_flag":188807167,"crop":{"lower_left_x":0.0,"lower_left_y":1.0,"lower_right_x":1.0,"lower_right_y":1.0,"upper_left_x":0.0,"upper_left_y":0.0,"upper_right_x":1.0,"upper_right_y":0.0},"crop_ratio":"free","crop_scale":1.0,"duration":60000000,"extra_type_option":8,"formula_id":"","freeze":null,"has_audio":true,"has_sound_separated":false,"height":1920,"id":"AFB766F5-773B-4210-8A0B-9506019F3A33","intensifies_audio_path":"","intensifies_path":"","is_ai_generate_content":false,"is_copyright":false,"is_text_edit_overdub":false,"is_unified_beauty_mode":false,"live_photo_cover_path":"","live_photo_timestamp":-1,"local_id":"","local_material_from":"","local_material_id":"","material_id":"","material_name":"1_Woman’s Unexplained Shivers #fyp #movie #foryoupage #comedia.mp4","material_url":"","matting":{"custom_matting_id":"","enable_matting_stroke":false,"expansion":0,"feather":0,"flag":0,"has_use_quick_brush":false,"has_use_quick_eraser":false,"interactiveTime":[],"path":"","reverse":false,"strokes":[]},"media_path":"","multi_camera_info":null,"object_locked":null,"origin_material_id":"","path":"F:/Tiktok_Video/250520/1_Woman’s Unexplained Shivers #fyp #movie #foryoupage #comedia.mp4","picture_from":"none","picture_set_category_id":"","picture_set_category_name":"","request_id":"","reverse_intensifies_path":"","reverse_path":"","smart_match_info":null,"smart_motion":null,"source":0,"source_platform":0,"stable":{"matrix_path":"","stable_level":0,"time_range":{"duration":0,"start":0}},"team_id":"","type":"video","video_algorithm":{"ai_background_configs":[],"ai_expression_driven":null,"ai_motion_driven":null,"aigc_generate":null,"algorithms":[],"complement_frame_config":null,"deflicker":null,"gameplay_configs":[],"motion_blur_config":null,"mouth_shape_driver":null,"noise_reduction":null,"path":"","quality_enhance":null,"smart_complement_frame":null,"super_resolution":null,"time_range":{"duration":12666667,"start":33966666}},"width":1080},{"aigc_history_id":"","aigc_item_id":"","aigc_type":"none","audio_fade":null,"beauty_body_preset_id":"","beauty_face_auto_preset":{"name":"","preset_id":"","rate_map":""},"beauty_face_auto_preset_infos":[],"beauty_face_preset_infos":[],"cartoon_path":"","category_id":"","category_name":"","check_flag":188807167,"crop":{"lower_left_x":0.0,"lower_left_y":1.0,"lower_right_x":1.0,"lower_right_y":1.0,"upper_left_x":0.0,"upper_left_y":0.0,"upper_right_x":1.0,"upper_right_y":0.0},"crop_ratio":"free","crop_scale":1.0,"duration":60000000,"extra_type_option":8,"formula_id":"","freeze":null,"has_audio":true,"has_sound_separated":false,"height":1920,"id":"3A6B3E74-BA15-4064-B91B-F9CB4A1671F3","intensifies_audio_path":"","intensifies_path":"","is_ai_generate_content":false,"is_copyright":false,"is_text_edit_overdub":false,"is_unified_beauty_mode":false,"live_photo_cover_path":"","live_photo_timestamp":-1,"local_id":"","local_material_from":"","local_material_id":"","material_id":"","material_name":"1_Woman’s Unexplained Shivers #fyp #movie #foryoupage #comedia.mp4","material_url":"","matting":{"custom_matting_id":"","enable_matting_stroke":false,"expansion":0,"feather":0,"flag":0,"has_use_quick_brush":false,"has_use_quick_eraser":false,"interactiveTime":[],"path":"","reverse":false,"strokes":[]},"media_path":"","multi_camera_info":null,"object_locked":null,"origin_material_id":"","path":"F:/Tiktok_Video/250520/1_Woman’s Unexplained Shivers #fyp #movie #foryoupage #comedia.mp4","picture_from":"none","picture_set_category_id":"","picture_set_category_name":"","request_id":"","reverse_intensifies_path":"","reverse_path":"","smart_match_info":null,"smart_motion":null,"source":0,"source_platform":0,"stable":{"matrix_path":"","stable_level":0,"time_range":{"duration":0,"start":0}},"team_id":"","type":"video","video_algorithm":{"ai_background_configs":[],"ai_expression_driven":null,"ai_motion_driven":null,"aigc_generate":null,"algorithms":[],"complement_frame_config":null,"deflicker":null,"gameplay_configs":[],"motion_blur_config":null,"mouth_shape_driver":null,"noise_reduction":null,"path":"","quality_enhance":null,"smart_complement_frame":null,"super_resolution":null,"time_range":{"duration":9666667,"start":40633333}},"width":1080},{"aigc_history_id":"","aigc_item_id":"","aigc_type":"none","audio_fade":null,"beauty_body_preset_id":"","beauty_face_auto_preset":{"name":"","preset_id":"","rate_map":""},"beauty_face_auto_preset_infos":[],"beauty_face_preset_infos":[],"cartoon_path":"","category_id":"","category_name":"","check_flag":188807167,"crop":{"lower_left_x":0.0,"lower_left_y":1.0,"lower_right_x":1.0,"lower_right_y":1.0,"upper_left_x":0.0,"upper_left_y":0.0,"upper_right_x":1.0,"upper_right_y":0.0},"crop_ratio":"free","crop_scale":1.0,"duration":60000000,"extra_type_option":8,"formula_id":"","freeze":null,"has_audio":true,"has_sound_separated":false,"height":1920,"id":"0470BB13-7AF6-4d37-BF38-F852EDF38D8F","intensifies_audio_path":"","intensifies_path":"","is_ai_generate_content":false,"is_copyright":false,"is_text_edit_overdub":false,"is_unified_beauty_mode":false,"live_photo_cover_path":"","live_photo_timestamp":-1,"local_id":"","local_material_from":"","local_material_id":"","material_id":"","material_name":"1_Woman’s Unexplained Shivers #fyp #movie #foryoupage #comedia.mp4","material_url":"","matting":{"custom_matting_id":"","enable_matting_stroke":false,"expansion":0,"feather":0,"flag":0,"has_use_quick_brush":false,"has_use_quick_eraser":false,"interactiveTime":[],"path":"","reverse":false,"strokes":[]},"media_path":"","multi_camera_info":null,"object_locked":null,"origin_material_id":"","path":"F:/Tiktok_Video/250520/1_Woman’s Unexplained Shivers #fyp #movie #foryoupage #comedia.mp4","picture_from":"none","picture_set_category_id":"","picture_set_category_name":"","request_id":"","reverse_intensifies_path":"","reverse_path":"","smart_match_info":null,"smart_motion":null,"source":0,"source_platform":0,"stable":{"matrix_path":"","stable_level":0,"time_range":{"duration":0,"start":0}},"team_id":"","type":"video","video_algorithm":{"ai_background_configs":[],"ai_expression_driven":null,"ai_motion_driven":null,"aigc_generate":null,"algorithms":[],"complement_frame_config":null,"deflicker":null,"gameplay_configs":[],"motion_blur_config":null,"mouth_shape_driver":null,"noise_reduction":null,"path":"","quality_enhance":null,"smart_complement_frame":null,"super_resolution":null,"time_range":{"duration":7333333,"start":44300000}},"width":1080},{"aigc_history_id":"","aigc_item_id":"","aigc_type":"none","audio_fade":null,"beauty_body_preset_id":"","beauty_face_auto_preset":{"name":"","preset_id":"","rate_map":""},"beauty_face_auto_preset_infos":[],"beauty_face_preset_infos":[],"cartoon_path":"","category_id":"","category_name":"","check_flag":188807167,"crop":{"lower_left_x":0.0,"lower_left_y":1.0,"lower_right_x":1.0,"lower_right_y":1.0,"upper_left_x":0.0,"upper_left_y":0.0,"upper_right_x":1.0,"upper_right_y":0.0},"crop_ratio":"free","crop_scale":1.0,"duration":60000000,"extra_type_option":8,"formula_id":"","freeze":null,"has_audio":true,"has_sound_separated":false,"height":1920,"id":"CEDEF6A7-A159-45dc-90F6-32E2EAC16D0C","intensifies_audio_path":"","intensifies_path":"","is_ai_generate_content":false,"is_copyright":false,"is_text_edit_overdub":false,"is_unified_beauty_mode":false,"live_photo_cover_path":"","live_photo_timestamp":-1,"local_id":"","local_material_from":"","local_material_id":"","material_id":"","material_name":"1_Woman’s Unexplained Shivers #fyp #movie #foryoupage #comedia.mp4","material_url":"","matting":{"custom_matting_id":"","enable_matting_stroke":false,"expansion":0,"feather":0,"flag":0,"has_use_quick_brush":false,"has_use_quick_eraser":false,"interactiveTime":[],"path":"","reverse":false,"strokes":[]},"media_path":"","multi_camera_info":null,"object_locked":null,"origin_material_id":"","path":"F:/Tiktok_Video/250520/1_Woman’s Unexplained Shivers #fyp #movie #foryoupage #comedia.mp4","picture_from":"none","picture_set_category_id":"","picture_set_category_name":"","request_id":"","reverse_intensifies_path":"","reverse_path":"","smart_match_info":null,"smart_motion":null,"source":0,"source_platform":0,"stable":{"matrix_path":"","stable_level":0,"time_range":{"duration":0,"start":0}},"team_id":"","type":"video","video_algorithm":{"ai_background_configs":[],"ai_expression_driven":null,"ai_motion_driven":null,"aigc_generate":null,"algorithms":[],"complement_frame_config":null,"deflicker":null,"gameplay_configs":[],"motion_blur_config":null,"mouth_shape_driver":null,"noise_reduction":null,"path":"","quality_enhance":null,"smart_complement_frame":null,"super_resolution":null,"time_range":{"duration":6733333,"start":45633333}},"width":1080},{"aigc_history_id":"","aigc_item_id":"","aigc_type":"none","audio_fade":null,"beauty_body_preset_id":"","beauty_face_auto_preset":{"name":"","preset_id":"","rate_map":""},"beauty_face_auto_preset_infos":[],"beauty_face_preset_infos":[],"cartoon_path":"","category_id":"","category_name":"","check_flag":188807167,"crop":{"lower_left_x":0.0,"lower_left_y":1.0,"lower_right_x":1.0,"lower_right_y":1.0,"upper_left_x":0.0,"upper_left_y":0.0,"upper_right_x":1.0,"upper_right_y":0.0},"crop_ratio":"free","crop_scale":1.0,"duration":60000000,"extra_type_option":8,"formula_id":"","freeze":null,"has_audio":true,"has_sound_separated":false,"height":1920,"id":"8F9CD28C-5D14-432f-B99E-61BEA2698C41","intensifies_audio_path":"","intensifies_path":"","is_ai_generate_content":false,"is_copyright":false,"is_text_edit_overdub":false,"is_unified_beauty_mode":false,"live_photo_cover_path":"","live_photo_timestamp":-1,"local_id":"","local_material_from":"","local_material_id":"","material_id":"","material_name":"1_Woman’s Unexplained Shivers #fyp #movie #foryoupage #comedia.mp4","material_url":"","matting":{"custom_matting_id":"","enable_matting_stroke":false,"expansion":0,"feather":0,"flag":0,"has_use_quick_brush":false,"has_use_quick_eraser":false,"interactiveTime":[],"path":"","reverse":false,"strokes":[]},"media_path":"","multi_camera_info":null,"object_locked":null,"origin_material_id":"","path":"F:/Tiktok_Video/250520/1_Woman’s Unexplained Shivers #fyp #movie #foryoupage #comedia.mp4","picture_from":"none","picture_set_category_id":"","picture_set_category_name":"","request_id":"","reverse_intensifies_path":"","reverse_path":"","smart_match_info":null,"smart_motion":null,"source":0,"source_platform":0,"stable":{"matrix_path":"","stable_level":0,"time_range":{"duration":0,"start":0}},"team_id":"","type":"video","video_algorithm":{"ai_background_configs":[],"ai_expression_driven":null,"ai_motion_driven":null,"aigc_generate":null,"algorithms":[],"complement_frame_config":null,"deflicker":null,"gameplay_configs":[],"motion_blur_config":null,"mouth_shape_driver":null,"noise_reduction":null,"path":"","quality_enhance":null,"smart_complement_frame":null,"super_resolution":null,"time_range":{"duration":6766667,"start":46366666}},"width":1080},{"aigc_history_id":"","aigc_item_id":"","aigc_type":"none","audio_fade":null,"beauty_body_preset_id":"","beauty_face_auto_preset":{"name":"","preset_id":"","rate_map":""},"beauty_face_auto_preset_infos":[],"beauty_face_preset_infos":[],"cartoon_path":"","category_id":"","category_name":"","check_flag":188807167,"crop":{"lower_left_x":0.0,"lower_left_y":1.0,"lower_right_x":1.0,"lower_right_y":1.0,"upper_left_x":0.0,"upper_left_y":0.0,"upper_right_x":1.0,"upper_right_y":0.0},"crop_ratio":"free","crop_scale":1.0,"duration":60000000,"extra_type_option":8,"formula_id":"","freeze":null,"has_audio":true,"has_sound_separated":false,"height":1920,"id":"7585E522-D254-4d67-B33D-C184FF7ACF65","intensifies_audio_path":"","intensifies_path":"","is_ai_generate_content":false,"is_copyright":false,"is_text_edit_overdub":false,"is_unified_beauty_mode":false,"live_photo_cover_path":"","live_photo_timestamp":-1,"local_id":"","local_material_from":"","local_material_id":"","material_id":"","material_name":"1_Woman’s Unexplained Shivers #fyp #movie #foryoupage #comedia.mp4","material_url":"","matting":{"custom_matting_id":"","enable_matting_stroke":false,"expansion":0,"feather":0,"flag":0,"has_use_quick_brush":false,"has_use_quick_eraser":false,"interactiveTime":[],"path":"","reverse":false,"strokes":[]},"media_path":"","multi_camera_info":null,"object_locked":null,"origin_material_id":"","path":"F:/Tiktok_Video/250520/1_Woman’s Unexplained Shivers #fyp #movie #foryoupage #comedia.mp4","picture_from":"none","picture_set_category_id":"","picture_set_category_name":"","request_id":"","reverse_intensifies_path":"","reverse_path":"","smart_match_info":null,"smart_motion":null,"source":0,"source_platform":0,"stable":{"matrix_path":"","stable_level":0,"time_range":{"duration":0,"start":0}},"team_id":"","type":"video","video_algorithm":{"ai_background_configs":[],"ai_expression_driven":null,"ai_motion_driven":null,"aigc_generate":null,"algorithms":[],"complement_frame_config":null,"deflicker":null,"gameplay_configs":[],"motion_blur_config":null,"mouth_shape_driver":null,"noise_reduction":null,"path":"","quality_enhance":null,"smart_complement_frame":null,"super_resolution":null,"time_range":{"duration":9333333,"start":47133333}},"width":1080},{"aigc_history_id":"","aigc_item_id":"","aigc_type":"none","audio_fade":null,"beauty_body_preset_id":"","beauty_face_auto_preset":{"name":"","preset_id":"","rate_map":""},"beauty_face_auto_preset_infos":[],"beauty_face_preset_infos":[],"cartoon_path":"","category_id":"","category_name":"","check_flag":188807167,"crop":{"lower_left_x":0.0,"lower_left_y":1.0,"lower_right_x":1.0,"lower_right_y":1.0,"upper_left_x":0.0,"upper_left_y":0.0,"upper_right_x":1.0,"upper_right_y":0.0},"crop_ratio":"free","crop_scale":1.0,"duration":60000000,"extra_type_option":8,"formula_id":"","freeze":null,"has_audio":true,"has_sound_separated":false,"height":1920,"id":"D6C86990-8B0E-4feb-9731-B38C4D9E496F","intensifies_audio_path":"","intensifies_path":"","is_ai_generate_content":false,"is_copyright":false,"is_text_edit_overdub":false,"is_unified_beauty_mode":false,"live_photo_cover_path":"","live_photo_timestamp":-1,"local_id":"","local_material_from":"","local_material_id":"","material_id":"","material_name":"1_Woman’s Unexplained Shivers #fyp #movie #foryoupage #comedia.mp4","material_url":"","matting":{"custom_matting_id":"","enable_matting_stroke":false,"expansion":0,"feather":0,"flag":0,"has_use_quick_brush":false,"has_use_quick_eraser":false,"interactiveTime":[],"path":"","reverse":false,"strokes":[]},"media_path":"","multi_camera_info":null,"object_locked":null,"origin_material_id":"","path":"F:/Tiktok_Video/250520/1_Woman’s Unexplained Shivers #fyp #movie #foryoupage #comedia.mp4","picture_from":"none","picture_set_category_id":"","picture_set_category_name":"","request_id":"","reverse_intensifies_path":"","reverse_path":"","smart_match_info":null,"smart_motion":null,"source":0,"source_platform":0,"stable":{"matrix_path":"","stable_level":0,"time_range":{"duration":0,"start":0}},"team_id":"","type":"video","video_algorithm":{"ai_background_configs":[],"ai_expression_driven":null,"ai_motion_driven":null,"aigc_generate":null,"algorithms":[],"complement_frame_config":null,"deflicker":null,"gameplay_configs":[],"motion_blur_config":null,"mouth_shape_driver":null,"noise_reduction":null,"path":"","quality_enhance":null,"smart_complement_frame":null,"super_resolution":null,"time_range":{"duration":7433334,"start":50466666}},"width":1080},{"aigc_history_id":"","aigc_item_id":"","aigc_type":"none","audio_fade":null,"beauty_body_preset_id":"","beauty_face_auto_preset":{"name":"","preset_id":"","rate_map":""},"beauty_face_auto_preset_infos":[],"beauty_face_preset_infos":[],"cartoon_path":"","category_id":"","category_name":"","check_flag":188807167,"crop":{"lower_left_x":0.0,"lower_left_y":1.0,"lower_right_x":1.0,"lower_right_y":1.0,"upper_left_x":0.0,"upper_left_y":0.0,"upper_right_x":1.0,"upper_right_y":0.0},"crop_ratio":"free","crop_scale":1.0,"duration":60000000,"extra_type_option":8,"formula_id":"","freeze":null,"has_audio":true,"has_sound_separated":false,"height":1920,"id":"190EBD7D-1E42-4e24-8315-AC7A5A9F126F","intensifies_audio_path":"","intensifies_path":"","is_ai_generate_content":false,"is_copyright":false,"is_text_edit_overdub":false,"is_unified_beauty_mode":false,"live_photo_cover_path":"","live_photo_timestamp":-1,"local_id":"","local_material_from":"","local_material_id":"","material_id":"","material_name":"1_Woman’s Unexplained Shivers #fyp #movie #foryoupage #comedia.mp4","material_url":"","matting":{"custom_matting_id":"","enable_matting_stroke":false,"expansion":0,"feather":0,"flag":0,"has_use_quick_brush":false,"has_use_quick_eraser":false,"interactiveTime":[],"path":"","reverse":false,"strokes":[]},"media_path":"","multi_camera_info":null,"object_locked":null,"origin_material_id":"","path":"F:/Tiktok_Video/250520/1_Woman’s Unexplained Shivers #fyp #movie #foryoupage #comedia.mp4","picture_from":"none","picture_set_category_id":"","picture_set_category_name":"","request_id":"","reverse_intensifies_path":"","reverse_path":"","smart_match_info":null,"smart_motion":null,"source":0,"source_platform":0,"stable":{"matrix_path":"","stable_level":0,"time_range":{"duration":0,"start":0}},"team_id":"","type":"video","video_algorithm":{"ai_background_configs":[],"ai_expression_driven":null,"ai_motion_driven":null,"aigc_generate":null,"algorithms":[],"complement_frame_config":null,"deflicker":null,"gameplay_configs":[],"motion_blur_config":null,"mouth_shape_driver":null,"noise_reduction":null,"path":"","quality_enhance":null,"smart_complement_frame":null,"super_resolution":null,"time_range":{"duration":8100000,"start":51900000}},"width":1080},{"aigc_history_id":"","aigc_item_id":"","aigc_type":"none","audio_fade":null,"beauty_body_preset_id":"","beauty_face_auto_preset":{"name":"","preset_id":"","rate_map":""},"beauty_face_auto_preset_infos":[],"beauty_face_preset_infos":[],"cartoon_path":"","category_id":"","category_name":"","check_flag":188807167,"crop":{"lower_left_x":0.0,"lower_left_y":1.0,"lower_right_x":1.0,"lower_right_y":1.0,"upper_left_x":0.0,"upper_left_y":0.0,"upper_right_x":1.0,"upper_right_y":0.0},"crop_ratio":"free","crop_scale":1.0,"duration":60000000,"extra_type_option":8,"formula_id":"","freeze":null,"has_audio":true,"has_sound_separated":false,"height":1920,"id":"85FF93F3-BA07-47f6-8895-4E657A7F1ECC","intensifies_audio_path":"","intensifies_path":"","is_ai_generate_content":false,"is_copyright":false,"is_text_edit_overdub":false,"is_unified_beauty_mode":false,"live_photo_cover_path":"","live_photo_timestamp":-1,"local_id":"","local_material_from":"","local_material_id":"","material_id":"","material_name":"1_Woman’s Unexplained Shivers #fyp #movie #foryoupage #comedia.mp4","material_url":"","matting":{"custom_matting_id":"","enable_matting_stroke":false,"expansion":0,"feather":0,"flag":0,"has_use_quick_brush":false,"has_use_quick_eraser":false,"interactiveTime":[],"path":"","reverse":false,"strokes":[]},"media_path":"","multi_camera_info":null,"object_locked":null,"origin_material_id":"","path":"F:/Tiktok_Video/250520/1_Woman’s Unexplained Shivers #fyp #movie #foryoupage #comedia.mp4","picture_from":"none","picture_set_category_id":"","picture_set_category_name":"","request_id":"","reverse_intensifies_path":"","reverse_path":"","smart_match_info":null,"smart_motion":null,"source":0,"source_platform":0,"stable":{"matrix_path":"","stable_level":0,"time_range":{"duration":0,"start":0}},"team_id":"","type":"video","video_algorithm":{"ai_background_configs":[],"ai_expression_driven":null,"ai_motion_driven":null,"aigc_generate":null,"algorithms":[],"complement_frame_config":null,"deflicker":null,"gameplay_configs":[],"motion_blur_config":null,"mouth_shape_driver":null,"noise_reduction":null,"path":"","quality_enhance":null,"smart_complement_frame":null,"super_resolution":null,"time_range":{"duration":5900000,"start":54100000}},"width":1080},{"aigc_history_id":"","aigc_item_id":"","aigc_type":"none","audio_fade":null,"beauty_body_preset_id":"","beauty_face_auto_preset":{"name":"","preset_id":"","rate_map":""},"beauty_face_auto_preset_infos":[],"beauty_face_preset_infos":[],"cartoon_path":"","category_id":"","category_name":"","check_flag":188807167,"crop":{"lower_left_x":0.0,"lower_left_y":1.0,"lower_right_x":1.0,"lower_right_y":1.0,"upper_left_x":0.0,"upper_left_y":0.0,"upper_right_x":1.0,"upper_right_y":0.0},"crop_ratio":"free","crop_scale":1.0,"duration":60000000,"extra_type_option":8,"formula_id":"","freeze":null,"has_audio":true,"has_sound_separated":false,"height":1920,"id":"F34840CA-4116-4818-9719-DABA08497DCF","intensifies_audio_path":"","intensifies_path":"","is_ai_generate_content":false,"is_copyright":false,"is_text_edit_overdub":false,"is_unified_beauty_mode":false,"live_photo_cover_path":"","live_photo_timestamp":-1,"local_id":"","local_material_from":"","local_material_id":"","material_id":"","material_name":"1_Woman’s Unexplained Shivers #fyp #movie #foryoupage #comedia.mp4","material_url":"","matting":{"custom_matting_id":"","enable_matting_stroke":false,"expansion":0,"feather":0,"flag":0,"has_use_quick_brush":false,"has_use_quick_eraser":false,"interactiveTime":[],"path":"","reverse":false,"strokes":[]},"media_path":"","multi_camera_info":null,"object_locked":null,"origin_material_id":"","path":"F:/Tiktok_Video/250520/1_Woman’s Unexplained Shivers #fyp #movie #foryoupage #comedia.mp4","picture_from":"none","picture_set_category_id":"","picture_set_category_name":"","request_id":"","reverse_intensifies_path":"","reverse_path":"","smart_match_info":null,"smart_motion":null,"source":0,"source_platform":0,"stable":{"matrix_path":"","stable_level":0,"time_range":{"duration":0,"start":0}},"team_id":"","type":"video","video_algorithm":{"ai_background_configs":[],"ai_expression_driven":null,"ai_motion_driven":null,"aigc_generate":null,"algorithms":[],"complement_frame_config":null,"deflicker":null,"gameplay_configs":[],"motion_blur_config":null,"mouth_shape_driver":null,"noise_reduction":null,"path":"","quality_enhance":null,"smart_complement_frame":null,"super_resolution":null,"time_range":{"duration":3966667,"start":56033333}},"width":1080},{"aigc_history_id":"","aigc_item_id":"","aigc_type":"none","audio_fade":null,"beauty_body_preset_id":"","beauty_face_auto_preset":{"name":"","preset_id":"","rate_map":""},"beauty_face_auto_preset_infos":[],"beauty_face_preset_infos":[],"cartoon_path":"","category_id":"","category_name":"","check_flag":62978047,"crop":{"lower_left_x":0.0,"lower_left_y":1.0,"lower_right_x":1.0,"lower_right_y":1.0,"upper_left_x":0.0,"upper_left_y":0.0,"upper_right_x":1.0,"upper_right_y":0.0},"crop_ratio":"free","crop_scale":1.0,"duration":6703966666,"extra_type_option":0,"formula_id":"","freeze":null,"has_audio":true,"has_sound_separated":false,"height":1024,"id":"DCDBD8E6-8A62-4050-8B95-1DFE93E3768B","intensifies_audio_path":"","intensifies_path":"","is_ai_generate_content":false,"is_copyright":false,"is_text_edit_overdub":false,"is_unified_beauty_mode":false,"live_photo_cover_path":"","live_photo_timestamp":-1,"local_id":"","local_material_from":"","local_material_id":"","material_id":"","material_name":"Casa.Amor.Exclusive.For.Ladies.2015.1080p.WEBRip.x264.AAC-[YTS.MX].mp4","material_url":"","matting":{"custom_matting_id":"","enable_matting_stroke":false,"expansion":0,"feather":0,"flag":0,"has_use_quick_brush":false,"has_use_quick_eraser":false,"interactiveTime":[],"path":"","reverse":false,"strokes":[]},"media_path":"","multi_camera_info":null,"object_locked":null,"origin_material_id":"","path":"E:/movice/0415/Casa.Amor.Exclusive.For.Ladies.2015.1080p.WEBRip.x264.AAC-[YTS.MX].mp4","picture_from":"none","picture_set_category_id":"","picture_set_category_name":"","request_id":"","reverse_intensifies_path":"","reverse_path":"","smart_match_info":null,"smart_motion":null,"source":0,"source_platform":0,"stable":{"matrix_path":"","stable_level":0,"time_range":{"duration":0,"start":0}},"team_id":"","type":"video","video_algorithm":{"ai_background_configs":[],"ai_expression_driven":null,"ai_motion_driven":null,"aigc_generate":null,"algorithms":[],"complement_frame_config":null,"deflicker":null,"gameplay_configs":[],"motion_blur_config":null,"mouth_shape_driver":null,"noise_reduction":null,"path":"","quality_enhance":null,"smart_complement_frame":null,"super_resolution":null,"time_range":null},"width":1920}],"vocal_beautifys":[],"vocal_separations":[{"choice":0,"id":"E79992B3-1204-4d14-879C-E7FB002BE0BD","production_path":"##_draftpath_placeholder_0E685133-18CE-45ED-8CB8-2904A212EC80_##/Resources/audioAlg/803fa5714aee0e4acf835bbfabbb3380_0_60000000.wav","removed_sounds":["human"],"time_range":{"duration":60000000,"start":0},"type":"vocal_separation"},{"choice":0,"id":"CCD51A59-4421-421e-907F-7F2ACE36C278","production_path":"##_draftpath_placeholder_0E685133-18CE-45ED-8CB8-2904A212EC80_##/Resources/audioAlg/803fa5714aee0e4acf835bbfabbb3380_0_60000000.wav","removed_sounds":["human"],"time_range":{"duration":60000000,"start":0},"type":"vocal_separation"},{"choice":0,"id":"AA0244A0-54FF-470d-A3AD-2DDF3CEBBA66","production_path":"##_draftpath_placeholder_0E685133-18CE-45ED-8CB8-2904A212EC80_##/Resources/audioAlg/803fa5714aee0e4acf835bbfabbb3380_0_60000000.wav","removed_sounds":["human"],"time_range":{"duration":60000000,"start":0},"type":"vocal_separation"},{"choice":0,"id":"C109610F-42C6-4005-BB27-156978A65D8C","production_path":"##_draftpath_placeholder_0E685133-18CE-45ED-8CB8-2904A212EC80_##/Resources/audioAlg/803fa5714aee0e4acf835bbfabbb3380_0_60000000.wav","removed_sounds":["human"],"time_range":{"duration":60000000,"start":0},"type":"vocal_separation"},{"choice":0,"id":"BB49E044-2B0D-495f-BB51-499B6D834139","production_path":"##_draftpath_placeholder_0E685133-18CE-45ED-8CB8-2904A212EC80_##/Resources/audioAlg/803fa5714aee0e4acf835bbfabbb3380_0_60000000.wav","removed_sounds":["human"],"time_range":{"duration":60000000,"start":0},"type":"vocal_separation"},{"choice":0,"id":"45D976BD-3608-4fb4-A512-59BAF71B15C7","production_path":"##_draftpath_placeholder_0E685133-18CE-45ED-8CB8-2904A212EC80_##/Resources/audioAlg/803fa5714aee0e4acf835bbfabbb3380_0_60000000.wav","removed_sounds":["human"],"time_range":{"duration":60000000,"start":0},"type":"vocal_separation"},{"choice":0,"id":"2DD86393-A431-4a01-99E5-E7FEFABF50F4","production_path":"##_draftpath_placeholder_0E685133-18CE-45ED-8CB8-2904A212EC80_##/Resources/audioAlg/803fa5714aee0e4acf835bbfabbb3380_0_60000000.wav","removed_sounds":["human"],"time_range":{"duration":60000000,"start":0},"type":"vocal_separation"},{"choice":0,"id":"EBBF1FC1-D9EA-4006-840B-8E05C0554A00","production_path":"##_draftpath_placeholder_0E685133-18CE-45ED-8CB8-2904A212EC80_##/Resources/audioAlg/803fa5714aee0e4acf835bbfabbb3380_0_60000000.wav","removed_sounds":["human"],"time_range":{"duration":60000000,"start":0},"type":"vocal_separation"},{"choice":0,"id":"9A5949DB-8EA6-4a87-BEE6-A854DDAC3740","production_path":"##_draftpath_placeholder_0E685133-18CE-45ED-8CB8-2904A212EC80_##/Resources/audioAlg/803fa5714aee0e4acf835bbfabbb3380_0_60000000.wav","removed_sounds":["human"],"time_range":{"duration":60000000,"start":0},"type":"vocal_separation"},{"choice":0,"id":"DC83393D-DDCF-426d-9426-E75CF3B5BBC0","production_path":"##_draftpath_placeholder_0E685133-18CE-45ED-8CB8-2904A212EC80_##/Resources/audioAlg/803fa5714aee0e4acf835bbfabbb3380_0_60000000.wav","removed_sounds":["human"],"time_range":{"duration":60000000,"start":0},"type":"vocal_separation"},{"choice":0,"id":"18BA9065-8311-4ee8-8DBA-BA00FD0AA93D","production_path":"##_draftpath_placeholder_0E685133-18CE-45ED-8CB8-2904A212EC80_##/Resources/audioAlg/803fa5714aee0e4acf835bbfabbb3380_0_60000000.wav","removed_sounds":["human"],"time_range":{"duration":60000000,"start":0},"type":"vocal_separation"},{"choice":0,"id":"7C2F023E-C45B-49d7-A169-CFBB7EB05503","production_path":"##_draftpath_placeholder_0E685133-18CE-45ED-8CB8-2904A212EC80_##/Resources/audioAlg/803fa5714aee0e4acf835bbfabbb3380_0_60000000.wav","removed_sounds":["human"],"time_range":{"duration":60000000,"start":0},"type":"vocal_separation"},{"choice":0,"id":"B544C083-DC46-476c-92C5-ABD5A05785C7","production_path":"##_draftpath_placeholder_0E685133-18CE-45ED-8CB8-2904A212EC80_##/Resources/audioAlg/803fa5714aee0e4acf835bbfabbb3380_0_60000000.wav","removed_sounds":["human"],"time_range":{"duration":60000000,"start":0},"type":"vocal_separation"},{"choice":0,"id":"9F1B77D1-E501-4f59-9FFA-EA1ECF861490","production_path":"##_draftpath_placeholder_0E685133-18CE-45ED-8CB8-2904A212EC80_##/Resources/audioAlg/803fa5714aee0e4acf835bbfabbb3380_0_60000000.wav","removed_sounds":["human"],"time_range":{"duration":60000000,"start":0},"type":"vocal_separation"},{"choice":0,"id":"584D4DCB-43C6-4eb5-A939-76256794363A","production_path":"##_draftpath_placeholder_0E685133-18CE-45ED-8CB8-2904A212EC80_##/Resources/audioAlg/803fa5714aee0e4acf835bbfabbb3380_0_60000000.wav","removed_sounds":["human"],"time_range":{"duration":60000000,"start":0},"type":"vocal_separation"},{"choice":0,"id":"77736D74-9510-41f4-8950-843E37E23836","production_path":"##_draftpath_placeholder_0E685133-18CE-45ED-8CB8-2904A212EC80_##/Resources/audioAlg/803fa5714aee0e4acf835bbfabbb3380_0_60000000.wav","removed_sounds":["human"],"time_range":{"duration":60000000,"start":0},"type":"vocal_separation"},{"choice":0,"id":"D8D0C08F-EACB-4c7f-98C8-B5FB6D249663","production_path":"##_draftpath_placeholder_0E685133-18CE-45ED-8CB8-2904A212EC80_##/Resources/audioAlg/803fa5714aee0e4acf835bbfabbb3380_0_60000000.wav","removed_sounds":["human"],"time_range":{"duration":60000000,"start":0},"type":"vocal_separation"},{"choice":0,"id":"9F4056DC-B1D9-4358-AC5A-F81129536A74","production_path":"##_draftpath_placeholder_0E685133-18CE-45ED-8CB8-2904A212EC80_##/Resources/audioAlg/803fa5714aee0e4acf835bbfabbb3380_0_60000000.wav","removed_sounds":["human"],"time_range":{"duration":60000000,"start":0},"type":"vocal_separation"},{"choice":0,"id":"D39DED90-BE9F-45fc-94D7-D138FE756D34","production_path":"##_draftpath_placeholder_0E685133-18CE-45ED-8CB8-2904A212EC80_##/Resources/audioAlg/803fa5714aee0e4acf835bbfabbb3380_0_60000000.wav","removed_sounds":["human"],"time_range":{"duration":60000000,"start":0},"type":"vocal_separation"},{"choice":0,"id":"BBB2BCE2-8728-4a52-B6D9-80CD195F01C8","production_path":"##_draftpath_placeholder_0E685133-18CE-45ED-8CB8-2904A212EC80_##/Resources/audioAlg/803fa5714aee0e4acf835bbfabbb3380_0_60000000.wav","removed_sounds":["human"],"time_range":{"duration":60000000,"start":0},"type":"vocal_separation"},{"choice":0,"id":"133EE880-706A-4aaf-A0F9-93AC9EA72FEA","production_path":"##_draftpath_placeholder_0E685133-18CE-45ED-8CB8-2904A212EC80_##/Resources/audioAlg/803fa5714aee0e4acf835bbfabbb3380_0_60000000.wav","removed_sounds":["human"],"time_range":{"duration":60000000,"start":0},"type":"vocal_separation"},{"choice":0,"id":"6A230580-466B-4b5e-A664-A8D8FBAFB4EC","production_path":"##_draftpath_placeholder_0E685133-18CE-45ED-8CB8-2904A212EC80_##/Resources/audioAlg/803fa5714aee0e4acf835bbfabbb3380_0_60000000.wav","removed_sounds":["human"],"time_range":{"duration":60000000,"start":0},"type":"vocal_separation"},{"choice":0,"id":"CEA15F1E-24AB-46d1-9E86-7E6E9E7F431F","production_path":"##_draftpath_placeholder_0E685133-18CE-45ED-8CB8-2904A212EC80_##/Resources/audioAlg/803fa5714aee0e4acf835bbfabbb3380_0_60000000.wav","removed_sounds":["human"],"time_range":{"duration":60000000,"start":0},"type":"vocal_separation"},{"choice":0,"id":"0C9AD144-5AE5-43b4-B14B-6A855C70465B","production_path":"##_draftpath_placeholder_0E685133-18CE-45ED-8CB8-2904A212EC80_##/Resources/audioAlg/803fa5714aee0e4acf835bbfabbb3380_0_60000000.wav","removed_sounds":["human"],"time_range":{"duration":60000000,"start":0},"type":"vocal_separation"},{"choice":0,"id":"1E403291-863B-4280-AA1B-6DFFF91C3B9D","production_path":"##_draftpath_placeholder_0E685133-18CE-45ED-8CB8-2904A212EC80_##/Resources/audioAlg/803fa5714aee0e4acf835bbfabbb3380_0_60000000.wav","removed_sounds":["human"],"time_range":{"duration":60000000,"start":0},"type":"vocal_separation"},{"choice":0,"id":"44C3F065-A5AB-45ea-8F24-1A793885B4F8","production_path":"##_draftpath_placeholder_0E685133-18CE-45ED-8CB8-2904A212EC80_##/Resources/audioAlg/803fa5714aee0e4acf835bbfabbb3380_0_60000000.wav","removed_sounds":["human"],"time_range":{"duration":60000000,"start":0},"type":"vocal_separation"},{"choice":0,"id":"6087377A-AAF2-47de-890A-A5CBCA25BCBB","production_path":"##_draftpath_placeholder_0E685133-18CE-45ED-8CB8-2904A212EC80_##/Resources/audioAlg/803fa5714aee0e4acf835bbfabbb3380_0_60000000.wav","removed_sounds":["human"],"time_range":{"duration":60000000,"start":0},"type":"vocal_separation"},{"choice":0,"id":"7AF1D55D-AA91-45e3-8ABC-240E0283EADC","production_path":"##_draftpath_placeholder_0E685133-18CE-45ED-8CB8-2904A212EC80_##/Resources/audioAlg/803fa5714aee0e4acf835bbfabbb3380_0_60000000.wav","removed_sounds":["human"],"time_range":{"duration":60000000,"start":0},"type":"vocal_separation"},{"choice":0,"id":"E9268C86-013E-4863-B8AE-3E00846FE297","production_path":"##_draftpath_placeholder_0E685133-18CE-45ED-8CB8-2904A212EC80_##/Resources/audioAlg/803fa5714aee0e4acf835bbfabbb3380_0_60000000.wav","removed_sounds":["human"],"time_range":{"duration":60000000,"start":0},"type":"vocal_separation"},{"choice":0,"id":"5C1C1EA7-146D-4d8b-87F4-3B464D1FE4EC","production_path":"##_draftpath_placeholder_0E685133-18CE-45ED-8CB8-2904A212EC80_##/Resources/audioAlg/803fa5714aee0e4acf835bbfabbb3380_0_60000000.wav","removed_sounds":["human"],"time_range":{"duration":60000000,"start":0},"type":"vocal_separation"},{"choice":0,"id":"2C4E4200-D653-49a7-9962-C2B87B03D44D","production_path":"##_draftpath_placeholder_0E685133-18CE-45ED-8CB8-2904A212EC80_##/Resources/audioAlg/803fa5714aee0e4acf835bbfabbb3380_0_60000000.wav","removed_sounds":["human"],"time_range":{"duration":60000000,"start":0},"type":"vocal_separation"},{"choice":0,"id":"A3CF7EC3-0917-4928-A7A7-88A02CD6870D","production_path":"##_draftpath_placeholder_0E685133-18CE-45ED-8CB8-2904A212EC80_##/Resources/audioAlg/803fa5714aee0e4acf835bbfabbb3380_0_60000000.wav","removed_sounds":["human"],"time_range":{"duration":60000000,"start":0},"type":"vocal_separation"},{"choice":0,"id":"7E4553F3-7196-4fb0-A8C0-806569ECFCA5","production_path":"##_draftpath_placeholder_0E685133-18CE-45ED-8CB8-2904A212EC80_##/Resources/audioAlg/803fa5714aee0e4acf835bbfabbb3380_0_60000000.wav","removed_sounds":["human"],"time_range":{"duration":60000000,"start":0},"type":"vocal_separation"},{"choice":0,"id":"A4D1E42C-8812-4dba-8C40-B8D452C6F3DD","production_path":"##_draftpath_placeholder_0E685133-18CE-45ED-8CB8-2904A212EC80_##/Resources/audioAlg/803fa5714aee0e4acf835bbfabbb3380_0_60000000.wav","removed_sounds":["human"],"time_range":{"duration":60000000,"start":0},"type":"vocal_separation"},{"choice":0,"id":"2BD8C80A-CA84-45d7-A544-5851DE357EEC","production_path":"##_draftpath_placeholder_0E685133-18CE-45ED-8CB8-2904A212EC80_##/Resources/audioAlg/803fa5714aee0e4acf835bbfabbb3380_0_60000000.wav","removed_sounds":["human"],"time_range":{"duration":60000000,"start":0},"type":"vocal_separation"},{"choice":0,"id":"82B19FAE-3EC8-4099-AC0E-31D7C806ADF5","production_path":"##_draftpath_placeholder_0E685133-18CE-45ED-8CB8-2904A212EC80_##/Resources/audioAlg/803fa5714aee0e4acf835bbfabbb3380_0_60000000.wav","removed_sounds":["human"],"time_range":{"duration":60000000,"start":0},"type":"vocal_separation"},{"choice":0,"id":"B61A155C-4860-49c9-8898-B3D3DD35EF70","production_path":"","removed_sounds":[],"time_range":null,"type":"vocal_separation"}]},"mutable_config":null,"name":"","new_version":"132.0.0","path":"","platform":{"app_id":3704,"app_source":"lv","app_version":"5.5.0","device_id":"5b4712a9c85e8f565cb954c5534ed4b4","hard_disk_id":"af232b8aa166cf07e93db8e50d3c5356","mac_address":"b3f7f658d0c0d0adc42ff2b63f532607","os":"windows","os_version":"10.0.22631"},"relationships":[],"render_index_track_mode_on":false,"retouch_cover":null,"source":"default","static_cover_image_path":"","time_marks":null,"tracks":[{"attribute":1,"flag":0,"id":"075EA006-569B-48a1-88B1-3674A01CF498","is_default_name":true,"name":"","segments":[{"caption_info":null,"cartoon":false,"clip":{"alpha":1.0,"flip":{"horizontal":false,"vertical":false},"rotation":0.0,"scale":{"x":1.0,"y":1.0},"transform":{"x":0.0,"y":0.0}},"color_correct_alg_result":"","common_keyframes":[],"desc":"","digital_human_template_group_id":"","enable_adjust":true,"enable_adjust_mask":false,"enable_color_correct_adjust":false,"enable_color_curves":true,"enable_color_match_adjust":false,"enable_color_wheels":true,"enable_hsl":false,"enable_lut":true,"enable_smart_color_adjust":false,"enable_video_mask":true,"extra_material_refs":["6C41644F-B7C7-41df-A7A4-3D6EA96B9070","782008F5-A4FD-457a-ACB0-14FF19034A84","BF6A4AD1-FB9D-4bc2-9FB2-7A221E55ED1A","73EF8BA4-3469-48ab-B277-B1A96D5A45C1","E79992B3-1204-4d14-879C-E7FB002BE0BD"],"group_id":"","hdr_settings":{"intensity":1.0,"mode":1,"nits":1000},"id":"079F475C-CE8F-4ccd-BFA6-95805808EDC5","intensifies_audio":false,"is_loop":false,"is_placeholder":false,"is_tone_modify":false,"keyframe_refs":[],"last_nonzero_volume":1.0,"lyric_keyframes":null,"material_id":"34AF00C0-862A-4c21-9FDF-7EDD11974769","raw_segment_id":"","render_index":0,"render_timerange":{"duration":0,"start":0},"responsive_layout":{"enable":false,"horizontal_pos_layout":0,"size_layout":0,"target_follow":"","vertical_pos_layout":0},"reverse":false,"source_timerange":{"duration":7066666,"start":0},"speed":1.0,"state":0,"target_timerange":{"duration":7066666,"start":0},"template_id":"","template_scene":"default","track_attribute":1,"track_render_index":0,"uniform_scale":{"on":true,"value":1.0},"visible":true,"volume":0.0},{"caption_info":null,"cartoon":false,"clip":{"alpha":1.0,"flip":{"horizontal":false,"vertical":false},"rotation":0.0,"scale":{"x":1.0,"y":1.0},"transform":{"x":0.0,"y":0.0}},"color_correct_alg_result":"","common_keyframes":[],"desc":"","digital_human_template_group_id":"","enable_adjust":true,"enable_adjust_mask":false,"enable_color_correct_adjust":false,"enable_color_curves":true,"enable_color_match_adjust":false,"enable_color_wheels":true,"enable_hsl":false,"enable_lut":true,"enable_smart_color_adjust":false,"enable_video_mask":true,"extra_material_refs":["141FB495-91FA-4a12-96B1-78133CF6E8AD","17998859-934E-43b4-AF91-F4DACEB4E2CA","2CAD86F5-38AF-4260-8CE0-586DA9E3451A","DB22560B-879E-4814-8BFE-6FFD186D0763","CCD51A59-4421-421e-907F-7F2ACE36C278"],"group_id":"","hdr_settings":{"intensity":1.0,"mode":1,"nits":1000},"id":"8A097210-3899-4482-AF17-82A8372150A7","intensifies_audio":false,"is_loop":false,"is_placeholder":false,"is_tone_modify":false,"keyframe_refs":[],"last_nonzero_volume":1.0,"lyric_keyframes":null,"material_id":"56B6082C-E68F-45eb-AEA7-0FC3672CF0BD","raw_segment_id":"","render_index":0,"render_timerange":{"duration":0,"start":0},"responsive_layout":{"enable":false,"horizontal_pos_layout":0,"size_layout":0,"target_follow":"","vertical_pos_layout":0},"reverse":false,"source_timerange":{"duration":1166667,"start":7066666},"speed":1.0,"state":0,"target_timerange":{"duration":1166667,"start":7066666},"template_id":"","template_scene":"default","track_attribute":1,"track_render_index":0,"uniform_scale":{"on":true,"value":1.0},"visible":true,"volume":0.0},{"caption_info":null,"cartoon":false,"clip":{"alpha":1.0,"flip":{"horizontal":false,"vertical":false},"rotation":0.0,"scale":{"x":1.0,"y":1.0},"transform":{"x":0.0,"y":0.0}},"color_correct_alg_result":"","common_keyframes":[],"desc":"","digital_human_template_group_id":"","enable_adjust":true,"enable_adjust_mask":false,"enable_color_correct_adjust":false,"enable_color_curves":true,"enable_color_match_adjust":false,"enable_color_wheels":true,"enable_hsl":false,"enable_lut":true,"enable_smart_color_adjust":false,"enable_video_mask":true,"extra_material_refs":["A98C3406-3E4A-4b49-A6FF-386CD7E1C094","BA40CDEA-E0A8-41e0-901A-C6DEE33AF239","6F1ED6C5-B09B-437f-B25D-E6DD64D08A6D","51496DBF-36FC-45bd-972C-76D862E3F969","AA0244A0-54FF-470d-A3AD-2DDF3CEBBA66"],"group_id":"","hdr_settings":{"intensity":1.0,"mode":1,"nits":1000},"id":"00B568B6-4F70-49d1-8088-4995D0F02B5E","intensifies_audio":false,"is_loop":false,"is_placeholder":false,"is_tone_modify":false,"keyframe_refs":[],"last_nonzero_volume":1.0,"lyric_keyframes":null,"material_id":"14562917-4B38-4e25-98A4-A81DF20CE7E9","raw_segment_id":"","render_index":0,"render_timerange":{"duration":0,"start":0},"responsive_layout":{"enable":false,"horizontal_pos_layout":0,"size_layout":0,"target_follow":"","vertical_pos_layout":0},"reverse":false,"source_timerange":{"duration":1633333,"start":8233333},"speed":1.0,"state":0,"target_timerange":{"duration":1633333,"start":8233333},"template_id":"","template_scene":"default","track_attribute":1,"track_render_index":0,"uniform_scale":{"on":true,"value":1.0},"visible":true,"volume":0.0},{"caption_info":null,"cartoon":false,"clip":{"alpha":1.0,"flip":{"horizontal":false,"vertical":false},"rotation":0.0,"scale":{"x":1.0,"y":1.0},"transform":{"x":0.0,"y":0.0}},"color_correct_alg_result":"","common_keyframes":[],"desc":"","digital_human_template_group_id":"","enable_adjust":true,"enable_adjust_mask":false,"enable_color_correct_adjust":false,"enable_color_curves":true,"enable_color_match_adjust":false,"enable_color_wheels":true,"enable_hsl":false,"enable_lut":true,"enable_smart_color_adjust":false,"enable_video_mask":true,"extra_material_refs":["541913AD-AB73-4a7c-9C29-D265C885AF92","79EF83BB-7EED-40ab-8D78-C1F3B51AE126","E1B8C6E4-FBCD-4d39-B3AC-AD38411F4843","2170547F-1E31-4a84-B261-6095B4CD6006","C109610F-42C6-4005-BB27-156978A65D8C"],"group_id":"","hdr_settings":{"intensity":1.0,"mode":1,"nits":1000},"id":"87790286-329C-4038-AF48-3043A43E0679","intensifies_audio":false,"is_loop":false,"is_placeholder":false,"is_tone_modify":false,"keyframe_refs":[],"last_nonzero_volume":1.0,"lyric_keyframes":null,"material_id":"80ECEA1B-59D0-42a9-86D9-678814E10935","raw_segment_id":"","render_index":0,"render_timerange":{"duration":0,"start":0},"responsive_layout":{"enable":false,"horizontal_pos_layout":0,"size_layout":0,"target_follow":"","vertical_pos_layout":0},"reverse":false,"source_timerange":{"duration":900000,"start":9866666},"speed":1.0,"state":0,"target_timerange":{"duration":900000,"start":9866666},"template_id":"","template_scene":"default","track_attribute":1,"track_render_index":0,"uniform_scale":{"on":true,"value":1.0},"visible":true,"volume":0.0},{"caption_info":null,"cartoon":false,"clip":{"alpha":1.0,"flip":{"horizontal":false,"vertical":false},"rotation":0.0,"scale":{"x":1.0,"y":1.0},"transform":{"x":0.0,"y":0.0}},"color_correct_alg_result":"","common_keyframes":[],"desc":"","digital_human_template_group_id":"","enable_adjust":true,"enable_adjust_mask":false,"enable_color_correct_adjust":false,"enable_color_curves":true,"enable_color_match_adjust":false,"enable_color_wheels":true,"enable_hsl":false,"enable_lut":true,"enable_smart_color_adjust":false,"enable_video_mask":true,"extra_material_refs":["4C15DB8D-0F41-4eaf-AD11-899C3D586D45","8ABA114B-676B-4ec6-9E1F-0FEEB8A3F5F7","6A6CFAED-B4BE-473a-B0DB-37A3C8A88FC6","26C003ED-468D-4292-B2F9-88C933230B20","BB49E044-2B0D-495f-BB51-499B6D834139"],"group_id":"","hdr_settings":{"intensity":1.0,"mode":1,"nits":1000},"id":"90044D00-8868-4656-B841-B445F9EA805F","intensifies_audio":false,"is_loop":false,"is_placeholder":false,"is_tone_modify":false,"keyframe_refs":[],"last_nonzero_volume":1.0,"lyric_keyframes":null,"material_id":"F69836A4-EDD9-4501-BCAB-B97447692634","raw_segment_id":"","render_index":0,"render_timerange":{"duration":0,"start":0},"responsive_layout":{"enable":false,"horizontal_pos_layout":0,"size_layout":0,"target_follow":"","vertical_pos_layout":0},"reverse":false,"source_timerange":{"duration":633334,"start":10766666},"speed":1.0,"state":0,"target_timerange":{"duration":633334,"start":10766666},"template_id":"","template_scene":"default","track_attribute":1,"track_render_index":0,"uniform_scale":{"on":true,"value":1.0},"visible":true,"volume":0.0},{"caption_info":null,"cartoon":false,"clip":{"alpha":1.0,"flip":{"horizontal":false,"vertical":false},"rotation":0.0,"scale":{"x":1.0,"y":1.0},"transform":{"x":0.0,"y":0.0}},"color_correct_alg_result":"","common_keyframes":[],"desc":"","digital_human_template_group_id":"","enable_adjust":true,"enable_adjust_mask":false,"enable_color_correct_adjust":false,"enable_color_curves":true,"enable_color_match_adjust":false,"enable_color_wheels":true,"enable_hsl":false,"enable_lut":true,"enable_smart_color_adjust":false,"enable_video_mask":true,"extra_material_refs":["C1E9C294-1856-460a-A746-15CB9D75B013","20513C45-444D-418d-AB07-558BB8F53F63","902DE7FB-86E1-4765-9A8B-587FF327B858","0C7930AA-A029-473f-A5CE-1348A6CA6C81","45D976BD-3608-4fb4-A512-59BAF71B15C7"],"group_id":"","hdr_settings":{"intensity":1.0,"mode":1,"nits":1000},"id":"108C8B42-06AB-43c5-A046-BB43F665E97D","intensifies_audio":false,"is_loop":false,"is_placeholder":false,"is_tone_modify":false,"keyframe_refs":[],"last_nonzero_volume":1.0,"lyric_keyframes":null,"material_id":"8651D98B-CE63-4b5e-8058-D03643CFFBB6","raw_segment_id":"","render_index":0,"render_timerange":{"duration":0,"start":0},"responsive_layout":{"enable":false,"horizontal_pos_layout":0,"size_layout":0,"target_follow":"","vertical_pos_layout":0},"reverse":false,"source_timerange":{"duration":1666666,"start":11400000},"speed":1.0,"state":0,"target_timerange":{"duration":1666666,"start":11400000},"template_id":"","template_scene":"default","track_attribute":1,"track_render_index":0,"uniform_scale":{"on":true,"value":1.0},"visible":true,"volume":0.0},{"caption_info":null,"cartoon":false,"clip":{"alpha":1.0,"flip":{"horizontal":false,"vertical":false},"rotation":0.0,"scale":{"x":1.0,"y":1.0},"transform":{"x":0.0,"y":0.0}},"color_correct_alg_result":"","common_keyframes":[],"desc":"","digital_human_template_group_id":"","enable_adjust":true,"enable_adjust_mask":false,"enable_color_correct_adjust":false,"enable_color_curves":true,"enable_color_match_adjust":false,"enable_color_wheels":true,"enable_hsl":false,"enable_lut":true,"enable_smart_color_adjust":false,"enable_video_mask":true,"extra_material_refs":["135C06DD-A1D5-47ee-B749-0EBA5335A9D5","3BC82794-912C-4362-927D-18CF11DEAA12","F535C214-5E3A-4b87-AC33-29F5C2D0A910","B246E668-DE2A-426c-AF5D-A27145A36E5C","2DD86393-A431-4a01-99E5-E7FEFABF50F4"],"group_id":"","hdr_settings":{"intensity":1.0,"mode":1,"nits":1000},"id":"631D9C82-5258-4167-8766-D582F34CE36C","intensifies_audio":false,"is_loop":false,"is_placeholder":false,"is_tone_modify":false,"keyframe_refs":[],"last_nonzero_volume":1.0,"lyric_keyframes":null,"material_id":"DD615005-D910-4bba-967E-AE6DBBCDB9DD","raw_segment_id":"","render_index":0,"render_timerange":{"duration":0,"start":0},"responsive_layout":{"enable":false,"horizontal_pos_layout":0,"size_layout":0,"target_follow":"","vertical_pos_layout":0},"reverse":false,"source_timerange":{"duration":1633334,"start":13066666},"speed":1.0,"state":0,"target_timerange":{"duration":1633334,"start":13066666},"template_id":"","template_scene":"default","track_attribute":1,"track_render_index":0,"uniform_scale":{"on":true,"value":1.0},"visible":true,"volume":0.0},{"caption_info":null,"cartoon":false,"clip":{"alpha":1.0,"flip":{"horizontal":false,"vertical":false},"rotation":0.0,"scale":{"x":1.0,"y":1.0},"transform":{"x":0.0,"y":0.0}},"color_correct_alg_result":"","common_keyframes":[],"desc":"","digital_human_template_group_id":"","enable_adjust":true,"enable_adjust_mask":false,"enable_color_correct_adjust":false,"enable_color_curves":true,"enable_color_match_adjust":false,"enable_color_wheels":true,"enable_hsl":false,"enable_lut":true,"enable_smart_color_adjust":false,"enable_video_mask":true,"extra_material_refs":["14443FBB-B478-4ab9-AE68-DFEA5BADDB99","78A8B515-6EF8-423a-A3DA-995E92DB5763","A3A69114-98B2-4d1e-BC4C-D52614F237B7","A717134F-C11A-408c-A331-26AF674F971C","EBBF1FC1-D9EA-4006-840B-8E05C0554A00"],"group_id":"","hdr_settings":{"intensity":1.0,"mode":1,"nits":1000},"id":"A2B7D3C2-34FA-4cbf-9583-1782EBA70FB5","intensifies_audio":false,"is_loop":false,"is_placeholder":false,"is_tone_modify":false,"keyframe_refs":[],"last_nonzero_volume":1.0,"lyric_keyframes":null,"material_id":"AE91D705-191E-4b74-BB25-C0FDC63F27ED","raw_segment_id":"","render_index":0,"render_timerange":{"duration":0,"start":0},"responsive_layout":{"enable":false,"horizontal_pos_layout":0,"size_layout":0,"target_follow":"","vertical_pos_layout":0},"reverse":false,"source_timerange":{"duration":966666,"start":14700000},"speed":1.0,"state":0,"target_timerange":{"duration":966666,"start":14700000},"template_id":"","template_scene":"default","track_attribute":1,"track_render_index":0,"uniform_scale":{"on":true,"value":1.0},"visible":true,"volume":0.0},{"caption_info":null,"cartoon":false,"clip":{"alpha":1.0,"flip":{"horizontal":false,"vertical":false},"rotation":0.0,"scale":{"x":1.0,"y":1.0},"transform":{"x":0.0,"y":0.0}},"color_correct_alg_result":"","common_keyframes":[],"desc":"","digital_human_template_group_id":"","enable_adjust":true,"enable_adjust_mask":false,"enable_color_correct_adjust":false,"enable_color_curves":true,"enable_color_match_adjust":false,"enable_color_wheels":true,"enable_hsl":false,"enable_lut":true,"enable_smart_color_adjust":false,"enable_video_mask":true,"extra_material_refs":["DA84ED66-D051-4b37-8EBE-775A3F8D21D0","760E8F57-6B62-4d37-B717-261FE082CBDB","725FCEC2-6C48-4824-8657-A3FE2DAC3527","5F2091D1-9F38-4f50-84A6-CC77509D1758","9A5949DB-8EA6-4a87-BEE6-A854DDAC3740"],"group_id":"","hdr_settings":{"intensity":1.0,"mode":1,"nits":1000},"id":"1DBFC6B3-D75D-4087-9176-14824D31C17A","intensifies_audio":false,"is_loop":false,"is_placeholder":false,"is_tone_modify":false,"keyframe_refs":[],"last_nonzero_volume":1.0,"lyric_keyframes":null,"material_id":"C7AA8DDE-7F3B-4cea-B86B-0D02AADAE8EB","raw_segment_id":"","render_index":0,"render_timerange":{"duration":0,"start":0},"responsive_layout":{"enable":false,"horizontal_pos_layout":0,"size_layout":0,"target_follow":"","vertical_pos_layout":0},"reverse":false,"source_timerange":{"duration":1633334,"start":15666666},"speed":1.0,"state":0,"target_timerange":{"duration":1633334,"start":15666666},"template_id":"","template_scene":"default","track_attribute":1,"track_render_index":0,"uniform_scale":{"on":true,"value":1.0},"visible":true,"volume":0.0},{"caption_info":null,"cartoon":false,"clip":{"alpha":1.0,"flip":{"horizontal":false,"vertical":false},"rotation":0.0,"scale":{"x":1.0,"y":1.0},"transform":{"x":0.0,"y":0.0}},"color_correct_alg_result":"","common_keyframes":[],"desc":"","digital_human_template_group_id":"","enable_adjust":true,"enable_adjust_mask":false,"enable_color_correct_adjust":false,"enable_color_curves":true,"enable_color_match_adjust":false,"enable_color_wheels":true,"enable_hsl":false,"enable_lut":true,"enable_smart_color_adjust":false,"enable_video_mask":true,"extra_material_refs":["C0E07BBC-FAB1-44cd-B98F-EB27F7DFB11C","880493CB-24F0-49a7-9724-FA6AFD8425C6","A553CB3B-67C5-45b2-8727-83AE9FD47784","061052E6-A7F6-4a50-852A-89C4F596315A","DC83393D-DDCF-426d-9426-E75CF3B5BBC0"],"group_id":"","hdr_settings":{"intensity":1.0,"mode":1,"nits":1000},"id":"11467FE0-E8E1-401f-8A61-42373CF8C46C","intensifies_audio":false,"is_loop":false,"is_placeholder":false,"is_tone_modify":false,"keyframe_refs":[],"last_nonzero_volume":1.0,"lyric_keyframes":null,"material_id":"ED12AE08-EDEF-48c7-8DA7-59D39CA21030","raw_segment_id":"","render_index":0,"render_timerange":{"duration":0,"start":0},"responsive_layout":{"enable":false,"horizontal_pos_layout":0,"size_layout":0,"target_follow":"","vertical_pos_layout":0},"reverse":false,"source_timerange":{"duration":1033333,"start":17300000},"speed":1.0,"state":0,"target_timerange":{"duration":1033333,"start":17300000},"template_id":"","template_scene":"default","track_attribute":1,"track_render_index":0,"uniform_scale":{"on":true,"value":1.0},"visible":true,"volume":0.0},{"caption_info":null,"cartoon":false,"clip":{"alpha":1.0,"flip":{"horizontal":false,"vertical":false},"rotation":0.0,"scale":{"x":1.0,"y":1.0},"transform":{"x":0.0,"y":0.0}},"color_correct_alg_result":"","common_keyframes":[],"desc":"","digital_human_template_group_id":"","enable_adjust":true,"enable_adjust_mask":false,"enable_color_correct_adjust":false,"enable_color_curves":true,"enable_color_match_adjust":false,"enable_color_wheels":true,"enable_hsl":false,"enable_lut":true,"enable_smart_color_adjust":false,"enable_video_mask":true,"extra_material_refs":["9C1E17EA-A583-4917-8160-E1141B2147E0","1936D224-AB0A-43fa-AFFA-5F88CB2A1830","C864C597-0CA5-4a98-B129-E59C301D3BB1","D87E5750-CC09-41fc-9A52-594E91CE1426","18BA9065-8311-4ee8-8DBA-BA00FD0AA93D"],"group_id":"","hdr_settings":{"intensity":1.0,"mode":1,"nits":1000},"id":"E8FEAE86-7BDD-4290-95AE-FE523678730F","intensifies_audio":false,"is_loop":false,"is_placeholder":false,"is_tone_modify":false,"keyframe_refs":[],"last_nonzero_volume":1.0,"lyric_keyframes":null,"material_id":"DCE9DE12-FFC4-4c52-8254-08A4708AFEBE","raw_segment_id":"","render_index":0,"render_timerange":{"duration":0,"start":0},"responsive_layout":{"enable":false,"horizontal_pos_layout":0,"size_layout":0,"target_follow":"","vertical_pos_layout":0},"reverse":false,"source_timerange":{"duration":833333,"start":18333333},"speed":1.0,"state":0,"target_timerange":{"duration":833333,"start":18333333},"template_id":"","template_scene":"default","track_attribute":1,"track_render_index":0,"uniform_scale":{"on":true,"value":1.0},"visible":true,"volume":0.0},{"caption_info":null,"cartoon":false,"clip":{"alpha":1.0,"flip":{"horizontal":false,"vertical":false},"rotation":0.0,"scale":{"x":1.0,"y":1.0},"transform":{"x":0.0,"y":0.0}},"color_correct_alg_result":"","common_keyframes":[],"desc":"","digital_human_template_group_id":"","enable_adjust":true,"enable_adjust_mask":false,"enable_color_correct_adjust":false,"enable_color_curves":true,"enable_color_match_adjust":false,"enable_color_wheels":true,"enable_hsl":false,"enable_lut":true,"enable_smart_color_adjust":false,"enable_video_mask":true,"extra_material_refs":["70B5C221-F949-4808-A7AF-1F80E2D662E5","B8C99C71-DBE2-48a6-B330-4C6786B6B3E3","3DD287FB-6128-4af4-BA0F-824B632AE8F6","496D6198-3318-4b1a-8EFC-458E84EBD107","7C2F023E-C45B-49d7-A169-CFBB7EB05503"],"group_id":"","hdr_settings":{"intensity":1.0,"mode":1,"nits":1000},"id":"F3196487-9D0C-45be-971B-B313B9E385D5","intensifies_audio":false,"is_loop":false,"is_placeholder":false,"is_tone_modify":false,"keyframe_refs":[],"last_nonzero_volume":1.0,"lyric_keyframes":null,"material_id":"A38281FB-B2FB-41cf-9723-4868B210A7C3","raw_segment_id":"","render_index":0,"render_timerange":{"duration":0,"start":0},"responsive_layout":{"enable":false,"horizontal_pos_layout":0,"size_layout":0,"target_follow":"","vertical_pos_layout":0},"reverse":false,"source_timerange":{"duration":1333334,"start":19166666},"speed":1.0,"state":0,"target_timerange":{"duration":1333334,"start":19166666},"template_id":"","template_scene":"default","track_attribute":1,"track_render_index":0,"uniform_scale":{"on":true,"value":1.0},"visible":true,"volume":0.0},{"caption_info":null,"cartoon":false,"clip":{"alpha":1.0,"flip":{"horizontal":false,"vertical":false},"rotation":0.0,"scale":{"x":1.0,"y":1.0},"transform":{"x":0.0,"y":0.0}},"color_correct_alg_result":"","common_keyframes":[],"desc":"","digital_human_template_group_id":"","enable_adjust":true,"enable_adjust_mask":false,"enable_color_correct_adjust":false,"enable_color_curves":true,"enable_color_match_adjust":false,"enable_color_wheels":true,"enable_hsl":false,"enable_lut":true,"enable_smart_color_adjust":false,"enable_video_mask":true,"extra_material_refs":["2C6E2062-A4C8-4121-8E12-92BEDB05EE48","43715515-6AF3-4ca9-AB0C-101B53E63FCC","F34AF824-2D89-477e-BA34-2E7A82906F19","DF91E5D9-736C-42e4-B35E-1510E5161944","B544C083-DC46-476c-92C5-ABD5A05785C7"],"group_id":"","hdr_settings":{"intensity":1.0,"mode":1,"nits":1000},"id":"AF521182-9F95-4291-9615-1B1A892BCE38","intensifies_audio":false,"is_loop":false,"is_placeholder":false,"is_tone_modify":false,"keyframe_refs":[],"last_nonzero_volume":1.0,"lyric_keyframes":null,"material_id":"116E25DC-440A-46a4-B658-1639BFF1093E","raw_segment_id":"","render_index":0,"render_timerange":{"duration":0,"start":0},"responsive_layout":{"enable":false,"horizontal_pos_layout":0,"size_layout":0,"target_follow":"","vertical_pos_layout":0},"reverse":false,"source_timerange":{"duration":500000,"start":20500000},"speed":1.0,"state":0,"target_timerange":{"duration":500000,"start":20500000},"template_id":"","template_scene":"default","track_attribute":1,"track_render_index":0,"uniform_scale":{"on":true,"value":1.0},"visible":true,"volume":0.0},{"caption_info":null,"cartoon":false,"clip":{"alpha":1.0,"flip":{"horizontal":false,"vertical":false},"rotation":0.0,"scale":{"x":1.0,"y":1.0},"transform":{"x":0.0,"y":0.0}},"color_correct_alg_result":"","common_keyframes":[],"desc":"","digital_human_template_group_id":"","enable_adjust":true,"enable_adjust_mask":false,"enable_color_correct_adjust":false,"enable_color_curves":true,"enable_color_match_adjust":false,"enable_color_wheels":true,"enable_hsl":false,"enable_lut":true,"enable_smart_color_adjust":false,"enable_video_mask":true,"extra_material_refs":["4951F306-0B2F-4577-92E7-561D7D3E9F16","BF712C78-1F9C-44a1-85D8-47722B645F99","FD953713-6EE5-4d85-A82E-44210382957D","87ECEF8D-3E0A-442d-8A39-C2F8099589EA","9F1B77D1-E501-4f59-9FFA-EA1ECF861490"],"group_id":"","hdr_settings":{"intensity":1.0,"mode":1,"nits":1000},"id":"C2AFF457-54B0-44d0-A193-18EF90B07A48","intensifies_audio":false,"is_loop":false,"is_placeholder":false,"is_tone_modify":false,"keyframe_refs":[],"last_nonzero_volume":1.0,"lyric_keyframes":null,"material_id":"7416B70F-C372-4a6f-9839-EADB5ED97BBD","raw_segment_id":"","render_index":0,"render_timerange":{"duration":0,"start":0},"responsive_layout":{"enable":false,"horizontal_pos_layout":0,"size_layout":0,"target_follow":"","vertical_pos_layout":0},"reverse":false,"source_timerange":{"duration":2200000,"start":21000000},"speed":1.0,"state":0,"target_timerange":{"duration":2200000,"start":21000000},"template_id":"","template_scene":"default","track_attribute":1,"track_render_index":0,"uniform_scale":{"on":true,"value":1.0},"visible":true,"volume":0.0},{"caption_info":null,"cartoon":false,"clip":{"alpha":1.0,"flip":{"horizontal":false,"vertical":false},"rotation":0.0,"scale":{"x":1.0,"y":1.0},"transform":{"x":0.0,"y":0.0}},"color_correct_alg_result":"","common_keyframes":[],"desc":"","digital_human_template_group_id":"","enable_adjust":true,"enable_adjust_mask":false,"enable_color_correct_adjust":false,"enable_color_curves":true,"enable_color_match_adjust":false,"enable_color_wheels":true,"enable_hsl":false,"enable_lut":true,"enable_smart_color_adjust":false,"enable_video_mask":true,"extra_material_refs":["E5C76681-1FF3-4899-97AC-26D911295DBF","D418D76B-8E9A-4d67-9AD8-D6355D1F469D","003EB9C0-A2A6-41dc-BA62-66256AAE1274","A8885DDF-1804-4199-A7AB-2EF77377D05F","584D4DCB-43C6-4eb5-A939-76256794363A"],"group_id":"","hdr_settings":{"intensity":1.0,"mode":1,"nits":1000},"id":"BCE94E7D-DE3D-4f0a-99BC-8AB7C19A868A","intensifies_audio":false,"is_loop":false,"is_placeholder":false,"is_tone_modify":false,"keyframe_refs":[],"last_nonzero_volume":1.0,"lyric_keyframes":null,"material_id":"24756C9E-99D1-4145-9B86-DA650C46C4B3","raw_segment_id":"","render_index":0,"render_timerange":{"duration":0,"start":0},"responsive_layout":{"enable":false,"horizontal_pos_layout":0,"size_layout":0,"target_follow":"","vertical_pos_layout":0},"reverse":false,"source_timerange":{"duration":1266666,"start":23200000},"speed":1.0,"state":0,"target_timerange":{"duration":1266666,"start":23200000},"template_id":"","template_scene":"default","track_attribute":1,"track_render_index":0,"uniform_scale":{"on":true,"value":1.0},"visible":true,"volume":0.0},{"caption_info":null,"cartoon":false,"clip":{"alpha":1.0,"flip":{"horizontal":false,"vertical":false},"rotation":0.0,"scale":{"x":1.0,"y":1.0},"transform":{"x":0.0,"y":0.0}},"color_correct_alg_result":"","common_keyframes":[],"desc":"","digital_human_template_group_id":"","enable_adjust":true,"enable_adjust_mask":false,"enable_color_correct_adjust":false,"enable_color_curves":true,"enable_color_match_adjust":false,"enable_color_wheels":true,"enable_hsl":false,"enable_lut":true,"enable_smart_color_adjust":false,"enable_video_mask":true,"extra_material_refs":["E3803DA5-1693-461d-A86F-76633D8C8DD5","A121F672-C159-4e55-9C6D-DDC66AC5CB1F","6F6D93D4-AF54-4937-BCCF-D8BAC01625CD","2239A6E3-8E99-465e-9949-5B13F83A730D","77736D74-9510-41f4-8950-843E37E23836"],"group_id":"","hdr_settings":{"intensity":1.0,"mode":1,"nits":1000},"id":"B9814B8C-7C11-4e00-9398-1A8E4B431E3B","intensifies_audio":false,"is_loop":false,"is_placeholder":false,"is_tone_modify":false,"keyframe_refs":[],"last_nonzero_volume":1.0,"lyric_keyframes":null,"material_id":"6B69A75B-84AC-4345-A7BC-C93500BE61B6","raw_segment_id":"","render_index":0,"render_timerange":{"duration":0,"start":0},"responsive_layout":{"enable":false,"horizontal_pos_layout":0,"size_layout":0,"target_follow":"","vertical_pos_layout":0},"reverse":false,"source_timerange":{"duration":1300000,"start":24466666},"speed":1.0,"state":0,"target_timerange":{"duration":1300000,"start":24466666},"template_id":"","template_scene":"default","track_attribute":1,"track_render_index":0,"uniform_scale":{"on":true,"value":1.0},"visible":true,"volume":0.0},{"caption_info":null,"cartoon":false,"clip":{"alpha":1.0,"flip":{"horizontal":false,"vertical":false},"rotation":0.0,"scale":{"x":1.0,"y":1.0},"transform":{"x":0.0,"y":0.0}},"color_correct_alg_result":"","common_keyframes":[],"desc":"","digital_human_template_group_id":"","enable_adjust":true,"enable_adjust_mask":false,"enable_color_correct_adjust":false,"enable_color_curves":true,"enable_color_match_adjust":false,"enable_color_wheels":true,"enable_hsl":false,"enable_lut":true,"enable_smart_color_adjust":false,"enable_video_mask":true,"extra_material_refs":["3A99C5B1-6C95-4c74-A774-51A72CBF30A9","48248FE0-C3D3-411e-B80F-4E24098D3AC6","3D4035E4-37A9-460c-A3AB-943C18823DDE","F7F1FC9B-3F13-4187-B599-A77141DFC499","D8D0C08F-EACB-4c7f-98C8-B5FB6D249663"],"group_id":"","hdr_settings":{"intensity":1.0,"mode":1,"nits":1000},"id":"036C17EB-E31B-4c07-B7C1-44ACEC7D2800","intensifies_audio":false,"is_loop":false,"is_placeholder":false,"is_tone_modify":false,"keyframe_refs":[],"last_nonzero_volume":1.0,"lyric_keyframes":null,"material_id":"72EC0E5F-9D04-442d-B7D0-1A5671A788F8","raw_segment_id":"","render_index":0,"render_timerange":{"duration":0,"start":0},"responsive_layout":{"enable":false,"horizontal_pos_layout":0,"size_layout":0,"target_follow":"","vertical_pos_layout":0},"reverse":false,"source_timerange":{"duration":933334,"start":25766666},"speed":1.0,"state":0,"target_timerange":{"duration":933334,"start":25766666},"template_id":"","template_scene":"default","track_attribute":1,"track_render_index":0,"uniform_scale":{"on":true,"value":1.0},"visible":true,"volume":0.0},{"caption_info":null,"cartoon":false,"clip":{"alpha":1.0,"flip":{"horizontal":false,"vertical":false},"rotation":0.0,"scale":{"x":1.0,"y":1.0},"transform":{"x":0.0,"y":0.0}},"color_correct_alg_result":"","common_keyframes":[],"desc":"","digital_human_template_group_id":"","enable_adjust":true,"enable_adjust_mask":false,"enable_color_correct_adjust":false,"enable_color_curves":true,"enable_color_match_adjust":false,"enable_color_wheels":true,"enable_hsl":false,"enable_lut":true,"enable_smart_color_adjust":false,"enable_video_mask":true,"extra_material_refs":["6D91102B-E024-4a59-BA77-1160B9BAC1E8","02463437-CBE2-4036-BA40-CED2B7524909","552DE9B3-0013-4418-8292-3C478B2F344F","DE428C3A-C0AF-4ff6-89A4-3F50BFDEE0FB","9F4056DC-B1D9-4358-AC5A-F81129536A74"],"group_id":"","hdr_settings":{"intensity":1.0,"mode":1,"nits":1000},"id":"9CA467A7-23C2-475c-A0D0-FC9D5A9FD37F","intensifies_audio":false,"is_loop":false,"is_placeholder":false,"is_tone_modify":false,"keyframe_refs":[],"last_nonzero_volume":1.0,"lyric_keyframes":null,"material_id":"F5B7E1C8-3D1E-4cdd-9194-265CE451A770","raw_segment_id":"","render_index":0,"render_timerange":{"duration":0,"start":0},"responsive_layout":{"enable":false,"horizontal_pos_layout":0,"size_layout":0,"target_follow":"","vertical_pos_layout":0},"reverse":false,"source_timerange":{"duration":800000,"start":26700000},"speed":1.0,"state":0,"target_timerange":{"duration":800000,"start":26700000},"template_id":"","template_scene":"default","track_attribute":1,"track_render_index":0,"uniform_scale":{"on":true,"value":1.0},"visible":true,"volume":0.0},{"caption_info":null,"cartoon":false,"clip":{"alpha":1.0,"flip":{"horizontal":false,"vertical":false},"rotation":0.0,"scale":{"x":1.0,"y":1.0},"transform":{"x":0.0,"y":0.0}},"color_correct_alg_result":"","common_keyframes":[],"desc":"","digital_human_template_group_id":"","enable_adjust":true,"enable_adjust_mask":false,"enable_color_correct_adjust":false,"enable_color_curves":true,"enable_color_match_adjust":false,"enable_color_wheels":true,"enable_hsl":false,"enable_lut":true,"enable_smart_color_adjust":false,"enable_video_mask":true,"extra_material_refs":["D485B8D8-473D-4c84-A194-0F6289A7DE63","8E3D5949-81BD-4ecf-9073-37606A0CA09E","9399BDEC-C9C2-4cb6-8A34-8ED61A23D7AE","78E80998-B7C8-41a0-8735-7460DE298D4F","D39DED90-BE9F-45fc-94D7-D138FE756D34"],"group_id":"","hdr_settings":{"intensity":1.0,"mode":1,"nits":1000},"id":"994A8FD1-45F5-4de1-83EA-FD1513E81435","intensifies_audio":false,"is_loop":false,"is_placeholder":false,"is_tone_modify":false,"keyframe_refs":[],"last_nonzero_volume":1.0,"lyric_keyframes":null,"material_id":"61DEDF39-A6E5-4184-ABC4-AB46D820F7EC","raw_segment_id":"","render_index":0,"render_timerange":{"duration":0,"start":0},"responsive_layout":{"enable":false,"horizontal_pos_layout":0,"size_layout":0,"target_follow":"","vertical_pos_layout":0},"reverse":false,"source_timerange":{"duration":900000,"start":27500000},"speed":1.0,"state":0,"target_timerange":{"duration":900000,"start":27500000},"template_id":"","template_scene":"default","track_attribute":1,"track_render_index":0,"uniform_scale":{"on":true,"value":1.0},"visible":true,"volume":0.0},{"caption_info":null,"cartoon":false,"clip":{"alpha":1.0,"flip":{"horizontal":false,"vertical":false},"rotation":0.0,"scale":{"x":1.0,"y":1.0},"transform":{"x":0.0,"y":0.0}},"color_correct_alg_result":"","common_keyframes":[],"desc":"","digital_human_template_group_id":"","enable_adjust":true,"enable_adjust_mask":false,"enable_color_correct_adjust":false,"enable_color_curves":true,"enable_color_match_adjust":false,"enable_color_wheels":true,"enable_hsl":false,"enable_lut":true,"enable_smart_color_adjust":false,"enable_video_mask":true,"extra_material_refs":["6CE5B940-B60D-42f0-95AC-EC841E82502E","FCD57C15-87F8-4419-A5BF-90370D25E761","EED513D0-8894-45ac-BE3E-97E6FFB80BEF","8944BF25-B659-4866-8B7A-1E3BAF0579CC","BBB2BCE2-8728-4a52-B6D9-80CD195F01C8"],"group_id":"","hdr_settings":{"intensity":1.0,"mode":1,"nits":1000},"id":"2A8825D0-6279-4eed-AD27-5DA0877F37F5","intensifies_audio":false,"is_loop":false,"is_placeholder":false,"is_tone_modify":false,"keyframe_refs":[],"last_nonzero_volume":1.0,"lyric_keyframes":null,"material_id":"BDE2763C-45F4-4035-9329-6EE2E02EB932","raw_segment_id":"","render_index":0,"render_timerange":{"duration":0,"start":0},"responsive_layout":{"enable":false,"horizontal_pos_layout":0,"size_layout":0,"target_follow":"","vertical_pos_layout":0},"reverse":false,"source_timerange":{"duration":1100000,"start":28400000},"speed":1.0,"state":0,"target_timerange":{"duration":1100000,"start":28400000},"template_id":"","template_scene":"default","track_attribute":1,"track_render_index":0,"uniform_scale":{"on":true,"value":1.0},"visible":true,"volume":0.0},{"caption_info":null,"cartoon":false,"clip":{"alpha":1.0,"flip":{"horizontal":false,"vertical":false},"rotation":0.0,"scale":{"x":1.0,"y":1.0},"transform":{"x":0.0,"y":0.0}},"color_correct_alg_result":"","common_keyframes":[],"desc":"","digital_human_template_group_id":"","enable_adjust":true,"enable_adjust_mask":false,"enable_color_correct_adjust":false,"enable_color_curves":true,"enable_color_match_adjust":false,"enable_color_wheels":true,"enable_hsl":false,"enable_lut":true,"enable_smart_color_adjust":false,"enable_video_mask":true,"extra_material_refs":["9C5D2DE9-3FF2-4437-BC91-7676F847F91C","31128258-0BC1-4aa8-8F97-9D9718BC238C","90A7A97A-A43A-4b6c-B9FF-2FD1D8C840CA","F1AF8730-D886-4894-862F-E5409B889543","133EE880-706A-4aaf-A0F9-93AC9EA72FEA"],"group_id":"","hdr_settings":{"intensity":1.0,"mode":1,"nits":1000},"id":"20E0003E-8E07-4398-8F71-84993E4E0F9B","intensifies_audio":false,"is_loop":false,"is_placeholder":false,"is_tone_modify":false,"keyframe_refs":[],"last_nonzero_volume":1.0,"lyric_keyframes":null,"material_id":"2FBDB24E-83F5-4927-B220-D09D3DBF2DFE","raw_segment_id":"","render_index":0,"render_timerange":{"duration":0,"start":0},"responsive_layout":{"enable":false,"horizontal_pos_layout":0,"size_layout":0,"target_follow":"","vertical_pos_layout":0},"reverse":false,"source_timerange":{"duration":1100000,"start":29500000},"speed":1.0,"state":0,"target_timerange":{"duration":1100000,"start":29500000},"template_id":"","template_scene":"default","track_attribute":1,"track_render_index":0,"uniform_scale":{"on":true,"value":1.0},"visible":true,"volume":0.0},{"caption_info":null,"cartoon":false,"clip":{"alpha":1.0,"flip":{"horizontal":false,"vertical":false},"rotation":0.0,"scale":{"x":1.0,"y":1.0},"transform":{"x":0.0,"y":0.0}},"color_correct_alg_result":"","common_keyframes":[],"desc":"","digital_human_template_group_id":"","enable_adjust":true,"enable_adjust_mask":false,"enable_color_correct_adjust":false,"enable_color_curves":true,"enable_color_match_adjust":false,"enable_color_wheels":true,"enable_hsl":false,"enable_lut":true,"enable_smart_color_adjust":false,"enable_video_mask":true,"extra_material_refs":["72092CC8-D3C8-463e-9711-2B98378954A7","461E1F47-83C7-40ee-8296-3B0209B510B9","D8E89CF3-B61C-4e86-90D5-D07CF3129EC5","8B86B4FC-67AB-48a0-8489-1D661918A93E","6A230580-466B-4b5e-A664-A8D8FBAFB4EC"],"group_id":"","hdr_settings":{"intensity":1.0,"mode":1,"nits":1000},"id":"9C44374B-16C0-4ec7-9C3E-D3603F2750A2","intensifies_audio":false,"is_loop":false,"is_placeholder":false,"is_tone_modify":false,"keyframe_refs":[],"last_nonzero_volume":1.0,"lyric_keyframes":null,"material_id":"6C993C83-FB28-4572-8C70-743F25821750","raw_segment_id":"","render_index":0,"render_timerange":{"duration":0,"start":0},"responsive_layout":{"enable":false,"horizontal_pos_layout":0,"size_layout":0,"target_follow":"","vertical_pos_layout":0},"reverse":false,"source_timerange":{"duration":1366666,"start":30600000},"speed":1.0,"state":0,"target_timerange":{"duration":1366666,"start":30600000},"template_id":"","template_scene":"default","track_attribute":1,"track_render_index":0,"uniform_scale":{"on":true,"value":1.0},"visible":true,"volume":0.0},{"caption_info":null,"cartoon":false,"clip":{"alpha":1.0,"flip":{"horizontal":false,"vertical":false},"rotation":0.0,"scale":{"x":1.0,"y":1.0},"transform":{"x":0.0,"y":0.0}},"color_correct_alg_result":"","common_keyframes":[],"desc":"","digital_human_template_group_id":"","enable_adjust":true,"enable_adjust_mask":false,"enable_color_correct_adjust":false,"enable_color_curves":true,"enable_color_match_adjust":false,"enable_color_wheels":true,"enable_hsl":false,"enable_lut":true,"enable_smart_color_adjust":false,"enable_video_mask":true,"extra_material_refs":["B39F0140-F27F-42c6-8375-17441EEBA0B3","FB106B79-AB41-4420-AB44-5C2CE1ADEB0E","F4586384-EB44-44f7-9FF8-0B3C9BA93147","A233AAEF-954B-428c-81AF-51F05CFF3593","CEA15F1E-24AB-46d1-9E86-7E6E9E7F431F"],"group_id":"","hdr_settings":{"intensity":1.0,"mode":1,"nits":1000},"id":"02609493-BEC3-4379-B6CF-F62C1EF068DE","intensifies_audio":false,"is_loop":false,"is_placeholder":false,"is_tone_modify":false,"keyframe_refs":[],"last_nonzero_volume":1.0,"lyric_keyframes":null,"material_id":"6D6C5DC2-6BB1-4d9f-97B1-B789709535CB","raw_segment_id":"","render_index":0,"render_timerange":{"duration":0,"start":0},"responsive_layout":{"enable":false,"horizontal_pos_layout":0,"size_layout":0,"target_follow":"","vertical_pos_layout":0},"reverse":false,"source_timerange":{"duration":500000,"start":31966666},"speed":1.0,"state":0,"target_timerange":{"duration":500000,"start":31966666},"template_id":"","template_scene":"default","track_attribute":1,"track_render_index":0,"uniform_scale":{"on":true,"value":1.0},"visible":true,"volume":0.0},{"caption_info":null,"cartoon":false,"clip":{"alpha":1.0,"flip":{"horizontal":false,"vertical":false},"rotation":0.0,"scale":{"x":1.0,"y":1.0},"transform":{"x":0.0,"y":0.0}},"color_correct_alg_result":"","common_keyframes":[],"desc":"","digital_human_template_group_id":"","enable_adjust":true,"enable_adjust_mask":false,"enable_color_correct_adjust":false,"enable_color_curves":true,"enable_color_match_adjust":false,"enable_color_wheels":true,"enable_hsl":false,"enable_lut":true,"enable_smart_color_adjust":false,"enable_video_mask":true,"extra_material_refs":["7A24514D-D5D9-439f-AEA7-9D7B033223DE","A2317C46-3F05-448d-98B4-6C04AC410395","E39E0F29-0B03-4931-8F0F-5DFEFF7A657D","02B984D0-A25E-4d6a-A396-1B4B5197CB99","0C9AD144-5AE5-43b4-B14B-6A855C70465B"],"group_id":"","hdr_settings":{"intensity":1.0,"mode":1,"nits":1000},"id":"C45DBD2F-53E6-4ca4-B146-D3B585E3AF0E","intensifies_audio":false,"is_loop":false,"is_placeholder":false,"is_tone_modify":false,"keyframe_refs":[],"last_nonzero_volume":1.0,"lyric_keyframes":null,"material_id":"63D463D2-D7C7-490d-92E8-40AF4DB32C5E","raw_segment_id":"","render_index":0,"render_timerange":{"duration":0,"start":0},"responsive_layout":{"enable":false,"horizontal_pos_layout":0,"size_layout":0,"target_follow":"","vertical_pos_layout":0},"reverse":false,"source_timerange":{"duration":1300000,"start":32466666},"speed":1.0,"state":0,"target_timerange":{"duration":1300000,"start":32466666},"template_id":"","template_scene":"default","track_attribute":1,"track_render_index":0,"uniform_scale":{"on":true,"value":1.0},"visible":true,"volume":0.0},{"caption_info":null,"cartoon":false,"clip":{"alpha":1.0,"flip":{"horizontal":false,"vertical":false},"rotation":0.0,"scale":{"x":1.0,"y":1.0},"transform":{"x":0.0,"y":0.0}},"color_correct_alg_result":"","common_keyframes":[],"desc":"","digital_human_template_group_id":"","enable_adjust":true,"enable_adjust_mask":false,"enable_color_correct_adjust":false,"enable_color_curves":true,"enable_color_match_adjust":false,"enable_color_wheels":true,"enable_hsl":false,"enable_lut":true,"enable_smart_color_adjust":false,"enable_video_mask":true,"extra_material_refs":["802BCCFE-7928-4b47-8264-77E2547B0E10","A9208F4D-2A7F-4496-829D-7349C00BEFF8","4229A28C-C51B-4143-B77F-A20754AC71C9","26D533BF-BBC3-469c-8C55-5C8DD7B64F0A","1E403291-863B-4280-AA1B-6DFFF91C3B9D"],"group_id":"","hdr_settings":{"intensity":1.0,"mode":1,"nits":1000},"id":"FBC60EE1-C17D-4021-B077-83B755852174","intensifies_audio":false,"is_loop":false,"is_placeholder":false,"is_tone_modify":false,"keyframe_refs":[],"last_nonzero_volume":1.0,"lyric_keyframes":null,"material_id":"F6F2F1E0-39AD-4970-8276-0F8D055598AE","raw_segment_id":"","render_index":0,"render_timerange":{"duration":0,"start":0},"responsive_layout":{"enable":false,"horizontal_pos_layout":0,"size_layout":0,"target_follow":"","vertical_pos_layout":0},"reverse":false,"source_timerange":{"duration":2166667,"start":33766666},"speed":1.0,"state":0,"target_timerange":{"duration":2166667,"start":33766666},"template_id":"","template_scene":"default","track_attribute":1,"track_render_index":0,"uniform_scale":{"on":true,"value":1.0},"visible":true,"volume":0.0},{"caption_info":null,"cartoon":false,"clip":{"alpha":1.0,"flip":{"horizontal":false,"vertical":false},"rotation":0.0,"scale":{"x":1.0,"y":1.0},"transform":{"x":0.0,"y":0.0}},"color_correct_alg_result":"","common_keyframes":[],"desc":"","digital_human_template_group_id":"","enable_adjust":true,"enable_adjust_mask":false,"enable_color_correct_adjust":false,"enable_color_curves":true,"enable_color_match_adjust":false,"enable_color_wheels":true,"enable_hsl":false,"enable_lut":true,"enable_smart_color_adjust":false,"enable_video_mask":true,"extra_material_refs":["5915C109-B958-4276-B6FC-24C5413088BD","0D3B4AB8-DDCE-4d8e-B056-46BDE7ECAC57","F41F4FA6-B6B7-431b-8742-1806A1449BCC","2D262DB9-E8DD-4795-B08E-A5196E1DC505","44C3F065-A5AB-45ea-8F24-1A793885B4F8"],"group_id":"","hdr_settings":{"intensity":1.0,"mode":1,"nits":1000},"id":"984D8F9C-8B3D-4ed1-B0AA-1D0D2A49E78F","intensifies_audio":false,"is_loop":false,"is_placeholder":false,"is_tone_modify":false,"keyframe_refs":[],"last_nonzero_volume":1.0,"lyric_keyframes":null,"material_id":"080F424A-9305-4ade-9A41-57621A649985","raw_segment_id":"","render_index":0,"render_timerange":{"duration":0,"start":0},"responsive_layout":{"enable":false,"horizontal_pos_layout":0,"size_layout":0,"target_follow":"","vertical_pos_layout":0},"reverse":false,"source_timerange":{"duration":1033333,"start":35933333},"speed":1.0,"state":0,"target_timerange":{"duration":1033333,"start":35933333},"template_id":"","template_scene":"default","track_attribute":1,"track_render_index":0,"uniform_scale":{"on":true,"value":1.0},"visible":true,"volume":0.0},{"caption_info":null,"cartoon":false,"clip":{"alpha":1.0,"flip":{"horizontal":false,"vertical":false},"rotation":0.0,"scale":{"x":1.0,"y":1.0},"transform":{"x":0.0,"y":0.0}},"color_correct_alg_result":"","common_keyframes":[],"desc":"","digital_human_template_group_id":"","enable_adjust":true,"enable_adjust_mask":false,"enable_color_correct_adjust":false,"enable_color_curves":true,"enable_color_match_adjust":false,"enable_color_wheels":true,"enable_hsl":false,"enable_lut":true,"enable_smart_color_adjust":false,"enable_video_mask":true,"extra_material_refs":["308FBFD1-C10A-4c67-9ADF-7AB08EDDDC9B","A1BB301E-A347-4b87-B14F-D0674DA674D5","DCA37905-EF68-4b63-827B-FEA505387AC8","B5012619-7596-4574-99BB-61261A0F8556","6087377A-AAF2-47de-890A-A5CBCA25BCBB"],"group_id":"","hdr_settings":{"intensity":1.0,"mode":1,"nits":1000},"id":"13AB7D28-AF9B-4d0e-B303-4A0E82890F3B","intensifies_audio":false,"is_loop":false,"is_placeholder":false,"is_tone_modify":false,"keyframe_refs":[],"last_nonzero_volume":1.0,"lyric_keyframes":null,"material_id":"AFB766F5-773B-4210-8A0B-9506019F3A33","raw_segment_id":"","render_index":0,"render_timerange":{"duration":0,"start":0},"responsive_layout":{"enable":false,"horizontal_pos_layout":0,"size_layout":0,"target_follow":"","vertical_pos_layout":0},"reverse":false,"source_timerange":{"duration":6666667,"start":36966666},"speed":1.0,"state":0,"target_timerange":{"duration":6666667,"start":36966666},"template_id":"","template_scene":"default","track_attribute":1,"track_render_index":0,"uniform_scale":{"on":true,"value":1.0},"visible":true,"volume":0.0},{"caption_info":null,"cartoon":false,"clip":{"alpha":1.0,"flip":{"horizontal":false,"vertical":false},"rotation":0.0,"scale":{"x":1.0,"y":1.0},"transform":{"x":0.0,"y":0.0}},"color_correct_alg_result":"","common_keyframes":[],"desc":"","digital_human_template_group_id":"","enable_adjust":true,"enable_adjust_mask":false,"enable_color_correct_adjust":false,"enable_color_curves":true,"enable_color_match_adjust":false,"enable_color_wheels":true,"enable_hsl":false,"enable_lut":true,"enable_smart_color_adjust":false,"enable_video_mask":true,"extra_material_refs":["009F34AB-E0C7-48dc-BBD7-B4A58F0F3E9F","F95427B3-1263-41df-8369-4EC10E9938C9","62BACE56-3404-4261-A091-15352DB374CE","6DAC2093-A472-453f-AF7D-ADF4B4C720EA","7AF1D55D-AA91-45e3-8ABC-240E0283EADC"],"group_id":"","hdr_settings":{"intensity":1.0,"mode":1,"nits":1000},"id":"F47CF8F2-7B13-4db0-A69A-5DE8BF8FF6BC","intensifies_audio":false,"is_loop":false,"is_placeholder":false,"is_tone_modify":false,"keyframe_refs":[],"last_nonzero_volume":1.0,"lyric_keyframes":null,"material_id":"3A6B3E74-BA15-4064-B91B-F9CB4A1671F3","raw_segment_id":"","render_index":0,"render_timerange":{"duration":0,"start":0},"responsive_layout":{"enable":false,"horizontal_pos_layout":0,"size_layout":0,"target_follow":"","vertical_pos_layout":0},"reverse":false,"source_timerange":{"duration":3666667,"start":43633333},"speed":1.0,"state":0,"target_timerange":{"duration":3666667,"start":43633333},"template_id":"","template_scene":"default","track_attribute":1,"track_render_index":0,"uniform_scale":{"on":true,"value":1.0},"visible":true,"volume":0.0},{"caption_info":null,"cartoon":false,"clip":{"alpha":1.0,"flip":{"horizontal":false,"vertical":false},"rotation":0.0,"scale":{"x":1.0,"y":1.0},"transform":{"x":0.0,"y":0.0}},"color_correct_alg_result":"","common_keyframes":[],"desc":"","digital_human_template_group_id":"","enable_adjust":true,"enable_adjust_mask":false,"enable_color_correct_adjust":false,"enable_color_curves":true,"enable_color_match_adjust":false,"enable_color_wheels":true,"enable_hsl":false,"enable_lut":true,"enable_smart_color_adjust":false,"enable_video_mask":true,"extra_material_refs":["4B6C07D7-658D-4dbe-BB48-2A709A90D4D5","3FDCA5E5-D940-4eb2-BB47-30B83247AEBD","D823FE9D-5EAC-495b-A556-72E229814545","CA8EACB1-9F07-43f2-944E-99E136ECABAE","E9268C86-013E-4863-B8AE-3E00846FE297"],"group_id":"","hdr_settings":{"intensity":1.0,"mode":1,"nits":1000},"id":"7ED56585-CBB6-42c2-B244-9E8F85C650C5","intensifies_audio":false,"is_loop":false,"is_placeholder":false,"is_tone_modify":false,"keyframe_refs":[],"last_nonzero_volume":1.0,"lyric_keyframes":null,"material_id":"0470BB13-7AF6-4d37-BF38-F852EDF38D8F","raw_segment_id":"","render_index":0,"render_timerange":{"duration":0,"start":0},"responsive_layout":{"enable":false,"horizontal_pos_layout":0,"size_layout":0,"target_follow":"","vertical_pos_layout":0},"reverse":false,"source_timerange":{"duration":1333333,"start":47300000},"speed":1.0,"state":0,"target_timerange":{"duration":1333333,"start":47300000},"template_id":"","template_scene":"default","track_attribute":1,"track_render_index":0,"uniform_scale":{"on":true,"value":1.0},"visible":true,"volume":0.0},{"caption_info":null,"cartoon":false,"clip":{"alpha":1.0,"flip":{"horizontal":false,"vertical":false},"rotation":0.0,"scale":{"x":1.0,"y":1.0},"transform":{"x":0.0,"y":0.0}},"color_correct_alg_result":"","common_keyframes":[],"desc":"","digital_human_template_group_id":"","enable_adjust":true,"enable_adjust_mask":false,"enable_color_correct_adjust":false,"enable_color_curves":true,"enable_color_match_adjust":false,"enable_color_wheels":true,"enable_hsl":false,"enable_lut":true,"enable_smart_color_adjust":false,"enable_video_mask":true,"extra_material_refs":["484F2D95-0684-449b-B734-1BC2F29DFB1E","11BC0020-B32A-4018-9644-6D75E25AD719","35063640-8255-4c22-94DC-DD7C10634398","C6EDDAD6-4B14-46c9-A250-1287A2713033","5C1C1EA7-146D-4d8b-87F4-3B464D1FE4EC"],"group_id":"","hdr_settings":{"intensity":1.0,"mode":1,"nits":1000},"id":"40EBB100-16A6-4103-A8DA-A75392B83487","intensifies_audio":false,"is_loop":false,"is_placeholder":false,"is_tone_modify":false,"keyframe_refs":[],"last_nonzero_volume":1.0,"lyric_keyframes":null,"material_id":"CEDEF6A7-A159-45dc-90F6-32E2EAC16D0C","raw_segment_id":"","render_index":0,"render_timerange":{"duration":0,"start":0},"responsive_layout":{"enable":false,"horizontal_pos_layout":0,"size_layout":0,"target_follow":"","vertical_pos_layout":0},"reverse":false,"source_timerange":{"duration":733333,"start":48633333},"speed":1.0,"state":0,"target_timerange":{"duration":733333,"start":48633333},"template_id":"","template_scene":"default","track_attribute":1,"track_render_index":0,"uniform_scale":{"on":true,"value":1.0},"visible":true,"volume":0.0},{"caption_info":null,"cartoon":false,"clip":{"alpha":1.0,"flip":{"horizontal":false,"vertical":false},"rotation":0.0,"scale":{"x":1.0,"y":1.0},"transform":{"x":0.0,"y":0.0}},"color_correct_alg_result":"","common_keyframes":[],"desc":"","digital_human_template_group_id":"","enable_adjust":true,"enable_adjust_mask":false,"enable_color_correct_adjust":false,"enable_color_curves":true,"enable_color_match_adjust":false,"enable_color_wheels":true,"enable_hsl":false,"enable_lut":true,"enable_smart_color_adjust":false,"enable_video_mask":true,"extra_material_refs":["55C35A3B-FED6-4406-A556-C76952E47C7C","E9601D4F-956D-4449-A56D-355DFA2A9377","FFCD9D64-B656-4dea-8CA0-912FC48B7488","B7A904B6-66CA-483a-AA17-9CF3B1F044F7","2C4E4200-D653-49a7-9962-C2B87B03D44D"],"group_id":"","hdr_settings":{"intensity":1.0,"mode":1,"nits":1000},"id":"183F293B-3114-4cb4-AF9D-95947E0094F0","intensifies_audio":false,"is_loop":false,"is_placeholder":false,"is_tone_modify":false,"keyframe_refs":[],"last_nonzero_volume":1.0,"lyric_keyframes":null,"material_id":"8F9CD28C-5D14-432f-B99E-61BEA2698C41","raw_segment_id":"","render_index":0,"render_timerange":{"duration":0,"start":0},"responsive_layout":{"enable":false,"horizontal_pos_layout":0,"size_layout":0,"target_follow":"","vertical_pos_layout":0},"reverse":false,"source_timerange":{"duration":766667,"start":49366666},"speed":1.0,"state":0,"target_timerange":{"duration":766667,"start":49366666},"template_id":"","template_scene":"default","track_attribute":1,"track_render_index":0,"uniform_scale":{"on":true,"value":1.0},"visible":true,"volume":0.0},{"caption_info":null,"cartoon":false,"clip":{"alpha":1.0,"flip":{"horizontal":false,"vertical":false},"rotation":0.0,"scale":{"x":1.0,"y":1.0},"transform":{"x":0.0,"y":0.0}},"color_correct_alg_result":"","common_keyframes":[],"desc":"","digital_human_template_group_id":"","enable_adjust":true,"enable_adjust_mask":false,"enable_color_correct_adjust":false,"enable_color_curves":true,"enable_color_match_adjust":false,"enable_color_wheels":true,"enable_hsl":false,"enable_lut":true,"enable_smart_color_adjust":false,"enable_video_mask":true,"extra_material_refs":["208E01B0-F5B9-4f37-8191-E244000F22B7","3B4F9CBB-7A82-4efe-920D-5D131E5B1631","AD7FA197-D9FA-4154-93CC-C112DFA79246","2EC1FB7E-291D-4e66-8D92-0BBBC2FD6C4D","A3CF7EC3-0917-4928-A7A7-88A02CD6870D"],"group_id":"","hdr_settings":{"intensity":1.0,"mode":1,"nits":1000},"id":"DD794E08-B291-445e-8C32-58D9792573B9","intensifies_audio":false,"is_loop":false,"is_placeholder":false,"is_tone_modify":false,"keyframe_refs":[],"last_nonzero_volume":1.0,"lyric_keyframes":null,"material_id":"7585E522-D254-4d67-B33D-C184FF7ACF65","raw_segment_id":"","render_index":0,"render_timerange":{"duration":0,"start":0},"responsive_layout":{"enable":false,"horizontal_pos_layout":0,"size_layout":0,"target_follow":"","vertical_pos_layout":0},"reverse":false,"source_timerange":{"duration":3333333,"start":50133333},"speed":1.0,"state":0,"target_timerange":{"duration":3333333,"start":50133333},"template_id":"","template_scene":"default","track_attribute":1,"track_render_index":0,"uniform_scale":{"on":true,"value":1.0},"visible":true,"volume":0.0},{"caption_info":null,"cartoon":false,"clip":{"alpha":1.0,"flip":{"horizontal":false,"vertical":false},"rotation":0.0,"scale":{"x":1.0,"y":1.0},"transform":{"x":0.0,"y":0.0}},"color_correct_alg_result":"","common_keyframes":[],"desc":"","digital_human_template_group_id":"","enable_adjust":true,"enable_adjust_mask":false,"enable_color_correct_adjust":false,"enable_color_curves":true,"enable_color_match_adjust":false,"enable_color_wheels":true,"enable_hsl":false,"enable_lut":true,"enable_smart_color_adjust":false,"enable_video_mask":true,"extra_material_refs":["B1D6451A-A597-4d73-A104-D2A9393FD809","8041F5B2-F8A1-4b8e-9692-06ACED295B10","34742651-BE9D-4edb-A872-D82589A4CF5F","5E6893C7-8D9F-4f5a-B547-B9AD6E531668","7E4553F3-7196-4fb0-A8C0-806569ECFCA5"],"group_id":"","hdr_settings":{"intensity":1.0,"mode":1,"nits":1000},"id":"4FB4ADD1-3CF1-4daf-98D0-922C60DBABE5","intensifies_audio":false,"is_loop":false,"is_placeholder":false,"is_tone_modify":false,"keyframe_refs":[],"last_nonzero_volume":1.0,"lyric_keyframes":null,"material_id":"D6C86990-8B0E-4feb-9731-B38C4D9E496F","raw_segment_id":"","render_index":0,"render_timerange":{"duration":0,"start":0},"responsive_layout":{"enable":false,"horizontal_pos_layout":0,"size_layout":0,"target_follow":"","vertical_pos_layout":0},"reverse":false,"source_timerange":{"duration":1433334,"start":53466666},"speed":1.0,"state":0,"target_timerange":{"duration":1433334,"start":53466666},"template_id":"","template_scene":"default","track_attribute":1,"track_render_index":0,"uniform_scale":{"on":true,"value":1.0},"visible":true,"volume":0.0},{"caption_info":null,"cartoon":false,"clip":{"alpha":1.0,"flip":{"horizontal":false,"vertical":false},"rotation":0.0,"scale":{"x":1.0,"y":1.0},"transform":{"x":0.0,"y":0.0}},"color_correct_alg_result":"","common_keyframes":[],"desc":"","digital_human_template_group_id":"","enable_adjust":true,"enable_adjust_mask":false,"enable_color_correct_adjust":false,"enable_color_curves":true,"enable_color_match_adjust":false,"enable_color_wheels":true,"enable_hsl":false,"enable_lut":true,"enable_smart_color_adjust":false,"enable_video_mask":true,"extra_material_refs":["E6908A06-DAA7-48f7-A3D0-41ECEF2F9AF0","3525611B-6109-4f3c-8EAE-21900BA4FFFF","23C6CA69-8217-4a52-ACF9-024558AC18F3","7AF2BDE0-7035-471e-88FF-46A2CE0DFD09","A4D1E42C-8812-4dba-8C40-B8D452C6F3DD"],"group_id":"","hdr_settings":{"intensity":1.0,"mode":1,"nits":1000},"id":"0A809CCB-7A58-461a-A46B-E3D8B84F76EA","intensifies_audio":false,"is_loop":false,"is_placeholder":false,"is_tone_modify":false,"keyframe_refs":[],"last_nonzero_volume":1.0,"lyric_keyframes":null,"material_id":"190EBD7D-1E42-4e24-8315-AC7A5A9F126F","raw_segment_id":"","render_index":0,"render_timerange":{"duration":0,"start":0},"responsive_layout":{"enable":false,"horizontal_pos_layout":0,"size_layout":0,"target_follow":"","vertical_pos_layout":0},"reverse":false,"source_timerange":{"duration":2200000,"start":54900000},"speed":1.0,"state":0,"target_timerange":{"duration":2200000,"start":54900000},"template_id":"","template_scene":"default","track_attribute":1,"track_render_index":0,"uniform_scale":{"on":true,"value":1.0},"visible":true,"volume":0.0},{"caption_info":null,"cartoon":false,"clip":{"alpha":1.0,"flip":{"horizontal":false,"vertical":false},"rotation":0.0,"scale":{"x":1.0,"y":1.0},"transform":{"x":0.0,"y":0.0}},"color_correct_alg_result":"","common_keyframes":[],"desc":"","digital_human_template_group_id":"","enable_adjust":true,"enable_adjust_mask":false,"enable_color_correct_adjust":false,"enable_color_curves":true,"enable_color_match_adjust":false,"enable_color_wheels":true,"enable_hsl":false,"enable_lut":true,"enable_smart_color_adjust":false,"enable_video_mask":true,"extra_material_refs":["12835B60-2596-4d3c-8968-3AF9A032EFD4","4EEC1438-C0F6-4a36-B2A6-B75EBE3301AB","708A31D8-6EF4-403c-8CE7-6254F948108F","8A108161-9623-43d5-A8DC-6D3261E56BE2","2BD8C80A-CA84-45d7-A544-5851DE357EEC"],"group_id":"","hdr_settings":{"intensity":1.0,"mode":1,"nits":1000},"id":"B7420BF8-C609-47f7-9B01-C2A8C361EE9E","intensifies_audio":false,"is_loop":false,"is_placeholder":false,"is_tone_modify":false,"keyframe_refs":[],"last_nonzero_volume":1.0,"lyric_keyframes":null,"material_id":"85FF93F3-BA07-47f6-8895-4E657A7F1ECC","raw_segment_id":"","render_index":0,"render_timerange":{"duration":0,"start":0},"responsive_layout":{"enable":false,"horizontal_pos_layout":0,"size_layout":0,"target_follow":"","vertical_pos_layout":0},"reverse":false,"source_timerange":{"duration":1933333,"start":57100000},"speed":1.0,"state":0,"target_timerange":{"duration":1933333,"start":57100000},"template_id":"","template_scene":"default","track_attribute":1,"track_render_index":0,"uniform_scale":{"on":true,"value":1.0},"visible":true,"volume":0.0},{"caption_info":null,"cartoon":false,"clip":{"alpha":1.0,"flip":{"horizontal":false,"vertical":false},"rotation":0.0,"scale":{"x":1.0,"y":1.0},"transform":{"x":0.0,"y":0.0}},"color_correct_alg_result":"","common_keyframes":[],"desc":"","digital_human_template_group_id":"","enable_adjust":true,"enable_adjust_mask":false,"enable_color_correct_adjust":false,"enable_color_curves":true,"enable_color_match_adjust":false,"enable_color_wheels":true,"enable_hsl":false,"enable_lut":true,"enable_smart_color_adjust":false,"enable_video_mask":true,"extra_material_refs":["CB5DCEFE-C8CC-48b6-9645-2A0678CC31EE","6687D875-DE78-4c01-AC39-9BF4B40D4256","DEAD7680-FDCA-4b0c-B263-3B471EAD1095","7AD8797F-7890-45c9-ABF6-0681ED3CDED7","82B19FAE-3EC8-4099-AC0E-31D7C806ADF5"],"group_id":"","hdr_settings":{"intensity":1.0,"mode":1,"nits":1000},"id":"54B3C821-B4D0-46a1-9673-E787830EB80D","intensifies_audio":false,"is_loop":false,"is_placeholder":false,"is_tone_modify":false,"keyframe_refs":[],"last_nonzero_volume":1.0,"lyric_keyframes":null,"material_id":"F34840CA-4116-4818-9719-DABA08497DCF","raw_segment_id":"","render_index":0,"render_timerange":{"duration":0,"start":0},"responsive_layout":{"enable":false,"horizontal_pos_layout":0,"size_layout":0,"target_follow":"","vertical_pos_layout":0},"reverse":false,"source_timerange":{"duration":966667,"start":59033333},"speed":1.0,"state":0,"target_timerange":{"duration":966667,"start":59033333},"template_id":"","template_scene":"default","track_attribute":1,"track_render_index":0,"uniform_scale":{"on":true,"value":1.0},"visible":true,"volume":0.0}],"type":"video"},{"attribute":0,"flag":2,"id":"55949E11-8BC4-4d7f-90B9-30FC67EDCC9F","is_default_name":true,"name":"","segments":[{"caption_info":null,"cartoon":false,"clip":{"alpha":1.0,"flip":{"horizontal":false,"vertical":false},"rotation":0.0,"scale":{"x":1.0,"y":1.0},"transform":{"x":0.0,"y":0.0}},"color_correct_alg_result":"","common_keyframes":[],"desc":"","digital_human_template_group_id":"","enable_adjust":true,"enable_adjust_mask":false,"enable_color_correct_adjust":false,"enable_color_curves":true,"enable_color_match_adjust":false,"enable_color_wheels":true,"enable_hsl":false,"enable_lut":true,"enable_smart_color_adjust":false,"enable_video_mask":true,"extra_material_refs":["D67868B4-DDCA-4fb1-9085-0FF40803877C","5335FE46-48E1-4451-98EE-D2BAD56C1B6C","61B3E85B-D72D-4558-B9B9-B57BD141D386","8B7AEE46-58D9-4b67-AA2F-15CC57882832","B61A155C-4860-49c9-8898-B3D3DD35EF70"],"group_id":"","hdr_settings":{"intensity":1.0,"mode":1,"nits":1000},"id":"48C596F0-96C8-4e86-8B89-6A5D13F5A75E","intensifies_audio":false,"is_loop":false,"is_placeholder":false,"is_tone_modify":false,"keyframe_refs":[],"last_nonzero_volume":1.0,"lyric_keyframes":null,"material_id":"DCDBD8E6-8A62-4050-8B95-1DFE93E3768B","raw_segment_id":"","render_index":1,"render_timerange":{"duration":0,"start":0},"responsive_layout":{"enable":false,"horizontal_pos_layout":0,"size_layout":0,"target_follow":"","vertical_pos_layout":0},"reverse":false,"source_timerange":{"duration":6703966666,"start":0},"speed":1.0,"state":0,"target_timerange":{"duration":6703966666,"start":0},"template_id":"","template_scene":"default","track_attribute":0,"track_render_index":0,"uniform_scale":{"on":true,"value":1.0},"visible":true,"volume":1.0}],"type":"video"}],"uneven_animation_template_info":{"composition":"","content":"","order":"","sub_template_info_list":[]},"update_time":0,"version":360000}